<svg width="50" height="50" viewBox="0 0 50 50" fill="none" xmlns="http://www.w3.org/2000/svg">
<path d="M5.71459 15.4482C6.42778 15.4482 11.916 15.406 12.044 15.4822C12.3059 15.638 12.2512 16.0051 11.9101 16.0179C10.9496 16.1064 5.6802 16.0356 5.57279 15.9922C5.31529 15.8884 5.44571 15.4797 5.71459 15.4482Z" fill="#3E3E57" fill-opacity="0.3"/>
<path d="M5.95122 6.88428L9.31171 6.88742C9.6564 6.88678 11.9504 6.7769 12.1419 6.99653C12.3698 7.25815 12.1188 7.52431 11.7396 7.48311C11.3981 7.50353 11.0481 7.48549 10.7056 7.4848L8.69187 7.48058C8.23827 7.47999 5.7188 7.60453 5.48834 7.37982C5.20781 7.10628 5.614 6.8811 5.95122 6.88428Z" fill="#3E3E57" fill-opacity="0.3"/>
<path d="M10.7158 12.5928C10.7855 12.5915 12.8226 12.4176 12.1365 13.0812C11.9192 13.2915 10.8633 13.1818 10.5123 13.1816L6.96408 13.1819C6.70244 13.1834 4.65275 13.3068 5.62525 12.5928C6.19829 12.5756 6.77706 12.5917 7.35064 12.5919L10.7158 12.5928Z" fill="#3E3E57" fill-opacity="0.3"/>
<path d="M5.62491 9.69793C6.00819 9.67512 6.40459 9.69684 6.78953 9.69684L11.0768 9.70012C11.3678 9.70285 11.6795 9.68465 11.9672 9.72559C12.3634 9.78207 12.3027 10.1882 12.0048 10.3227C10.7519 10.3974 9.4629 10.3235 8.20603 10.3232C8.05556 10.3232 4.30443 10.5408 5.62491 9.69793Z" fill="#3E3E57" fill-opacity="0.3"/>
<path d="M31.1517 6.88379C31.5452 7.01148 31.458 7.25927 31.1964 7.49087C29.0006 9.43498 26.2807 11.4095 23.9392 13.1812C23.5916 13.4443 22.8835 14.0905 22.5216 14.2276C21.6065 13.7707 19.6955 12.5744 18.9043 11.9992C18.1912 12.8102 17.2753 13.7194 16.5149 14.4967L12.0098 19.0822C11.5599 19.5476 10.1128 21.1966 9.55393 21.4237C8.80776 21.2429 9.85417 20.4323 10.056 20.2255L16.5554 13.5963C17.1925 12.9469 17.9542 12.0244 18.6148 11.4472C18.7939 11.2908 18.8796 11.3372 19.0818 11.443C20.1555 12.0049 21.4922 12.898 22.5216 13.5562L29.6089 8.02091C30.015 7.69498 30.6836 7.06643 31.1517 6.88379Z" fill="#3E3E57" fill-opacity="0.3"/>
<path d="M30.6391 11.1104L39.9721 11.1109C40.3999 11.1128 40.82 11.1393 41.2479 11.1104C41.5165 11.3239 41.484 11.6129 41.4872 11.9278C41.5089 13.9659 41.4868 16.0068 41.4869 18.0451L41.4869 38.3275C41.4881 38.6733 41.5121 39.0366 41.4731 39.3799C41.2712 41.1593 39.0261 40.8186 37.8015 40.8184L18.9051 40.8189L10.9226 40.8202C8.60967 40.8239 8.10724 40.6247 8.10818 38.0028L8.11029 25.5468C8.11021 25.1254 8.0506 23.8729 8.14584 23.5502C8.38568 23.3246 10.8178 23.4379 11.2341 23.4378L16.3442 23.4381C17.1953 23.4384 18.0553 23.4674 18.9051 23.4388L18.9053 19.399C18.9048 17.4585 18.4594 17.7703 20.7038 17.7726L30.1964 17.7737C30.1651 17.342 30.1957 16.8891 30.1959 16.4552C30.1962 16.0492 30.1516 11.2934 30.1769 11.2411C30.301 11.1245 30.4782 11.1277 30.6391 11.1104ZM30.7589 11.6946C30.7117 12.1321 30.7562 12.5652 30.7578 13.0036L30.7613 26.5316C30.7629 26.8165 30.6138 27.257 30.9999 27.2463C31.0442 26.8511 31.0004 26.1671 30.9997 25.7415L30.9999 11.9359H40.9162C40.9113 11.4558 39.7316 11.6939 39.244 11.6939L32.1704 11.694C31.7003 11.6929 31.2284 11.6643 30.7589 11.6946Z" fill="#3E3E57" fill-opacity="0.3"/>
<path d="M8.69203 23.9988L15.5719 23.9983C16.5732 23.9982 17.7177 23.9396 18.7051 23.9965C18.8892 24.0071 18.8959 24.1164 18.9042 24.274C18.4877 24.3113 18.0755 24.28 17.6588 24.2757L8.92609 24.274V27.9243C8.92648 28.1942 8.94104 29.0525 8.92609 29.0525C8.91114 29.0525 8.69142 29.0525 8.69142 29.0525C8.69142 29.0525 8.69149 28.8816 8.6915 28.2224C8.6915 27.9294 8.6914 27.6051 8.69141 27.2642L8.69203 23.9988Z" fill="#FEFEFE" fill-opacity="0.3"/>
<path d="M8.68511 29.6751C9.24753 29.6574 9.8155 29.6742 10.3785 29.6744L13.7151 29.675C15.42 29.6746 18.8973 29.7115 18.8973 29.7115L18.8973 29.905C18.8973 29.905 18.3242 29.9101 18.0428 29.9095L11.6312 29.9048C10.7274 29.905 9.82245 29.9179 8.91917 29.8821C8.93409 30.6707 8.91893 31.4617 8.91886 32.2506V37.0089C8.91893 38.0623 8.98268 38.9598 9.01472 39.9661C8.57362 39.4674 8.68073 38.9519 8.68284 38.3289L8.68511 29.6751Z" fill="#FEFEFE" fill-opacity="0.3"/>
<path d="M30.7569 27.834L37.7769 27.8332C38.1793 27.8332 40.6403 27.7867 40.8581 27.8702C40.9121 27.9384 40.9074 28.0409 40.9143 28.1253C40.5148 28.1005 40.1155 28.1214 39.7158 28.1243L30.998 28.1253C30.9563 28.6985 30.9976 29.2985 30.9979 29.8751L30.9977 38.0828C30.9975 38.8151 30.9608 39.5645 30.998 40.2943C30.784 40.2742 30.7629 40.2278 30.7574 40.0139C30.7231 38.6769 30.7575 37.329 30.7574 35.991L30.7569 27.834Z" fill="#FEFEFE" fill-opacity="0.3"/>
<path d="M19.5316 18.3595C19.5316 18.3595 28.9394 18.357 29.3259 18.357C29.7123 18.357 30.2006 18.2618 30.1956 18.5637C29.6717 18.7515 28.3807 18.6504 27.8081 18.6504L21.3637 18.6509C20.8212 18.6509 20.2731 18.6689 19.7314 18.6502L19.6781 39.0626C19.6793 39.3493 19.6781 40.2833 19.6781 40.2833H19.5316C19.5316 40.0411 19.4805 33.1788 19.4805 32.3861L19.5316 18.3595Z" fill="#FEFEFE" fill-opacity="0.3"/>
<path d="M8.88672 24.2676L17.6421 24.2692C18.0576 24.2736 18.4685 24.3052 18.8838 24.2676C18.9134 24.7838 18.882 25.3078 18.8819 25.8251L18.8838 29.0854C18.5837 29.1202 18.2725 29.0883 17.9705 29.0866L11.3219 29.0851C10.5272 29.085 9.70562 29.037 8.91113 29.0527C8.91113 28.833 8.91152 28.2262 8.91113 27.9541L8.88672 24.2676Z" fill="#FD6362" fill-opacity="0.3"/>
<path d="M8.91211 29.8831C9.82362 29.8829 10.7417 29.883 11.6373 29.883H18.043C18.3285 29.8803 18.8975 29.883 18.8975 29.883C18.8975 29.883 18.9044 31.5794 18.9042 32.4152L18.9032 39.3359C18.9024 39.6482 18.8768 39.9848 18.9049 40.295L10.7794 40.2959C10.2222 40.2962 9.44154 40.4211 9.02232 39.9668C8.99029 38.9605 8.92654 38.063 8.92646 37.0096V32.2512C8.92654 31.4623 8.92703 30.6717 8.91211 29.8831Z" fill="#5FCBF1" fill-opacity="0.3"/>
<path d="M40.9154 28.1263L40.9166 38.004C40.9188 39.5771 40.9929 40.3057 39.1145 40.2998L33.7017 40.2949C32.8017 40.2952 31.8989 40.3103 30.9991 40.2953C30.9619 39.5654 30.9986 38.816 30.9988 38.0837L30.999 29.876C30.9987 29.2994 30.9574 28.6994 30.9991 28.1263L39.7169 28.1253C40.1166 28.1224 40.5159 28.1014 40.9154 28.1263Z" fill="#5FCBF1" fill-opacity="0.3"/>
<path d="M30.9983 11.9355H40.9146V27.2941C37.7545 27.1284 34.1795 27.2064 30.9983 27.2459C31.0426 26.8507 30.9988 26.1667 30.998 25.7412L30.9983 11.9355Z" fill="#FD6362" fill-opacity="0.3"/>
<path d="M19.7265 18.6523C19.7265 18.6523 20.9025 18.6518 21.4111 18.6383H27.8514C28.424 18.6384 29.6762 18.7425 30.2001 18.5547L30.2389 40.2828C29.9464 40.2535 29.6423 40.282 29.3478 40.2824L21.3337 40.2832C21.1111 40.2832 19.7702 40.2828 19.6777 40.2828C19.6777 39.8562 19.6789 39.3248 19.6777 39.0381L19.7265 18.6523Z" fill="#5FCBF1" fill-opacity="0.3"/>
</svg>
