<svg width="50" height="50" viewBox="0 0 50 50" fill="none" xmlns="http://www.w3.org/2000/svg">
<path d="M5.71459 15.4481C6.42778 15.4481 11.916 15.4059 12.044 15.4821C12.3059 15.638 12.2512 16.0051 11.9101 16.0179C10.9496 16.1063 5.6802 16.0355 5.57279 15.9922C5.31529 15.8883 5.44571 15.4796 5.71459 15.4481Z" fill="#3E3E57"/>
<path d="M5.95122 6.88422L9.31171 6.88736C9.6564 6.88672 11.9504 6.77684 12.1419 6.99647C12.3698 7.25809 12.1188 7.52425 11.7396 7.48305C11.3981 7.50346 11.0481 7.48543 10.7056 7.48474L8.69187 7.48052C8.23827 7.47993 5.7188 7.60446 5.48834 7.37976C5.20781 7.10621 5.614 6.88104 5.95122 6.88422Z" fill="#3E3E57"/>
<path d="M10.7158 12.5929C10.7855 12.5916 12.8226 12.4177 12.1365 13.0813C11.9192 13.2916 10.8633 13.1819 10.5123 13.1816L6.96408 13.182C6.70244 13.1834 4.65275 13.3069 5.62525 12.5929C6.19829 12.5757 6.77706 12.5918 7.35064 12.592L10.7158 12.5929Z" fill="#3E3E57"/>
<path d="M5.62491 9.69821C6.00819 9.67539 6.40459 9.69711 6.78953 9.69711L11.0768 9.70039C11.3678 9.70313 11.6795 9.68492 11.9672 9.72586C12.3634 9.78235 12.3027 10.1885 12.0048 10.323C10.7519 10.3977 9.4629 10.3238 8.20603 10.3235C8.05556 10.3235 4.30443 10.5411 5.62491 9.69821Z" fill="#3E3E57"/>
<path d="M31.1517 6.88422C31.5452 7.0119 31.458 7.2597 31.1964 7.49129C29.0006 9.4354 26.2807 11.4099 23.9392 13.1817C23.5916 13.4447 22.8835 14.091 22.5216 14.228C21.6065 13.7711 19.6955 12.5749 18.9043 11.9996C18.1912 12.8106 17.2753 13.7198 16.5149 14.4971L12.0098 19.0827C11.5599 19.5481 10.1128 21.197 9.55393 21.4242C8.80776 21.2433 9.85417 20.4327 10.056 20.2259L16.5554 13.5967C17.1925 12.9473 17.9542 12.0249 18.6148 11.4477C18.7939 11.2912 18.8796 11.3376 19.0818 11.4435C20.1555 12.0053 21.4922 12.8984 22.5216 13.5567L29.6089 8.02134C30.015 7.69541 30.6836 7.06686 31.1517 6.88422Z" fill="#3E3E57"/>
<path d="M30.6391 11.11L39.9721 11.1106C40.3999 11.1124 40.82 11.1389 41.2479 11.11C41.5165 11.3236 41.484 11.6125 41.4872 11.9274C41.5089 13.9656 41.4868 16.0065 41.4869 18.0448L41.4869 38.3271C41.4881 38.673 41.5121 39.0363 41.4731 39.3796C41.2712 41.1589 39.0261 40.8182 37.8015 40.8181L18.9051 40.8185L10.9226 40.8199C8.60967 40.8236 8.10724 40.6243 8.10818 38.0024L8.11029 25.5465C8.11021 25.125 8.0506 23.8725 8.14584 23.5499C8.38568 23.3242 10.8178 23.4375 11.2341 23.4374L16.3442 23.4378C17.1953 23.4381 18.0553 23.467 18.9051 23.4385L18.9053 19.3987C18.9048 17.4581 18.4594 17.7699 20.7038 17.7723L30.1964 17.7734C30.1651 17.3417 30.1957 16.8888 30.1959 16.4549C30.1962 16.0488 30.1516 11.2931 30.1769 11.2407C30.301 11.1242 30.4782 11.1274 30.6391 11.11ZM30.7589 11.6943C30.7117 12.1317 30.7562 12.5649 30.7578 13.0032L30.7613 26.5313C30.7629 26.8162 30.6138 27.2567 30.9999 27.246C31.0442 26.8507 31.0004 26.1667 30.9997 25.7412L30.9999 11.9356H40.9162C40.9113 11.4555 39.7316 11.6935 39.244 11.6935L32.1704 11.6937C31.7003 11.6925 31.2284 11.664 30.7589 11.6943Z" fill="#3E3E57"/>
<path d="M8.69203 23.9991L15.5719 23.9986C16.5732 23.9985 17.7177 23.9399 18.7051 23.9968C18.8892 24.0074 18.8959 24.1167 18.9042 24.2743C18.4877 24.3116 18.0755 24.2803 17.6588 24.276L8.92609 24.2743V27.9246C8.92648 28.1945 8.94104 29.0528 8.92609 29.0528C8.91114 29.0528 8.69142 29.0528 8.69142 29.0528C8.69142 29.0528 8.69149 28.8819 8.6915 28.2227C8.6915 27.9297 8.6914 27.6054 8.69141 27.2645L8.69203 23.9991Z" fill="#FEFEFE"/>
<path d="M8.68511 29.6755C9.24753 29.6578 9.8155 29.6746 10.3785 29.6748L13.7151 29.6755C15.42 29.675 18.8973 29.7119 18.8973 29.7119L18.8973 29.9054C18.8973 29.9054 18.3242 29.9105 18.0428 29.9099L11.6312 29.9052C10.7274 29.9054 9.82245 29.9183 8.91917 29.8825C8.93409 30.6712 8.91893 31.4621 8.91886 32.251V37.0094C8.91893 38.0627 8.98268 38.9602 9.01472 39.9666C8.57362 39.4678 8.68073 38.9523 8.68284 38.3293L8.68511 29.6755Z" fill="#FEFEFE"/>
<path d="M30.7569 27.8345L37.7769 27.8337C38.1793 27.8337 40.6403 27.7872 40.8581 27.8706C40.9121 27.9388 40.9074 28.0413 40.9143 28.1258C40.5148 28.1009 40.1155 28.1219 39.7158 28.1248L30.998 28.1258C30.9563 28.6989 30.9976 29.2989 30.9979 29.8756L30.9977 38.0832C30.9975 38.8156 30.9608 39.5649 30.998 40.2948C30.784 40.2747 30.7629 40.2283 30.7574 40.0144C30.7231 38.6774 30.7575 37.3295 30.7574 35.9915L30.7569 27.8345Z" fill="#FEFEFE"/>
<path d="M19.5316 18.3594C19.5316 18.3594 28.9394 18.3569 29.3259 18.3569C29.7123 18.3569 30.2006 18.2617 30.1956 18.5636C29.6717 18.7514 28.3807 18.6503 27.8081 18.6502L21.3637 18.6508C20.8212 18.6508 20.2731 18.6688 19.7314 18.6501L19.6781 39.0625C19.6793 39.3492 19.6781 40.2832 19.6781 40.2832H19.5316C19.5316 40.041 19.4805 33.1787 19.4805 32.3859L19.5316 18.3594Z" fill="#FEFEFE"/>
<path d="M8.88672 24.2676L17.6421 24.2692C18.0576 24.2736 18.4685 24.3052 18.8838 24.2676C18.9134 24.7838 18.882 25.3078 18.8819 25.8251L18.8838 29.0854C18.5837 29.1202 18.2725 29.0883 17.9705 29.0866L11.3219 29.0851C10.5272 29.085 9.70562 29.037 8.91113 29.0527C8.91113 28.833 8.91152 28.2262 8.91113 27.9541L8.88672 24.2676Z" fill="#FD6362"/>
<path d="M8.91211 29.8828C9.82362 29.8827 10.7417 29.8828 11.6373 29.8828H18.043C18.3285 29.8801 18.8975 29.8828 18.8975 29.8828C18.8975 29.8828 18.9044 31.5792 18.9042 32.4149L18.9032 39.3356C18.9024 39.648 18.8768 39.9846 18.9049 40.2948L10.7794 40.2957C10.2222 40.296 9.44154 40.4208 9.02232 39.9665C8.99029 38.9602 8.92654 38.0627 8.92646 37.0094V32.251C8.92654 31.4621 8.92703 30.6715 8.91211 29.8828Z" fill="#5FCBF1"/>
<path d="M40.9154 28.1258L40.9166 38.0035C40.9188 39.5766 40.9929 40.3052 39.1145 40.2993L33.7017 40.2944C32.8017 40.2947 31.8989 40.3098 30.9991 40.2948C30.9619 39.5649 30.9986 38.8155 30.9988 38.0832L30.999 29.8755C30.9987 29.2989 30.9574 28.6989 30.9991 28.1258L39.7169 28.1248C40.1166 28.1219 40.5159 28.1009 40.9154 28.1258Z" fill="#5FCBF1"/>
<path d="M30.9983 11.9355H40.9146V27.2941C37.7545 27.1284 34.1795 27.2064 30.9983 27.2459C31.0426 26.8507 30.9988 26.1667 30.998 25.7412L30.9983 11.9355Z" fill="#FD6362"/>
<path d="M19.7265 18.6523C19.7265 18.6523 20.9025 18.6518 21.4111 18.6383H27.8514C28.424 18.6384 29.6762 18.7425 30.2001 18.5547L30.2389 40.2828C29.9464 40.2535 29.6423 40.282 29.3478 40.2824L21.3337 40.2832C21.1111 40.2832 19.7702 40.2828 19.6777 40.2828C19.6777 39.8562 19.6789 39.3248 19.6777 39.0381L19.7265 18.6523Z" fill="#5FCBF1"/>
</svg>
