<svg width="50" height="50" viewBox="0 0 50 50" fill="none" xmlns="http://www.w3.org/2000/svg">
<path d="M10.6105 8.79393L38.2127 8.79121C39.608 8.79128 40.6099 8.99319 41.5184 10.2374L41.6082 10.3685C41.9897 10.9658 42.1082 11.5205 42.1093 12.207L42.1069 29.2288C42.1068 29.8388 41.9919 30.5417 42.2028 31.1215L42.427 31.7388C43.6706 35.7007 42.181 39.8909 38.4114 41.9107C36.7668 42.7291 34.95 43.0533 33.1298 42.7387C30.0072 42.1989 26.9373 39.568 26.4007 36.3742C25.9418 36.3205 25.4662 36.3427 25.0045 36.3425L11.2557 36.3432C10.7449 36.3435 10.2121 36.3746 9.7047 36.3204C8.20332 36.1599 7.22152 34.7275 7.14898 33.3092C7.13017 32.9414 7.15879 32.5669 7.15878 32.198L7.16848 11.6866C7.22507 10.5388 8.16621 9.51266 9.17291 9.06446C9.69396 8.83247 10.0472 8.80574 10.6105 8.79393ZM28.5806 39.5102L28.5825 39.527C29.9437 41.2948 32.2353 42.3051 34.4509 42.3072C38.7825 42.3112 42.2701 38.771 42.3085 34.4973C42.3283 32.2981 41.164 29.3098 39.2646 28.0346C38.8348 27.6851 38.3471 27.3428 37.8346 27.1293L37.674 27.0854C37.3891 27.1283 37.0826 26.9595 36.7835 26.9714C36.5071 26.9286 36.235 26.8317 35.9602 26.7933C34.771 26.6269 33.4412 26.7208 32.3062 27.1445C27.7022 28.8632 25.799 34.4943 28.1177 38.7215L28.4222 39.2326C28.4776 39.3207 28.5513 39.4102 28.5806 39.5102ZM7.95471 15.2658L41.5129 15.2891L41.5259 11.7027C41.4912 11.1148 41.1291 10.5346 40.6962 10.1544C40.5289 9.98844 40.3507 9.85811 40.145 9.74355C40.1207 9.79741 40.104 9.8358 40.0462 9.8599L39.9999 9.87497C39.5256 9.72296 39.0697 9.70602 38.5772 9.70547L36.4677 9.75669L11.3478 9.76089C10.9952 9.76057 10.6302 9.7385 10.2811 9.79088L10.237 9.79718C8.95012 9.99241 8.24169 11.0257 8.12846 12.2461L8.07018 14.8208C8.0701 14.9768 8.14628 15.2181 7.95471 15.2658ZM7.98294 15.2644C8.14628 15.2181 8.0701 14.9768 8.07018 14.8208L8.12846 12.2461C8.24169 11.0257 8.95012 9.99241 10.237 9.79718L10.2811 9.79088C10.6302 9.7385 10.9952 9.76057 11.3478 9.76089L36.4677 9.75669L38.5772 9.70547C39.0697 9.70602 39.5256 9.72296 39.9999 9.87497L40.0462 9.8599C40.104 9.8358 40.1207 9.79741 40.145 9.74355C39.2805 9.32652 38.5852 9.40595 37.6549 9.40681L10.4422 9.41528C9.2771 9.45732 8.0201 10.2705 7.80371 11.4757C7.71761 11.9552 7.75188 12.4808 7.75135 12.9677L7.77658 15.2696L7.98294 15.2644ZM28.5806 39.5102C28.5513 39.4102 28.4776 39.3207 28.4222 39.2326L28.1177 38.7215C25.799 34.4943 27.7022 28.8632 32.3062 27.1445C33.4412 26.7208 34.771 26.6269 35.9602 26.7933C36.235 26.8317 36.5071 26.9286 36.7835 26.9714C37.0826 26.9595 37.3891 27.1283 37.674 27.0854L37.8346 27.1293C36.3537 26.2851 34.2021 26.1794 32.6011 26.6126C28.4635 27.7319 25.8273 32.2735 26.9888 36.4125C27.2364 37.2948 27.8844 38.8495 28.5806 39.5102Z" fill="#3B3E57"/>
<path d="M8.61593 35.1648C7.80196 34.5818 7.69292 33.6621 7.69267 32.7582L7.69238 15.9361L41.2668 15.9408C41.4076 15.9414 41.6213 15.9144 41.7524 15.9643L41.7583 16.1687L41.7267 16.2121C41.6138 16.2553 41.3989 16.234 41.2748 16.235L8.00259 16.2357L8.0108 31.9011C8.0108 32.9172 7.84644 33.9313 8.43435 34.8278C8.47723 34.8933 8.66525 35.0881 8.61593 35.1648Z" fill="white"/>
<path d="M7.69238 14.8123C7.88364 14.7653 7.80759 14.5279 7.80766 14.3744L7.86585 11.8407C7.97889 10.6399 8.68617 9.62301 9.97091 9.4309L10.015 9.42471C10.3635 9.37316 10.7279 9.39488 11.0799 9.39519L36.1589 9.39106L38.265 9.34066C38.7566 9.3412 39.2118 9.35787 39.6853 9.50746L39.7315 9.49262C39.7893 9.46891 39.806 9.43113 39.8302 9.37813C40.0355 9.49086 40.2135 9.61911 40.3806 9.78247C40.8127 10.1565 41.1742 10.7275 41.2089 11.306L41.1959 14.8352L7.69238 14.8123ZM34.046 11.7994C33.8325 12.0577 33.5452 12.5379 33.1875 12.59L33.1517 12.5753C32.9254 12.4911 32.5631 12.5347 32.3188 12.5337L30.645 12.5272C30.3726 12.5262 30.0113 12.4776 29.7481 12.533L29.7227 12.6205C29.7279 12.6841 29.7331 12.7343 29.76 12.7939C30.1624 12.8456 30.5875 12.8269 30.9933 12.8277L33.5492 12.8422C33.942 12.8516 33.8914 12.5216 34.2205 12.4711C34.1933 12.3615 34.3139 11.9501 34.3291 11.8024L34.2981 11.7736C34.2175 11.7496 34.1265 11.7813 34.046 11.7994ZM38.4202 11.8884C38.4581 12.0544 38.5103 12.4238 38.2615 12.4617L34.2205 12.4711L34.2253 12.4919C34.2569 12.5815 34.3848 12.7146 34.4673 12.7626L37.254 12.7598C37.4728 12.7597 38.3757 12.8099 38.5246 12.7057C38.8045 12.5097 38.8863 11.8517 38.4202 11.8884Z" fill="#FA6564"/>
<path d="M40.2249 9.89011C40.3871 10.0433 40.5278 10.2176 40.6598 10.4396C40.6255 10.4215 40.6341 10.4283 40.6085 10.4085L40.1104 10.0658L40.1469 10.0457C40.1925 10.0135 40.2057 9.96213 40.2249 9.89011Z" fill="white"/>
<path d="M34.732 12.0879L38.1902 12.0955C38.4474 12.0973 38.736 12.0812 38.9774 12.1568C39.0168 12.296 39.0709 12.6011 38.8128 12.6324L34.6194 12.6374C34.5911 12.5496 34.7163 12.2099 34.732 12.0879Z" fill="#3B3E57"/>
<path d="M29.7398 12.6076C29.5267 12.5548 29.1006 12.4637 29.1219 12.1816C29.4174 11.8386 29.8905 11.9988 30.296 12.0069L32.3166 12.0122C32.6074 12.0129 32.9099 12.0395 33.1984 12.0281C33.3972 12.0201 33.365 11.647 33.5228 11.539C33.7778 11.5292 34.0375 11.6466 34.0661 11.8966C33.8524 12.1386 33.5649 12.5885 33.207 12.6374L33.1712 12.6235C32.9447 12.5446 32.5822 12.5856 32.3377 12.5846L30.6627 12.5785C30.3901 12.5775 30.0285 12.532 29.7652 12.5839L29.7398 12.6076Z" fill="#3B3E57"/>
<path d="M22.2814 12.0879L22.3987 12.1344C22.5417 12.2117 22.5757 12.3912 22.4504 12.4845C22.1972 12.6732 21.5416 12.6335 21.1882 12.6345L11.1612 12.6113C11.1212 12.5328 11.085 12.4914 10.9893 12.4392C11.2426 12.4148 11.4978 12.4283 11.753 12.429L20.7732 12.43C21.1196 12.4297 21.4776 12.4409 21.8228 12.4217C22.2145 12.3999 22.259 12.3349 22.2814 12.0879Z" fill="white"/>
<path d="M10.874 12.6374C10.7421 12.6 10.6067 12.5828 10.4813 12.5305C10.3811 12.3898 10.4709 12.1916 10.6437 12.1163C10.8541 12.0934 11.0737 12.1035 11.2858 12.1033L21.0471 12.1037C21.2294 12.104 21.6666 12.0506 21.8192 12.1385L21.9779 12.225C21.9559 12.5149 21.9121 12.5912 21.527 12.6168C21.1875 12.6394 20.8355 12.6262 20.4948 12.6265L11.625 12.6254C11.3741 12.6245 11.1231 12.6087 10.874 12.6374Z" fill="#3B3E57"/>
<path d="M28.3945 39.9987C28.3648 39.8965 28.2901 39.805 28.234 39.715L27.9254 39.1927C25.5754 34.8726 27.5043 29.1178 32.1703 27.3614C33.3205 26.9284 34.6683 26.8324 35.8735 27.0024C36.1519 27.0417 36.4277 27.1408 36.7078 27.1845C37.011 27.1723 37.3216 27.3448 37.6103 27.301L37.7731 27.3458C38.2925 27.564 38.7868 27.9139 39.2223 28.2711C41.1473 29.5743 42.3273 32.6282 42.3072 34.8757C42.2683 39.2433 38.7338 42.8612 34.3438 42.8571C32.0984 42.855 29.7759 41.8225 28.3964 40.0159L28.3945 39.9987ZM36.126 31.0688C36.7877 31.9071 36.5358 33.3172 35.7127 33.9525C35.1778 34.3653 34.2158 34.4302 33.5808 34.1826C33.0204 34.2049 31.8025 34.62 31.5982 35.2244C31.5431 35.5792 31.3726 37.2872 31.5458 37.5305L31.7354 37.5473C31.9014 36.9106 31.6011 36.3059 32.1749 35.5724C32.4177 35.262 33.1819 34.5282 33.5793 34.4874C33.8365 34.461 34.1486 34.5835 34.4056 34.6189C34.6454 34.6519 35.7633 34.7568 35.8836 34.5441C36.3101 33.7904 37.0813 33.0832 36.8442 32.0971L36.8363 32.0662C36.7329 31.6511 36.4806 31.3029 36.126 31.0688ZM37.904 35.8048C37.9761 36.3056 37.9887 36.7813 37.9904 37.2867C37.9932 38.1431 37.9614 38.1851 37.1929 38.1852L32.2232 38.1673C32.0457 38.16 31.8708 38.1369 31.6956 38.1743L31.5264 38.2106C31.7605 38.6294 33.0459 38.4808 33.4991 38.4814L37.1276 38.4872C38.1461 38.4967 38.3614 38.4102 38.3506 37.2699C38.3469 36.8993 38.3122 35.5966 37.9923 35.3583L37.9467 35.3921C37.89 35.5177 37.9002 35.6687 37.904 35.8048Z" fill="#FA6564"/>
<path d="M36.8135 26.9237C37.1447 26.9119 37.4841 27.0785 37.7995 27.0362L37.9774 27.0795C38.5449 27.2902 39.0848 27.6281 39.5607 27.973L39.5326 28.022C39.4387 28.018 39.3128 27.9218 39.2306 27.8771L38.6284 27.5676C38.0417 27.2726 37.4497 27.104 36.8135 26.9237Z" fill="url(#paint0_linear_140_2675)"/>
<path d="M31.5868 37.2354C31.8043 37.2587 32.016 37.2167 32.2336 37.2082L37.2566 37.1979C37.3369 36.3801 37.3277 35.2423 36.6804 34.6783C36.5194 34.538 36.2142 34.394 36.1013 34.2183C35.9387 33.9652 36.5054 34.0951 36.5923 34.1331C37.1786 34.3894 37.5848 34.8613 37.8161 35.4578C37.8979 35.9687 37.9106 36.454 37.9123 36.9695C37.915 37.8431 37.8831 37.886 37.1083 37.8862L32.0982 37.8678C31.9193 37.8604 31.7429 37.8368 31.5664 37.875L31.3958 37.9121C30.6305 37.6938 30.7794 36.9821 30.7844 36.3455C30.7879 35.9072 30.7634 35.448 30.8236 35.014C31.0444 34.9368 31.2331 34.8763 31.4682 34.8657C31.4126 35.2277 31.2407 36.97 31.4153 37.2182L31.5868 37.2354Z" fill="#3B3E57"/>
<path d="M33.4636 33.3816C31.7045 32.4468 32.2714 29.7048 34.3681 29.6705C35.0295 29.6597 35.4639 30.0623 35.9023 30.4839C36.5363 31.264 36.295 32.5762 35.5063 33.1674C34.9938 33.5516 34.072 33.612 33.4636 33.3816Z" fill="#3B3E57"/>
<path d="M33.5358 33.5165C32.559 32.5794 32.8661 31.0019 34.2549 30.7941L34.3065 30.7866C34.8918 30.698 35.386 30.9532 35.7141 31.4472L35.6527 31.5431C35.5275 31.5431 35.2146 31.1637 34.8433 31.1097L34.7974 31.1029C33.9966 30.9942 33.3642 31.6558 33.2945 32.4211C33.262 32.7782 33.4223 33.1828 33.5358 33.5165Z" fill="white"/>
<path d="M33.7683 33.1323C33.6519 32.8071 33.4877 32.413 33.521 32.0651C33.5924 31.3195 34.2404 30.6748 35.0609 30.7807L35.1079 30.7874C35.4884 30.8399 35.809 31.2096 35.9373 31.2096L36.0001 31.1162C36.947 32.4866 35.1315 34.153 33.9139 33.2694C33.8769 33.2425 33.7846 33.1675 33.7683 33.1323Z" fill="#FA6564"/>
<path d="M8.3137 35.1308C8.36263 35.0531 8.1761 34.8559 8.13356 34.7897C7.55029 33.8822 7.71335 32.8557 7.71336 31.8273L7.70521 15.9713L40.7146 15.9706C40.8377 15.9696 41.0509 15.9911 41.163 15.9474L41.1943 15.9341L41.2089 29.5899C41.1593 29.4131 41.0467 29.3396 40.9461 29.194C40.2347 28.1658 39.1835 27.2538 38.0943 26.6499C32.4342 23.512 25.8178 27.9881 25.8251 34.2845C25.8254 34.6043 25.8157 34.9262 25.8727 35.2421L25.9375 35.7143L10.1368 35.7063C9.47529 35.7061 8.82219 35.6095 8.3137 35.1308Z" fill="#5FCAF3"/>
<path d="M23.2794 27.4725C23.422 27.5022 23.5282 27.5222 23.6268 27.6279C23.5684 28.1436 22.8871 28.0061 22.4939 28.0034L17.5536 27.9976L14.2963 27.9109C14.2922 27.8508 14.2696 27.7596 14.3089 27.7129C14.7912 27.7891 15.2868 27.7719 15.7721 27.7727L22.9837 27.7764C23.2398 27.7676 23.2837 27.6936 23.2794 27.4725Z" fill="white"/>
<path d="M23.3068 23.6264C23.4219 23.6487 23.5097 23.6673 23.5751 23.7663C23.8927 24.2471 22.6508 24.1718 22.4752 24.1712L17.1831 24.165C16.949 24.1623 16.7206 24.1198 16.4867 24.114L14.2861 24.0843L14.2907 23.9045C14.6274 23.9433 15.0119 23.9144 15.3549 23.9147L23.0375 23.9213C23.253 23.9167 23.3059 23.8152 23.3068 23.6264Z" fill="white"/>
<path d="M22.8065 31.4025C23.1832 31.079 23.1833 31.7923 22.7033 31.8491C22.382 31.8872 22.0186 31.8563 21.6931 31.8562L14.7058 31.8282C14.4819 31.8147 14.2515 31.8777 14.2905 31.5783C14.885 31.6506 15.5327 31.6073 16.133 31.6078H21.6674C22.1086 31.6071 22.5665 31.7509 22.8065 31.4025Z" fill="white"/>
<path d="M24.9173 20.4937C25.1337 19.9998 25.6661 20.768 24.7842 20.8791L14.3269 20.8724C14.2595 20.7707 14.2877 20.66 14.3255 20.5543L23.767 20.5715C24.0502 20.5721 24.6959 20.7 24.9173 20.4937Z" fill="white"/>
<path d="M14.4594 31.2717C14.1438 31.0923 14.2873 30.8074 14.6642 30.8026L22.082 30.799C22.7892 30.7975 22.8539 30.6273 23.0773 31.1176C22.8345 31.4168 22.3711 31.2933 21.9246 31.294H16.3239C15.7165 31.2935 15.0611 31.3307 14.4594 31.2717Z" fill="#3B3E57"/>
<path d="M14.3655 24.145L14.2861 23.8696C14.5458 23.5381 14.7233 23.6441 15.1592 23.6433L22.2392 23.6435C22.8053 23.645 22.8197 23.5283 23.0495 23.8841L23.0773 23.9165C23.0764 24.0822 23.0254 24.1714 22.8171 24.1754L15.3937 24.1695C15.0624 24.1693 14.6908 24.1947 14.3655 24.145Z" fill="#3B3E57"/>
<path d="M14.3167 27.433C14.2411 27.1782 14.2897 26.951 14.6469 26.9339C15.1333 26.9107 15.6368 26.9319 16.125 26.9317L21.5513 26.9325C22.0048 26.9329 22.4716 26.913 22.9226 26.9477C22.9841 27.0271 23.034 27.1029 23.0771 27.191C23.0812 27.3958 23.0384 27.4644 22.7883 27.4725L15.7455 27.4691C15.2716 27.4684 14.7876 27.4843 14.3167 27.433Z" fill="#3B3E57"/>
<path d="M14.4136 20.2994C13.7762 19.5935 15.7133 19.8123 16.1541 19.8122L24.8623 19.8189C25.2417 19.8332 25.2666 19.9721 25.2751 20.2485C25.0481 20.391 24.386 20.3027 24.0955 20.3022L14.4136 20.2994Z" fill="#3B3E57"/>
<defs>
<linearGradient id="paint0_linear_140_2675" x1="38.1175" y1="27.597" x2="38.1931" y2="27.0993" gradientUnits="userSpaceOnUse">
<stop stop-color="#FFC3C9"/>
<stop offset="1" stop-color="white"/>
</linearGradient>
</defs>
</svg>
