<svg width="32" height="33" viewBox="0 0 32 33" fill="none" xmlns="http://www.w3.org/2000/svg">
<path d="M24.5 0.5H7.5C3.35786 0.5 0 3.85786 0 8V25C0 29.1421 3.35786 32.5 7.5 32.5H24.5C28.6421 32.5 32 29.1421 32 25V8C32 3.85786 28.6421 0.5 24.5 0.5Z" fill="#1E70EB"/>
<path d="M3.5 6.875H28.5V26.2412H3.5V6.875Z" fill="#1E70EB"/>
<path d="M24.6634 8.5992C23.0426 7.85517 21.3321 7.32462 19.5748 7.02082C19.5588 7.01787 19.5423 7.02002 19.5277 7.02698C19.513 7.03393 19.5009 7.04534 19.493 7.05957C19.2733 7.45032 19.0298 7.96032 18.8594 8.36107C16.9378 8.07332 15.0262 8.07332 13.144 8.36107C12.9735 7.95132 12.7213 7.45032 12.5005 7.05957C12.4924 7.04563 12.4802 7.03448 12.4656 7.02756C12.451 7.02065 12.4346 7.0183 12.4187 7.02082C10.6612 7.324 8.95062 7.85458 7.33005 8.5992C7.31618 8.60508 7.30447 8.61513 7.29655 8.62795C4.05555 13.4699 3.1678 18.1929 3.6033 22.8574C3.60451 22.8689 3.60801 22.88 3.6136 22.89C3.61918 22.9001 3.62673 22.9089 3.6358 22.9159C5.77405 24.4863 7.84542 25.4397 9.8783 26.0716C9.89411 26.0763 9.91099 26.0761 9.92667 26.0709C9.94235 26.0658 9.95609 26.056 9.96605 26.0428C10.4469 25.3861 10.8755 24.6937 11.2432 23.9656C11.2482 23.9556 11.2511 23.9447 11.2517 23.9335C11.2522 23.9223 11.2503 23.9112 11.2462 23.9008C11.2421 23.8904 11.2359 23.8809 11.2279 23.8731C11.2199 23.8653 11.2103 23.8593 11.1998 23.8554C10.5198 23.5974 9.87242 23.2831 9.24967 22.9259C9.23833 22.9193 9.22881 22.9099 9.22194 22.8987C9.21507 22.8874 9.21107 22.8747 9.2103 22.8615C9.20952 22.8484 9.21198 22.8353 9.21748 22.8233C9.22297 22.8113 9.23132 22.8009 9.2418 22.7929C9.37317 22.6947 9.50229 22.5935 9.62905 22.4894C9.64015 22.4803 9.65359 22.4744 9.66786 22.4724C9.68212 22.4705 9.69665 22.4726 9.7098 22.4784C13.8013 24.3464 18.2307 24.3464 22.2738 22.4784C22.287 22.4722 22.3017 22.4698 22.3162 22.4716C22.3307 22.4734 22.3444 22.4792 22.3557 22.4884C22.4826 22.5931 22.612 22.6947 22.7439 22.7929C22.7544 22.8008 22.7629 22.8112 22.7684 22.8231C22.774 22.835 22.7766 22.8481 22.7759 22.8613C22.7752 22.8744 22.7713 22.8872 22.7645 22.8985C22.7578 22.9097 22.7483 22.9192 22.737 22.9259C22.1139 23.2898 21.4613 23.6004 20.7859 23.8544C20.7754 23.8585 20.7659 23.8646 20.758 23.8726C20.75 23.8805 20.7439 23.89 20.7399 23.9005C20.7359 23.911 20.7341 23.9222 20.7348 23.9334C20.7354 23.9446 20.7384 23.9556 20.7435 23.9656C21.1175 24.6879 21.544 25.3819 22.0195 26.0418C22.0292 26.0553 22.0429 26.0655 22.0586 26.0708C22.0744 26.0761 22.0914 26.0764 22.1073 26.0716C24.15 25.4397 26.2214 24.4863 28.3598 22.9159C28.369 22.9092 28.3766 22.9006 28.3822 22.8907C28.3878 22.8808 28.3912 22.8698 28.3923 22.8584C28.9135 17.4658 27.5192 12.7814 24.6959 8.62895C24.689 8.61545 24.6775 8.6049 24.6634 8.5992ZM11.8542 20.0173C10.6223 20.0173 9.6073 18.8864 9.6073 17.4976C9.6073 16.1087 10.6027 14.9778 11.8542 14.9778C13.1154 14.9778 14.1205 16.1187 14.1008 17.4976C14.1008 18.8864 13.1055 20.0173 11.8542 20.0173ZM20.1612 20.0173C18.9293 20.0173 17.9144 18.8864 17.9144 17.4976C17.9144 16.1087 18.9097 14.9778 20.1612 14.9778C21.4224 14.9778 22.4275 16.1187 22.4079 17.4976C22.4079 18.8864 21.4224 20.0173 20.1612 20.0173Z" fill="white"/>
</svg>
