<svg width="24" height="24" viewBox="0 0 24 24" fill="none" xmlns="http://www.w3.org/2000/svg">
<path d="M12.002 0C13.7885 0 16.2509 6.56483 16.5237 6.7427C16.7965 6.92101 23.4102 7.7596 23.9587 9.1084C24.5071 10.4572 19.4185 15.3365 19.2922 15.6684C19.1663 16.0003 20.4375 22.9381 19.3915 23.8464C18.3455 24.7543 12.3665 21.2035 12.002 21.2017C11.6375 21.1995 5.90013 24.7737 4.61249 23.8464C3.32485 22.9191 4.80485 16.044 4.71182 15.6684C4.6188 15.2932 -0.535968 10.8942 0.0457639 9.1084C0.627075 7.32221 7.24333 6.92763 7.48074 6.7427C7.71814 6.55777 10.216 0 12.0024 0H12.002Z" fill="#FFBD39"/>
<path d="M12.0023 0.816406C13.6671 0.816406 15.8505 7.16983 16.1048 7.33622C16.359 7.50261 22.6351 8.04946 23.1466 9.30646C23.658 10.5635 18.8025 14.9943 18.6851 15.3033C18.5677 15.6127 19.8645 22.1969 18.8897 23.043C17.9148 23.8895 12.342 20.4628 12.0019 20.4606C11.6618 20.4584 6.31422 23.9072 5.11414 23.043C3.91405 22.1793 5.51739 15.7707 5.43068 15.4207C5.34397 15.0711 0.315479 10.9708 0.857223 9.30646C1.39897 7.64164 7.79002 7.50879 8.01144 7.33622C8.23285 7.16365 10.3371 0.816406 12.0019 0.816406H12.0023Z" fill="url(#paint0_linear_5001_32401)"/>
<defs>
<linearGradient id="paint0_linear_5001_32401" x1="6.43461" y1="6.48086" x2="20.3177" y2="22.3856" gradientUnits="userSpaceOnUse">
<stop offset="0.04" stop-color="#FFF466"/>
<stop offset="0.08" stop-color="#FFF466"/>
<stop offset="0.32" stop-color="#FFEB5F"/>
<stop offset="0.69" stop-color="#FFD54C"/>
<stop offset="0.86" stop-color="#FFC943"/>
</linearGradient>
</defs>
</svg>
