<svg width="24" height="24" viewBox="0 0 24 24" fill="none" xmlns="http://www.w3.org/2000/svg">
<path d="M12.0022 0C13.7886 0 16.251 6.56473 16.5238 6.7426C16.7966 6.92091 23.4102 7.75949 23.9587 9.10828C24.5071 10.4571 19.4185 15.3363 19.2922 15.6686C19.166 16.0005 20.4376 22.9382 19.3916 23.8465C18.3456 24.7544 12.3667 21.2041 12.0022 21.2019C11.6377 21.1997 5.9004 24.7734 4.61278 23.8465C3.32516 22.9197 4.80514 16.0442 4.71212 15.6686C4.61909 15.2935 -0.535603 10.8945 0.0456993 9.10828C0.627002 7.32255 7.24316 6.92753 7.48057 6.7426C7.71797 6.55767 10.2158 0 12.0022 0Z" fill="#FFBD39"/>
<path d="M12.0017 0.816406C13.6669 0.816406 15.8499 7.16974 16.1041 7.33613C16.3583 7.50208 22.6344 8.04892 23.1458 9.30634C23.6573 10.5633 18.8018 14.9941 18.6848 15.3035C18.5674 15.6129 19.8643 22.1971 18.8894 23.0431C17.9145 23.8897 12.3418 20.463 12.0017 20.4608C11.6616 20.4586 6.31414 23.9073 5.11408 23.0431C3.91401 22.1794 5.51732 15.7709 5.43061 15.4209C5.3439 15.0714 0.315487 10.9711 0.857222 9.30634C1.39896 7.64154 7.78992 7.5087 8.01133 7.33613C8.23274 7.16356 10.337 0.816406 12.0017 0.816406Z" fill="url(#paint0_linear_5001_32097)"/>
<path d="M2.31906 9.61415C2.20331 8.43043 5.90664 7.73353 6.07038 9.11894C6.2337 10.5039 2.47733 11.2269 2.31906 9.61415Z" fill="white"/>
<path d="M7.01223 8.72617C6.98445 7.96483 8.09149 7.91849 8.14916 8.54301C8.21356 9.24256 7.03791 9.43852 7.01223 8.72617Z" fill="white"/>
<g opacity="0.6">
<g opacity="0.6">
<path d="M8.79685 14.9431C8.79685 15.7132 8.15199 16.3378 7.35643 16.3378C6.56088 16.3378 5.91602 15.7132 5.91602 14.9431C5.91602 14.1729 6.5613 13.5488 7.35643 13.5488C8.15157 13.5488 8.79685 14.1729 8.79685 14.9431Z" fill="#FF5F82"/>
</g>
<g opacity="0.6">
<path d="M18.3496 14.9431C18.3496 15.7132 17.7047 16.3378 16.9092 16.3378C16.1136 16.3378 15.4688 15.7132 15.4688 14.9431C15.4688 14.1729 16.1136 13.5488 16.9092 13.5488C17.7047 13.5488 18.3496 14.1729 18.3496 14.9431Z" fill="#FF5F82"/>
</g>
</g>
<path d="M8.71111 14.701C8.86517 14.5791 10.572 14.6727 12.2158 14.6776C13.7315 14.682 15.1934 14.5889 15.337 14.701C15.6367 14.9353 14.5949 17.6069 12.0255 17.6069C9.45616 17.6069 8.41562 14.9353 8.71111 14.701Z" fill="#872A2A"/>
<path d="M7.59544 9.75017C3.70648 8.03506 4.11688 12.6481 8.45919 13.3764C11.7559 10.6479 10.6952 6.66067 7.59544 9.75017Z" fill="#FF5F5F"/>
<path d="M16.3845 9.75092C20.2158 7.89766 19.9548 12.5231 15.639 13.4058C12.2556 10.7969 13.1863 6.77397 16.3845 9.75092Z" fill="#FF5F5F"/>
<defs>
<linearGradient id="paint0_linear_5001_32097" x1="6.43369" y1="6.48034" x2="20.317" y2="22.3853" gradientUnits="userSpaceOnUse">
<stop offset="0.04" stop-color="#FFF466"/>
<stop offset="0.08" stop-color="#FFF466"/>
<stop offset="0.32" stop-color="#FFEB5F"/>
<stop offset="0.69" stop-color="#FFD54C"/>
<stop offset="0.86" stop-color="#FFC943"/>
</linearGradient>
</defs>
</svg>
