<svg width="24" height="24" viewBox="0 0 24 24" fill="none" xmlns="http://www.w3.org/2000/svg">
<path d="M12.002 0C13.7885 0 16.2509 6.56483 16.5237 6.7427C16.7965 6.92101 23.4102 7.7596 23.9587 9.1084C24.5071 10.4572 19.4185 15.3365 19.2922 15.6684C19.1663 16.0003 20.4375 22.9381 19.3915 23.8464C18.3455 24.7543 12.3665 21.2035 12.002 21.2017C11.6375 21.1995 5.90013 24.7737 4.61249 23.8464C3.32485 22.9191 4.80485 16.044 4.71182 15.6684C4.6188 15.2932 -0.535968 10.8942 0.0457639 9.1084C0.627075 7.32221 7.24333 6.92763 7.48074 6.7427C7.71814 6.55777 10.216 0 12.0024 0H12.002Z" fill="#FFBD39"/>
<path d="M12.0023 0.816406C13.6671 0.816406 15.8505 7.16983 16.1048 7.33622C16.359 7.50261 22.6351 8.04946 23.1466 9.30646C23.658 10.5635 18.8025 14.9943 18.6851 15.3033C18.5677 15.6127 19.8645 22.1969 18.8897 23.043C17.9148 23.8895 12.342 20.4628 12.0019 20.4606C11.6618 20.4584 6.31422 23.9072 5.11414 23.043C3.91405 22.1793 5.51739 15.7707 5.43068 15.4207C5.34397 15.0711 0.315479 10.9708 0.857223 9.30646C1.39897 7.64164 7.79002 7.50879 8.01144 7.33622C8.23285 7.16365 10.3371 0.816406 12.0019 0.816406H12.0023Z" fill="url(#paint0_linear_5001_32306)"/>
<path d="M2.31906 9.61426C2.20331 8.43053 5.9067 7.73362 6.07044 9.11861C6.23377 10.5036 2.47734 11.2266 2.31906 9.61426Z" fill="white"/>
<path d="M7.01223 8.72813C6.98445 7.96678 8.09151 7.92044 8.14918 8.54497C8.21358 9.24453 7.03791 9.44049 7.01223 8.72813Z" fill="white"/>
<g opacity="0.6">
<g opacity="0.6">
<path d="M8.65041 16.449C8.65041 17.2191 8.00512 17.8437 7.20997 17.8437C6.41482 17.8437 5.76953 17.2191 5.76953 16.449C5.76953 15.6788 6.41482 15.0547 7.20997 15.0547C8.00512 15.0547 8.65041 15.6788 8.65041 16.449Z" fill="#FF5F82"/>
</g>
<g opacity="0.6">
<path d="M18.1992 16.449C18.1992 17.2191 17.5544 17.8437 16.7588 17.8437C15.9632 17.8437 15.3184 17.2191 15.3184 16.449C15.3184 15.6788 15.9632 15.0547 16.7588 15.0547C17.5544 15.0547 18.1992 15.6788 18.1992 16.449Z" fill="#FF5F82"/>
</g>
</g>
<path d="M14.1134 9.87461C13.9109 10.4457 15.0457 12.1472 16.386 11.6489C16.6099 11.5659 15.8489 11.2587 15.2002 10.7847C14.6618 10.3906 14.1668 9.72543 14.1134 9.87505V9.87461Z" fill="#541300"/>
<path d="M9.74589 9.87461C9.94878 10.4457 8.81352 12.1472 7.47368 11.6489C7.24933 11.5659 8.01079 11.2587 8.65946 10.7847C9.19741 10.3906 9.69285 9.72543 9.74589 9.87505V9.87461Z" fill="#541300"/>
<path d="M14.4684 18.4175C14.337 18.5212 9.56909 18.5225 9.43523 18.4175C9.16751 18.2083 9.65664 16.7227 11.9503 16.7227C14.244 16.7227 14.7323 18.2083 14.4679 18.4175H14.4684Z" fill="#872A2A"/>
<path d="M17.6303 13.5969C17.994 13.9191 17.4531 15.6536 16.0059 15.6536C14.5588 15.6536 14.0456 13.9407 14.3462 13.5969C14.6059 13.2998 14.925 14.6685 15.9706 14.6685C17.0162 14.6685 17.323 13.3246 17.6303 13.5969Z" fill="#541300"/>
<path d="M9.61455 13.5969C9.97824 13.9191 9.43733 15.6536 7.99016 15.6536C6.54298 15.6536 6.03028 13.9407 6.33041 13.5969C6.59055 13.2998 6.9092 14.6685 7.9548 14.6685C9.00041 14.6685 9.30727 13.3246 9.61455 13.5969Z" fill="#541300"/>
<defs>
<linearGradient id="paint0_linear_5001_32306" x1="6.43461" y1="6.48086" x2="20.3177" y2="22.3856" gradientUnits="userSpaceOnUse">
<stop offset="0.04" stop-color="#FFF466"/>
<stop offset="0.08" stop-color="#FFF466"/>
<stop offset="0.32" stop-color="#FFEB5F"/>
<stop offset="0.69" stop-color="#FFD54C"/>
<stop offset="0.86" stop-color="#FFC943"/>
</linearGradient>
</defs>
</svg>
