<svg width="24" height="24" viewBox="0 0 24 24" fill="none" xmlns="http://www.w3.org/2000/svg">
<path d="M12.0022 0C13.7886 0 16.251 6.56486 16.5238 6.74273C16.7966 6.92104 23.4102 7.75964 23.9587 9.10845C24.5071 10.4573 19.4185 15.3366 19.2922 15.6685C19.1664 16.0004 20.4376 22.9382 19.3916 23.8465C18.3456 24.7544 12.3667 21.2036 12.0022 21.2018C11.6377 21.1996 5.9004 24.7734 4.61278 23.8465C3.32516 22.9192 4.80514 16.0441 4.71212 15.6685C4.61909 15.2933 -0.535603 10.8942 0.0456993 9.10845C0.627002 7.32269 7.24316 6.92766 7.48056 6.74273C7.71797 6.5578 10.2158 0 12.0022 0Z" fill="#FFBD39"/>
<path d="M12.0056 0.816406C13.6704 0.816406 15.8538 7.16986 16.108 7.33625C16.3623 7.5022 22.6387 8.04905 23.1497 9.3065C23.6612 10.5635 18.8057 14.9944 18.6887 15.3038C18.5713 15.6132 19.8682 22.1975 18.8933 23.0435C17.9184 23.8901 12.3457 20.4633 12.0056 20.4611C11.6655 20.4589 6.31805 23.9077 5.11798 23.0435C3.91791 22.1798 5.52123 15.7712 5.43452 15.4212C5.34781 15.0716 0.319393 10.9713 0.861129 9.30694C1.40286 7.64212 7.79383 7.50926 8.01523 7.33669C8.23664 7.16412 10.3404 0.816848 12.0056 0.816848V0.816406Z" fill="url(#paint0_linear_5001_32166)"/>
<path d="M2.45906 9.72439C2.35803 8.53932 6.06978 7.89316 6.21627 9.28037C6.36233 10.6676 2.59712 11.3389 2.45906 9.72439Z" fill="white"/>
<path d="M7.16819 8.90337C7.15009 8.14158 8.25797 8.11068 8.30764 8.7361C8.36321 9.4361 7.18545 9.61618 7.16819 8.90337Z" fill="white"/>
<path d="M5.98954 11.0306C5.63553 10.7168 6.16212 9.32031 7.57054 9.32031C8.97897 9.32031 9.47861 10.6956 9.18607 11.0306C8.93309 11.3197 8.62244 10.1337 7.60506 10.1337C6.58767 10.1337 6.28882 11.2959 5.98954 11.0306Z" fill="#541300"/>
<path d="M14.6614 11.0306C14.3074 10.7168 14.834 9.32031 16.2424 9.32031C17.6508 9.32031 18.1505 10.6956 17.8579 11.0306C17.605 11.3197 17.2947 10.1337 16.2769 10.1337C15.2591 10.1337 14.9603 11.2959 14.6614 11.0306Z" fill="#541300"/>
<g opacity="0.6">
<g opacity="0.6">
<path d="M8.55662 13.4197C8.55662 14.1898 7.91175 14.8144 7.1162 14.8144C6.32064 14.8144 5.67578 14.1898 5.67578 13.4197C5.67578 12.6495 6.32064 12.0254 7.1162 12.0254C7.91175 12.0254 8.55662 12.6495 8.55662 13.4197Z" fill="#FF5F82"/>
</g>
<g opacity="0.6">
<path d="M18.1054 13.4197C18.1054 14.1898 17.4606 14.8144 16.665 14.8144C15.8695 14.8144 15.2246 14.1898 15.2246 13.4197C15.2246 12.6495 15.8695 12.0254 16.665 12.0254C17.4606 12.0254 18.1054 12.6495 18.1054 13.4197Z" fill="#FF5F82"/>
</g>
</g>
<path d="M10.4444 13.0495C10.6957 12.8377 13.4978 12.8377 13.752 13.0495C14.0063 13.2614 13.5769 15.8319 12.1365 15.8319C10.6961 15.8319 10.1935 13.2614 10.4448 13.0495H10.4444Z" fill="#872A2A"/>
<path d="M12.1456 14.5306C12.0223 14.5416 11.5071 14.0292 11.1741 14.2728C10.8412 14.516 11.4663 15.5832 12.1642 15.5638C12.8621 15.5448 13.3348 14.4948 13.0418 14.2728C12.7492 14.0504 12.3805 14.5094 12.1456 14.5306Z" fill="#F982B3"/>
<defs>
<linearGradient id="paint0_linear_5001_32166" x1="6.43759" y1="6.48044" x2="20.3208" y2="22.3854" gradientUnits="userSpaceOnUse">
<stop offset="0.05" stop-color="#FFF466"/>
<stop offset="0.28" stop-color="#FFED60"/>
<stop offset="0.62" stop-color="#FFDA51"/>
<stop offset="0.86" stop-color="#FFC943"/>
</linearGradient>
</defs>
</svg>
