<svg width="24" height="24" viewBox="0 0 24 24" fill="none" xmlns="http://www.w3.org/2000/svg">
<path d="M12.0022 0C13.7886 0 16.251 6.56486 16.5238 6.74273C16.7966 6.92104 23.4102 7.76008 23.9587 9.10845C24.5071 10.4573 19.4185 15.3365 19.2922 15.6685C19.1664 16.0004 20.4376 22.9382 19.3916 23.8465C18.3456 24.7544 12.3667 21.2036 12.0022 21.2018C11.6377 21.1996 5.9004 24.7734 4.61278 23.8465C3.32516 22.9192 4.80514 16.0441 4.71212 15.6685C4.61909 15.2933 -0.535603 10.8942 0.0456993 9.10845C0.627002 7.32269 7.24316 6.92767 7.48056 6.74273C7.71797 6.5578 10.2158 0 12.0022 0Z" fill="#FFBD39"/>
<path d="M12.0017 0.816406C13.6669 0.816406 15.8499 7.16986 16.1041 7.33625C16.3583 7.5022 22.6344 8.04905 23.1458 9.3065C23.6573 10.5635 18.8018 14.9944 18.6848 15.3038C18.5674 15.6132 19.8643 22.1975 18.8894 23.0435C17.9145 23.8901 12.3418 20.4633 12.0017 20.4611C11.6616 20.4589 6.31456 23.9077 5.11408 23.0435C3.91401 22.1798 5.51733 15.7712 5.43061 15.4212C5.3439 15.0716 0.315487 10.9713 0.857222 9.3065C1.39896 7.64167 7.78992 7.50882 8.01133 7.33625C8.23274 7.16368 10.337 0.816406 12.0017 0.816406Z" fill="url(#paint0_linear_5001_32257)"/>
<path d="M2.31906 9.61417C2.20331 8.43043 5.90664 7.73351 6.07038 9.11896C6.2337 10.504 2.47733 11.2269 2.31906 9.61417Z" fill="white"/>
<path d="M7.01223 8.72618C6.98445 7.96483 8.09149 7.91849 8.14916 8.54302C8.21356 9.24258 7.03791 9.43811 7.01223 8.72618Z" fill="white"/>
<g opacity="0.6">
<g opacity="0.6">
<path d="M8.51951 14.9353C8.51951 15.7055 7.87465 16.33 7.07909 16.33C6.28353 16.33 5.63867 15.7055 5.63867 14.9353C5.63867 14.1651 6.28396 13.541 7.07909 13.541C7.87422 13.541 8.51951 14.1651 8.51951 14.9353Z" fill="#FF5F82"/>
</g>
<g opacity="0.6">
<path d="M18.3535 14.9353C18.3535 15.7055 17.7086 16.33 16.9131 16.33C16.1175 16.33 15.4727 15.7055 15.4727 14.9353C15.4727 14.1651 16.1175 13.541 16.9131 13.541C17.7086 13.541 18.3535 14.1651 18.3535 14.9353Z" fill="#FF5F82"/>
</g>
</g>
<path d="M7.92795 10.2585C5.68103 10.4103 6.29054 13.8759 8.0959 13.8128C9.90169 13.7493 10.1749 10.1071 7.92795 10.2585Z" fill="#541300"/>
<path d="M8.71089 11.8882C8.23313 11.8437 8.08118 12.7908 8.62249 12.8787C9.16381 12.9665 9.38984 11.9509 8.71089 11.8882Z" fill="white"/>
<path d="M16.0708 10.2585C18.3177 10.4103 17.7082 13.8759 15.9028 13.8128C14.0971 13.7493 13.8239 10.1071 16.0708 10.2585Z" fill="#541300"/>
<path d="M15.2861 11.8882C15.7643 11.8437 15.9158 12.7908 15.3745 12.8787C14.8332 12.9665 14.6071 11.9509 15.2861 11.8882Z" fill="white"/>
<path d="M9.9542 15.9034C9.58715 16.4458 10.1175 16.8642 10.4661 16.3607C11.137 15.3914 12.9441 15.4726 13.6247 16.3607C13.9943 16.8426 14.4691 16.4763 14.137 15.9034C13.3553 14.5559 10.9741 14.3961 9.9542 15.9034Z" fill="#872A2A"/>
<defs>
<linearGradient id="paint0_linear_5001_32257" x1="6.43411" y1="6.48088" x2="20.3173" y2="22.3854" gradientUnits="userSpaceOnUse">
<stop offset="0.04" stop-color="#FFF466"/>
<stop offset="0.08" stop-color="#FFF466"/>
<stop offset="0.32" stop-color="#FFEB5F"/>
<stop offset="0.69" stop-color="#FFD54C"/>
<stop offset="0.86" stop-color="#FFC943"/>
</linearGradient>
</defs>
</svg>
