<svg width="24" height="24" viewBox="0 0 24 24" fill="none" xmlns="http://www.w3.org/2000/svg">
<path d="M12.002 0C13.7885 0 16.2509 6.56441 16.5237 6.74273C16.7965 6.92104 23.4102 7.75963 23.9587 9.10845C24.5071 10.4573 19.418 15.3366 19.2922 15.6685C19.1663 16.0004 20.4375 22.9382 19.3915 23.8465C18.3455 24.7544 12.3665 21.2041 12.002 21.2019C11.6375 21.1996 5.90013 24.7734 4.61249 23.8465C3.32485 22.9192 4.80485 16.0441 4.71182 15.6685C4.61922 15.2933 -0.535972 10.8942 0.0457605 9.10845C0.627072 7.32268 7.24291 6.92766 7.48074 6.74273C7.71814 6.55779 10.2164 0 12.0024 0H12.002Z" fill="#FF5027"/>
<path d="M12.002 0.816406C13.6668 0.816406 15.8502 7.1703 16.1044 7.33625C16.3586 7.5022 22.6352 8.04905 23.1462 9.3065C23.6577 10.5635 18.8026 14.9944 18.6847 15.3038C18.5673 15.6132 19.8642 22.197 18.8893 23.0435C17.9144 23.8901 12.3417 20.4633 12.0015 20.4611C11.6618 20.4589 6.31386 23.9077 5.1142 23.0435C3.91411 22.1798 5.51745 15.7712 5.43074 15.4212C5.34403 15.0712 0.315116 10.9713 0.857281 9.3065C1.39903 7.64167 7.79009 7.50882 8.0115 7.33625C8.23291 7.16368 10.3367 0.816406 12.002 0.816406Z" fill="url(#paint0_linear_5001_32359)"/>
<path d="M2.31906 9.61417C2.20331 8.43043 5.9067 7.73351 6.07002 9.11896C6.23335 10.504 2.47691 11.2269 2.31906 9.61417Z" fill="#FFC88D"/>
<path d="M7.01223 8.72814C6.98445 7.96678 8.09151 7.92044 8.14918 8.54497C8.21358 9.24454 7.03791 9.4405 7.01223 8.72814Z" fill="#FFC88D"/>
<g opacity="0.6">
<path d="M8.5098 12.9685C8.5098 13.7387 7.86491 14.3632 7.06935 14.3632C6.27378 14.3632 5.62891 13.7387 5.62891 12.9685C5.62891 12.1983 6.27378 11.5742 7.06935 11.5742C7.86491 11.5742 8.5098 12.1983 8.5098 12.9685Z" fill="#FF739E"/>
</g>
<g opacity="0.6">
<path d="M18.3433 12.9685C18.3433 13.7387 17.6985 14.3632 16.9029 14.3632C16.1073 14.3632 15.4629 13.7387 15.4629 12.9685C15.4629 12.1983 16.1078 11.5742 16.9029 11.5742C17.6981 11.5742 18.3433 12.1983 18.3433 12.9685Z" fill="#FF739E"/>
</g>
<path d="M8.19959 10.1599C6.10375 10.3285 6.67243 13.8775 8.35617 13.8069C10.0408 13.7358 10.2954 9.99081 8.19959 10.1599Z" fill="#541300"/>
<path d="M8.70504 12.1382C8.22727 12.0937 8.07531 13.0408 8.61664 13.1287C9.15796 13.2165 9.384 12.2009 8.70504 12.1382Z" fill="white"/>
<path d="M15.7933 10.1599C17.8887 10.3285 17.3204 13.8775 15.6363 13.8069C13.9521 13.7358 13.697 9.99081 15.7933 10.1599Z" fill="#541300"/>
<path d="M15.2878 12.1382C15.766 12.0937 15.918 13.0408 15.3767 13.1287C14.8349 13.2165 14.6093 12.2009 15.2878 12.1382Z" fill="white"/>
<path d="M7.20667 7.82498C7.8103 7.39641 9.82363 8.57574 9.94402 10.1986C9.91413 10.5098 9.36861 9.77538 8.62439 9.08817C8.00688 8.51837 7.04924 7.93753 7.20667 7.82498Z" fill="#541300"/>
<path d="M16.5967 7.82498C15.9931 7.39641 13.9798 8.57574 13.8594 10.1986C13.8888 10.5098 14.4344 9.77538 15.179 9.08817C15.7969 8.51837 16.7546 7.93753 16.5967 7.82498Z" fill="#541300"/>
<path d="M14.2132 16.869C14.1093 16.9745 13.1247 16.3685 12.0117 16.3689C10.8874 16.3698 9.88098 16.9758 9.77448 16.869C9.56233 16.6572 10.1761 14.2402 11.9928 14.2402C13.8096 14.2402 14.4224 16.6567 14.2132 16.869Z" fill="#872A2A"/>
<defs>
<linearGradient id="paint0_linear_5001_32359" x1="6.04531" y1="5.89255" x2="18.9711" y2="20.846" gradientUnits="userSpaceOnUse">
<stop offset="0.01" stop-color="#FF8732"/>
<stop offset="1" stop-color="#FF5027"/>
</linearGradient>
</defs>
</svg>
