<svg width="50" height="50" viewBox="0 0 50 50" fill="none" xmlns="http://www.w3.org/2000/svg">
<path d="M14.3825 6.81721C14.6063 6.79829 14.827 6.80745 15.0304 6.91199L15.0631 6.92939C15.2546 7.02983 15.4024 7.17079 15.5061 7.36099L15.5256 7.39747C15.6909 7.70297 15.6306 8.17469 15.631 8.52008L15.632 9.8404L32.4206 9.84719C32.4559 9.7175 32.4334 9.53274 32.4329 9.39524L32.4301 8.28657C32.4297 8.07954 32.4095 7.84914 32.447 7.64607C32.5993 6.81882 33.7191 6.54267 34.2916 7.10962C34.699 7.51302 34.637 8.06368 34.6374 8.59375L34.6356 9.85969L38.2418 9.84946C38.5261 9.85016 38.8667 9.82758 39.1394 9.90672C40.6172 10.3356 41.0429 11.2483 41.0444 12.6414L41.0454 31.7331C41.0462 31.8741 40.9963 31.953 41.1527 32.0047C42.8994 32.5818 44.2425 34.5937 43.8923 36.4403C43.3915 39.0806 40.8029 41.0709 38.7585 42.5645L37.3852 43.5006C36.8934 43.8249 36.9013 43.8252 36.4261 43.4816L33.9061 41.6052C33.0706 40.9514 31.2601 39.461 30.7991 38.4943L30.7713 38.4358C30.6733 38.2408 30.3619 38.3059 30.1727 38.3058L9.45845 38.3055C8.2222 38.3051 7.16164 37.2391 7.14062 36.0093L7.14114 12.7271C7.14202 12.137 7.15045 11.6065 7.46405 11.0817C7.78045 10.5523 8.39141 10.0387 9.00204 9.89133L9.0329 9.88407C9.24055 9.82938 9.44391 9.84383 9.65673 9.8461L13.4033 9.84352L13.4034 8.45071C13.4038 7.70311 13.4485 6.99977 14.3825 6.81721ZM14.8063 13.454L14.4185 13.3825C14.1151 13.3161 13.7766 13.112 13.6081 12.8519L13.5878 12.82C13.4374 12.5984 13.4776 12.1734 13.4761 11.9129L13.4307 10.8177C13.1924 10.8359 12.9595 10.8811 12.7206 10.8932L10.0913 10.9076C9.06509 10.9141 8.21876 11.2736 8.18587 12.4741L8.17227 16.7038L39.5238 16.7062C39.8139 16.7073 40.146 16.7413 40.432 16.7034L40.4366 12.4206C40.437 12.2009 40.4627 11.9434 40.3974 11.732L40.3851 11.6944C40.325 11.5021 40.2512 11.3659 40.133 11.2056C40.083 11.2059 39.5081 10.977 39.3434 10.9354C38.6199 10.8479 37.8576 10.901 37.1282 10.9034C36.4468 10.9055 35.7415 10.87 35.0629 10.919L35.0977 11.9295C35.112 12.4531 35.175 12.9375 34.7888 13.3652C34.2671 13.943 33.5174 13.952 33.0414 13.3269L33.0562 13.2957C32.9931 13.2401 32.8734 13.2452 32.7992 13.1783C32.3853 12.805 32.4358 12.235 32.4347 11.7326L32.424 10.8631L32.432 10.5204L15.6853 10.5043L15.7027 11.8793C15.7051 12.5442 15.7121 13.4616 14.8063 13.454ZM8.17618 16.7106L8.18587 12.4741C8.21876 11.2736 9.06509 10.9141 10.0913 10.9076L12.7206 10.8932C12.9595 10.8811 13.1924 10.8359 13.4307 10.8127L13.4475 10.4997L9.86555 10.517C8.91938 10.5233 8.37805 10.7782 7.91376 11.6766L7.89524 11.7103C7.67605 12.1835 7.78912 13.5424 7.78936 14.0837L7.79696 16.7234L8.17618 16.7106ZM33.0562 13.2957L33.0414 13.3269C33.5174 13.952 34.2671 13.943 34.7888 13.3652C35.175 12.9375 35.112 12.4531 35.0977 11.9295L35.0629 10.919C35.7415 10.87 36.4468 10.9055 37.1282 10.9034C37.8576 10.901 38.6199 10.8479 39.3434 10.9396C39.5081 10.977 40.083 11.2059 40.133 11.2056C40.0043 11.0476 39.8641 10.9387 39.6955 10.8279C39.025 10.3852 38.2059 10.5209 37.4402 10.5204L34.6466 10.52L34.6488 11.9141C34.6538 12.1598 34.7037 12.4427 34.6425 12.6825C34.4559 13.4134 33.6811 13.5381 33.0562 13.2957ZM37.0335 33.4455L36.9438 33.5626C37.1947 33.8905 37.6234 33.4707 37.8936 33.325C38.131 33.197 38.3841 33.0998 38.6345 33.0001C38.5816 33.0013 38.5156 32.9951 38.4691 33.0227L38.4274 33.02C38.5679 32.862 38.8809 32.8786 38.9402 32.727C38.9918 32.5949 39.2711 32.6858 39.3916 32.5821C39.4504 32.5314 39.5132 32.4992 39.5814 32.4616C38.6516 32.5187 37.7276 32.7886 37.0335 33.4455Z" fill="#3B3E57"/>
<path d="M39.5817 32.4615C40.2214 32.4631 40.9091 32.5473 41.4755 32.8674L41.4755 32.8694C41.7724 32.9984 42.0489 33.1916 42.278 33.4201C42.2088 33.5093 41.5988 33.1304 41.403 33.048L40.7671 32.893C40.0681 32.6573 39.3641 32.8618 38.6763 32.9924L38.6348 33.0001C38.582 33.0013 38.5159 32.9951 38.4695 33.0227L38.4277 33.02C38.5682 32.862 38.8812 32.8786 38.9405 32.727C38.9921 32.5949 39.2714 32.6858 39.3919 32.5821C39.4507 32.5314 39.5135 32.4992 39.5817 32.4615Z" fill="url(#paint0_linear_140_1296)"/>
<path d="M31.0464 37.6285C30.9135 37.3589 30.7704 37.0992 30.676 36.8121C30.219 35.4225 30.7089 33.9935 31.8927 33.1139C32.7235 32.4968 33.7812 32.3764 34.7818 32.534C35.2439 32.6019 35.6687 32.7671 36.0896 32.9614C36.3244 33.0743 36.7659 33.3786 36.9745 33.4308L37.0335 33.4456L36.9439 33.5626C36.7353 33.3847 36.2769 33.253 36.0194 33.1717L35.575 33.0253L35.0078 32.8964C32.6158 32.2251 30.2503 34.5902 30.9027 37.0807C30.9422 37.2317 31.0635 37.4799 31.0464 37.6285Z" fill="white"/>
<path d="M33.0568 13.2957C33.6817 13.5381 34.4565 13.4134 34.6431 12.6825C34.7043 12.4426 34.6543 12.1598 34.6493 11.9141L34.6471 10.52L37.4407 10.5204C38.2065 10.5209 39.0256 10.3852 39.6961 10.8279C39.8646 10.9387 40.0049 11.0476 40.1336 11.2056C40.0836 11.2059 39.5086 10.977 39.3439 10.9396C38.6204 10.8479 37.8582 10.901 37.1288 10.9034C36.4474 10.9055 35.7421 10.87 35.0635 10.919L35.0982 11.9294C35.1126 12.4531 35.1756 12.9375 34.7894 13.3652C34.2677 13.943 33.518 13.952 33.042 13.3269L33.0568 13.2957Z" fill="url(#paint1_linear_140_1296)"/>
<path d="M33.4209 7.44271C33.6064 7.38261 33.9407 7.55125 33.9801 7.74491C34.0053 7.86834 33.986 8.04295 33.986 8.17092L33.989 12.4633C33.9744 12.912 33.0322 12.9789 33.0267 12.3233L33.0275 11.2898L33.0247 8.95834C33.0243 8.56967 32.9875 8.1378 33.0449 7.75449C33.1129 7.60003 33.2557 7.47547 33.4209 7.44271Z" fill="url(#paint2_linear_140_1296)"/>
<path d="M33.0449 7.75453C33.1129 7.60007 33.2557 7.47551 33.4209 7.44275L33.5016 7.46611C33.5241 7.56188 33.4856 7.72191 33.454 7.81557C33.4093 8.21619 33.3753 8.53158 33.3741 8.94643L33.37 10.3785C33.3701 10.7308 33.388 11.0917 33.334 11.4406L33.3622 9.58252C33.1015 10.0796 33.2251 9.58635 33.0404 9.29479L33.0279 11.2899L33.0247 8.95838C33.0243 8.56971 32.9875 8.13783 33.0449 7.75453Z" fill="white"/>
<path d="M14.3997 7.42717C15.1352 7.37614 15.0251 7.94052 15.0264 8.44646L15.0306 11.6342C15.0308 12.0524 15.2037 12.7304 14.7122 12.7789C13.819 12.7191 14.0614 12.1577 14.0608 11.444L14.0591 8.15653C14.0591 7.7773 14.0223 7.61387 14.3997 7.42717Z" fill="white"/>
<path d="M8.33564 37.1854L8.30541 37.1558C7.80306 36.646 7.78609 36.168 7.78573 35.51L7.78516 17.3865L40.4078 17.3966L40.4032 17.7327C39.9959 17.7758 39.5753 17.7543 39.1653 17.7544L8.18509 17.7545L8.17744 35.3835C8.17752 35.8953 8.14056 36.4356 8.28939 36.9315C8.31369 37.0126 8.32962 37.1011 8.33564 37.1854Z" fill="white"/>
<path d="M31.0465 37.6285C31.0637 37.4799 30.9424 37.2317 30.9029 37.0807C30.2504 34.5902 32.616 32.2251 35.0079 32.8964L35.5752 33.0253L36.0196 33.1717C36.2771 33.253 36.7355 33.3847 36.944 33.5626C37.1949 33.8905 37.6236 33.4707 37.8938 33.325C38.1312 33.197 38.3844 33.0998 38.6347 33.0001L38.6762 32.9924C39.364 32.8618 40.068 32.6574 40.767 32.893L41.4029 33.048C41.5987 33.1304 42.2087 33.5093 42.2779 33.4201C42.8762 33.9702 43.2709 34.8684 43.3084 35.6753C43.4349 38.3931 39.2297 41.6319 36.9379 43.0341C35.6531 42.2531 31.4374 39.0538 31.0465 37.6285Z" fill="#FA6564"/>
<path d="M14.8068 13.454C15.7127 13.4615 15.7057 12.5442 15.7032 11.8793L15.6859 10.5043L32.4326 10.5204L32.4246 10.8631L32.4353 11.7326C32.4364 12.235 32.3859 12.805 32.7998 13.1783C32.874 13.2452 32.9936 13.2401 33.0568 13.2957L33.042 13.3269C33.518 13.952 34.2677 13.9429 34.7894 13.3652C35.1756 12.9375 35.1126 12.4531 35.0982 11.9294L35.0635 10.919C35.7421 10.87 36.4474 10.9054 37.1288 10.9033C37.8582 10.901 38.6204 10.8479 39.3439 10.9354C39.5086 10.977 40.0836 11.2058 40.1336 11.2056C40.2518 11.3659 40.3256 11.5021 40.3857 11.6944L40.398 11.732C40.4633 11.9434 40.4376 12.2008 40.4371 12.4206L40.4326 16.7034C40.1466 16.7413 39.8145 16.7072 39.5244 16.7061L8.17285 16.7038L8.18644 12.4741C8.21934 11.2736 9.06566 10.914 10.0919 10.9076L12.7212 10.8932C12.96 10.8811 13.193 10.8358 13.4313 10.8177L13.4767 11.9129C13.4782 12.1734 13.438 12.5984 13.5884 12.82L13.6087 12.8519C13.7772 13.112 14.1157 13.3161 14.4191 13.3825L14.8068 13.454ZM14.8068 13.454C14.5234 13.4858 14.2529 13.4307 13.9858 13.3444C14.6156 13.9698 15.8321 13.9978 16.0567 12.9608C16.1075 12.7258 16.0418 12.4069 16.035 12.163L16.0225 10.9257C16.1148 10.889 16.2311 10.9036 16.3303 10.9029L32.4246 10.8631L32.4326 10.5204L15.6859 10.5043L15.7032 11.8793C15.7057 12.5442 15.7127 13.4615 14.8068 13.454Z" fill="#FA6564"/>
<path d="M40.4082 17.4333C40.4405 17.5657 40.4285 17.7109 40.4291 17.8469L40.4259 31.81L40.3652 31.8096C38.9625 31.9167 38.8783 31.6032 37.4316 32.3179L37.026 32.5437C36.9352 32.597 36.9182 32.6367 36.8135 32.5938C35.8501 32.2213 35.5456 31.9755 34.4045 31.7984C33.9667 31.7802 33.5317 31.7682 33.0969 31.8384C31.1089 32.1591 29.6631 34.2666 29.9007 36.2305L30.0405 36.9064L30.3238 37.6822C30.3086 37.6923 30.2936 37.7026 30.2775 37.711L11.5255 37.6962C10.8939 37.6962 9.333 37.8426 8.79878 37.5455L8.7648 37.5262C8.59698 37.4322 8.45636 37.3395 8.33604 37.1855C8.33003 37.1011 8.31409 37.0126 8.28979 36.9315C8.14097 36.4356 8.17792 35.8953 8.17784 35.3835L8.1855 17.7545L39.1657 17.7545C39.5757 17.7544 39.9963 17.7758 40.4036 17.7327L40.4082 17.4333Z" fill="#5FCAF3"/>
<path d="M14.3225 32.8386C14.5242 32.7945 14.7421 32.8089 14.946 32.8083L16.0288 32.8061C16.0078 32.9598 15.958 33.0736 15.8845 33.2287C15.4119 33.318 14.883 33.2781 14.4021 33.2773C14.3264 33.1705 14.2769 33.0424 14.2839 32.9102L14.3225 32.8386Z" fill="white"/>
<path d="M16.0216 27.7203C16.1261 28.2774 15.6661 28.194 15.303 28.1902C14.9791 28.1868 14.5747 28.2368 14.2725 28.126C14.2961 28.034 14.3385 27.9235 14.3274 27.8288C14.3361 27.7889 14.3464 27.7692 14.3649 27.7371L16.0216 27.7203Z" fill="white"/>
<path d="M19.3614 27.6656L21.0816 27.6423C21.1954 28.4103 19.8786 28.1073 19.3377 28.0977C19.3351 27.9538 19.3234 27.8056 19.3614 27.6656Z" fill="white"/>
<path d="M31.0559 22.2592C31.06 22.3797 31.0682 22.5195 31.0519 22.6583C30.7362 22.7827 30.2353 22.7416 29.8968 22.7412C29.5268 22.7406 29.206 22.832 29.2871 22.3296L29.3506 22.2753L31.0559 22.2592Z" fill="white"/>
<path d="M29.4001 27.7075C29.5209 27.6371 29.6679 27.6506 29.7961 27.6503L30.5596 27.6436L30.6076 27.6706C30.9883 27.7382 31.2097 27.4974 30.9665 28.064L30.9356 28.1378C30.4346 28.2276 29.9164 28.1873 29.4095 28.1767C29.381 28.0325 29.3993 27.8553 29.4001 27.7075Z" fill="white"/>
<path d="M21.0392 32.748C21.0502 32.8993 21.0497 33.0564 21.0132 33.2186L19.4033 33.2879C19.3611 33.1334 19.3386 32.9883 19.3493 32.8271C19.8523 32.7372 20.4841 32.8188 21.0392 32.748Z" fill="white"/>
<path d="M26.0284 32.8063C26.221 33.3729 25.6073 33.2924 25.2795 33.2876L24.4298 33.2801C24.354 33.1664 24.3054 33.0076 24.3369 32.8704L24.3457 32.8365C24.5431 32.793 24.7574 32.8083 24.9572 32.8076L26.0284 32.8063Z" fill="white"/>
<path d="M24.3535 27.6669L25.8453 27.6405L26.0372 27.6379C26.0955 27.7909 25.9243 28.0064 25.839 28.1198C25.5581 28.2019 24.6574 28.2467 24.3553 28.1326C24.3441 27.9889 24.3056 27.8033 24.3535 27.6669Z" fill="white"/>
<path d="M25.8467 22.2597L26.025 22.2637C26.5614 23.0122 24.7581 22.7525 24.4503 22.7348L24.3285 22.719C24.3054 22.5898 24.2809 22.4218 24.3177 22.2929C24.4733 22.2451 24.6531 22.2622 24.8115 22.2617L25.8467 22.2597Z" fill="white"/>
<path d="M35.8891 22.2568C35.9293 22.2432 35.9803 22.2388 36.0057 22.2747C36.3051 22.6973 35.7556 22.7403 35.5125 22.7425C35.1068 22.7461 34.688 22.7594 34.2838 22.7276L34.2695 22.279C34.4699 22.2495 34.6773 22.2594 34.8797 22.2587L35.8891 22.2568Z" fill="white"/>
<path d="M21.0828 22.2466C21.099 22.3622 21.1489 22.6016 21.074 22.7042C20.7089 22.7971 19.7259 22.7721 19.3418 22.7259C19.2553 22.6274 19.2516 22.382 19.3336 22.2747L21.0828 22.2466Z" fill="white"/>
<path d="M14.3031 22.2689L16.0828 22.257C16.0989 22.4492 16.1866 22.7234 15.9057 22.74C15.7312 22.7503 14.4958 22.7755 14.392 22.7245C14.2689 22.6641 14.2535 22.3982 14.2923 22.2902L14.3031 22.2689Z" fill="white"/>
<path d="M36.8135 32.5938C36.8134 32.1636 38.1803 31.6354 38.4967 31.5217L38.5621 31.5009C38.9468 31.4028 40.0409 31.3813 40.3562 31.64L40.4069 31.81L40.3651 31.8096C38.9625 31.9167 38.8782 31.6032 37.4315 32.3179L37.0259 32.5437C36.9351 32.597 36.9181 32.6367 36.8135 32.5938Z" fill="white"/>
<path d="M19.3493 32.8246C18.915 32.8013 18.9431 32.2049 19.3185 32.1562C19.5048 32.132 20.895 32.112 20.9838 32.1808C21.0439 32.347 21.0322 32.5577 21.0391 32.7345C20.484 32.8188 19.8522 32.7372 19.3493 32.8246Z" fill="#3B3E57"/>
<path d="M24.3462 32.8235C23.8715 32.853 23.9676 32.1694 24.3766 32.1508L25.5154 32.149C25.9636 32.1508 26.1135 32.2246 26.0288 32.7859L24.9577 32.8076C24.7579 32.8083 24.5436 32.793 24.3462 32.8235Z" fill="#3B3E57"/>
<path d="M24.3539 27.6546L24.1577 27.6091C24.0943 27.5799 24.0351 27.527 24.012 27.4595C23.8512 26.9907 24.4866 26.9807 24.7707 26.9792L25.4361 26.9787C25.5783 26.9791 25.8475 26.9491 25.9664 27.0225C26.0006 27.1665 26.0896 27.4794 26.0254 27.6088L25.8457 27.6302L24.3539 27.6546Z" fill="#3B3E57"/>
<path d="M19.3616 27.6482C18.8275 27.6611 19.0892 27.0633 19.1859 27.0282C19.408 26.9475 20.7527 26.9359 20.9598 27.0259C21.0943 27.1974 21.0753 27.4313 21.0818 27.6377L19.3616 27.6482Z" fill="#3B3E57"/>
<path d="M14.3228 32.8219C13.8209 32.7605 13.6144 32.1476 14.7067 32.1479L15.7151 32.1515C16.0545 32.1533 16.0189 32.473 16.029 32.7876L14.9462 32.8083C14.7423 32.8089 14.5245 32.7944 14.3228 32.8219Z" fill="#3B3E57"/>
<path d="M29.3965 27.6587C29.0614 27.6856 28.8914 27.493 29.0863 27.1647L29.1053 27.1333C29.2025 26.9688 29.3457 26.9947 29.521 26.9909L30.4856 26.9908C31.0578 27.0044 31.1129 27.0997 31.0595 27.6637L30.56 27.6801L29.7965 27.6502C29.6684 27.6505 29.5214 27.6371 29.3965 27.6587Z" fill="#3B3E57"/>
<path d="M14.3268 27.8254C14.1004 27.5814 13.5085 27.536 14.1086 27.0799C14.4609 27.0401 14.8449 27.0685 15.2013 27.0692C15.9514 27.0706 15.9204 26.9362 16.021 27.712L14.3643 27.7371C14.3459 27.7692 14.3356 27.7889 14.3268 27.8254Z" fill="#3B3E57"/>
<path d="M34.2686 22.2736C33.9201 22.271 33.8004 21.9341 34.0372 21.6945L34.0752 21.6577C34.219 21.5224 35.4655 21.5613 35.7051 21.5723C36.0139 21.5865 35.9811 21.9822 35.9536 22.1904L35.8889 22.2359L34.8795 22.2588C34.6771 22.2594 34.4697 22.2495 34.2686 22.2736Z" fill="#3B3E57"/>
<path d="M14.303 22.2646C13.9248 22.1424 13.9011 21.8295 14.1927 21.6091C14.5042 21.5364 14.896 21.5825 15.2183 21.5841C15.9515 21.5877 16.1155 21.4224 16.0827 22.241L14.303 22.2646Z" fill="#3B3E57"/>
<path d="M29.3504 22.2632C28.8796 22.2568 28.8732 21.6488 29.2269 21.593C29.4356 21.5601 30.8938 21.544 31.018 21.634C31.0938 21.8032 31.0592 22.0565 31.0555 22.2404L29.3504 22.2632Z" fill="#3B3E57"/>
<path d="M19.3339 22.2626C18.9448 22.2437 18.8854 21.6494 19.2877 21.5904C19.5711 21.5489 19.898 21.5794 20.1854 21.5806C21.034 21.5845 21.1356 21.397 21.0838 22.2416L19.3339 22.2626Z" fill="#3B3E57"/>
<path d="M24.318 22.2733C24.1299 22.2719 24.0189 22.0968 24.0166 21.9177C24.011 21.4709 24.5032 21.5769 24.803 21.5788L25.7429 21.5838C26.1584 21.5891 26.1621 22.005 26.0231 22.2345L25.847 22.2591L24.8118 22.2617C24.6534 22.2622 24.4736 22.2451 24.318 22.2733Z" fill="#3B3E57"/>
<path d="M29.8517 37.0041L29.8395 36.9672C29.1373 34.7794 29.9541 32.6147 32.1853 31.7173C32.5317 31.5781 34.4897 31.1264 34.4729 31.7843L34.4048 31.7984C33.967 31.7802 33.532 31.7682 33.0972 31.8384C31.1092 32.1591 29.6634 34.2666 29.901 36.2305L30.0408 36.9064L29.9603 37.0526C29.9777 37.1963 29.8814 37.0363 29.8517 37.0041Z" fill="white"/>
<defs>
<linearGradient id="paint0_linear_140_1296" x1="40.631" y1="34.0287" x2="40.0043" y2="32.2984" gradientUnits="userSpaceOnUse">
<stop stop-color="#FFB1B2"/>
<stop offset="1" stop-color="white"/>
</linearGradient>
<linearGradient id="paint1_linear_140_1296" x1="34.5578" y1="10.6542" x2="38.1839" y2="13.5588" gradientUnits="userSpaceOnUse">
<stop stop-color="white" stop-opacity="0"/>
<stop offset="1" stop-color="#FFFEFE" stop-opacity="0.109804"/>
</linearGradient>
<linearGradient id="paint2_linear_140_1296" x1="33.9353" y1="10.0952" x2="33.0562" y2="10.0952" gradientUnits="userSpaceOnUse">
<stop stop-color="#E8DCA7"/>
<stop offset="1" stop-color="#FCF7EA"/>
</linearGradient>
</defs>
</svg>
