<svg width="50" height="50" viewBox="0 0 50 50" fill="none" xmlns="http://www.w3.org/2000/svg">
<path d="M42.2978 15.4625C42.1319 15.057 41.7277 14.65 41.2951 14.5575L41.2574 14.5499C40.9412 14.4828 40.6335 14.4938 40.3126 14.4937L29.5849 14.4958C29.2182 14.4959 28.8564 14.4587 28.5028 14.571C28.4141 14.4779 28.3221 14.393 28.2928 14.2632L28.257 14.0925C28.3765 13.8927 28.6285 13.907 28.8385 13.8998L39.7945 13.8941C40.8492 13.8961 41.9121 13.7807 42.5814 14.7979L42.6973 14.9823C43.0221 15.5775 42.9195 16.1216 42.9179 16.7771L42.9186 39.105C42.9184 39.321 42.9272 39.5316 42.8657 39.7412L42.852 39.7871C42.4557 41.1502 41.322 41.2979 40.1525 41.2808L10.2394 41.2885C9.92494 41.29 9.53794 41.3341 9.23125 41.2684C8.46337 41.1039 7.80617 40.4115 7.63589 39.6523C7.58725 39.4355 7.61799 39.157 7.61786 38.9338L7.62051 10.7704C7.63436 10.48 7.77838 10.1505 7.93927 9.9106L7.96322 9.87545C8.07879 9.70355 8.23433 9.54287 8.40503 9.42487L8.44232 9.39953C9.0498 8.97068 9.65854 8.98928 10.362 8.98842L19.9388 8.98473C20.1159 8.98473 20.3224 8.93334 20.4417 9.09551C20.6718 9.40824 21.0361 9.68221 21.3187 9.95602L23.1427 11.747C23.2911 11.8933 24.0504 12.697 24.1341 12.6517L24.284 12.5692C25.0088 12.1724 25.6233 12.6483 25.9746 13.2867C26.1633 13.143 26.4608 13.0774 26.6829 12.9916L35.5773 9.38125C35.8188 9.26576 36.0591 9.13497 36.3155 9.05534L36.341 9.04773C36.5197 8.21679 36.9473 7.6039 37.7639 7.24795C39.7332 6.38965 41.6386 8.73531 40.4427 10.5303L40.4212 10.5619C39.8779 11.3936 38.6317 11.727 37.7314 11.3546C36.9879 11.047 36.6314 10.4222 36.3422 9.71438L29.3214 12.5663C28.2536 12.9987 27.2052 13.4301 26.0547 13.5876C26.073 13.738 26.0524 13.8761 26.0599 14.026C26.0912 14.6538 25.2156 15.3533 24.5311 15.2294C24.0688 15.1457 23.7891 14.7985 23.5279 14.4384C23.2782 13.9562 23.396 13.5886 23.6354 13.1152C23.4621 13.1058 23.3039 12.9229 23.1755 12.8134L22.1682 11.8949C21.6815 11.4432 21.1209 10.9538 20.735 10.4136C20.4744 10.1428 20.2334 9.99957 19.848 9.99235L10.8203 9.99714C9.33105 9.99447 8.47993 9.79393 8.47499 11.7312L8.47687 16.7121C8.47781 18.0929 8.48009 39.713 8.47609 39.7186L8.31521 39.8294C8.40055 39.9885 8.48873 40.1436 8.6127 40.2765C8.8985 40.5968 9.27899 40.7284 9.70604 40.7383L39.8682 40.7389C41.7837 40.738 42.4124 40.4799 42.4148 38.3928L42.4108 15.8813C42.4061 15.727 42.3625 15.6007 42.2978 15.4625ZM8.31521 39.8294L8.47609 39.7186C8.48009 39.713 8.47781 18.0929 8.47687 16.7121L8.47499 11.7312C8.47993 9.79393 9.33105 9.99447 10.8203 9.99714L19.848 9.99235C20.2334 9.99957 20.4744 10.1428 20.735 10.4136C20.7817 10.3275 20.748 10.2657 20.7273 10.1738L20.1112 9.62431C20.0479 9.57912 19.9197 9.5974 19.8451 9.59771L10.3061 9.60462C9.40627 9.60493 8.57423 9.63145 8.24878 10.66L8.23559 10.6994C8.15519 10.9575 8.19374 11.3092 8.19358 11.5794L8.19374 39.3109C8.1983 39.4904 8.24258 39.6651 8.31521 39.8294ZM37.3125 10.3385C37.2855 9.7653 37.204 9.19036 37.5645 8.6931C38.1962 7.82156 38.6824 8.08765 39.3983 7.95321L39.4383 7.93214C38.9268 7.70388 38.4933 7.63443 37.9618 7.84333L37.7372 7.94552C36.912 8.36586 36.7264 9.30052 37.1494 10.0836L37.3125 10.3385Z" fill="#3B3E57"/>
<path d="M20.6523 9.78262L23.0669 12.0633C23.1694 12.1675 23.4612 12.3538 23.3413 12.5C23.1811 12.4913 23.0347 12.3223 22.916 12.2212L21.9847 11.3726C21.5346 10.9553 21.0163 10.5032 20.6595 10.0041C20.7027 9.92461 20.6715 9.8675 20.6523 9.78262Z" fill="#BBF2FC"/>
<path d="M24.7172 12.5007C25.844 12.4624 25.7854 13.9125 24.7424 14.1266C23.7588 14.2111 23.5302 12.8633 24.7172 12.5007Z" fill="#FA6564"/>
<path d="M38.9478 7.6087C40.5843 8.41842 39.192 11.1009 37.3521 10.109C37.2069 10.0307 37.0691 9.93448 36.9812 9.79279C36.9563 9.2697 36.8809 8.74504 37.2143 8.29126C37.7987 7.49592 38.2485 7.73875 38.9108 7.61606L38.9478 7.6087Z" fill="#73D566"/>
<path d="M8.34856 39.2075C8.31527 39.202 8.31302 17.8027 8.31209 16.436L8.31023 11.506C8.31512 9.58849 9.15615 9.78697 10.6277 9.78961L19.5485 9.78488C19.9294 9.79202 20.1675 9.93374 20.4251 10.2018C20.8064 10.7365 21.3603 11.2209 21.8413 11.6679L22.8366 12.5771C22.9635 12.6855 23.1199 12.8666 23.2911 12.8759C23.0545 13.3444 22.9381 13.7083 23.1848 14.1855L23.0581 14.2679C22.8872 14.9218 24.7394 15.9159 25.7109 14.7475C25.8396 14.5927 25.9453 14.2991 26.1449 14.2319C26.664 14.0571 27.4606 14.2748 27.9633 14.4774L27.9903 14.4579C28.0285 14.4334 28.0465 14.4327 28.0902 14.4324L28.114 14.4513C28.3188 14.5781 28.792 14.5755 29.0232 14.5862L39.7827 14.5831C40.4564 14.573 41.0531 14.4646 41.538 15.0349C41.5878 15.0934 41.6434 15.1845 41.7137 15.2134L41.7324 15.1992C41.7964 15.3359 41.8395 15.461 41.8441 15.6137L41.848 37.8953C41.8457 39.9611 41.2244 40.2166 39.3316 40.2174L9.5267 40.2169C9.10471 40.207 8.72873 40.0768 8.44632 39.7597C8.32381 39.6282 8.23668 39.4746 8.15234 39.3172L8.34856 39.2075ZM12.4377 34.2076L21.1887 34.206C22.3319 34.2076 23.14 34.264 24.0234 35.1477L24.2996 35.4562L24.4748 35.6795C24.6562 35.9415 24.8317 36.2209 25.0549 36.4496C25.0977 36.3624 25.1617 36.2849 25.2109 36.2007C26.1543 34.5843 27.109 34.2067 28.827 34.2053L36.6895 34.2059C37.0229 34.2055 37.6832 34.3442 37.7188 33.8648C37.757 33.3509 37.7276 32.8157 37.728 32.2986L37.7264 19.4979C37.723 19.0299 37.7227 18.5758 37.6639 18.1106L28.931 18.1074C28.6228 18.1078 28.2716 18.0762 27.9689 18.1293C26.3014 18.4217 25.6372 19.1836 24.8888 20.5518C24.3805 19.1722 23.042 18.2389 21.5793 18.1176C21.1537 18.0822 20.7083 18.1075 20.2798 18.1076L13.1903 18.1087C12.0758 18.1096 12.132 18.0272 12.159 19.1509L12.1634 33.7788C12.1716 34.0391 12.2189 34.1221 12.4377 34.2076Z" fill="#5FCAF3"/>
<path d="M8.51508 39.1304C8.5901 39.2943 8.69724 39.5062 8.69581 39.6739C8.46933 39.5445 8.30825 39.3933 8.15234 39.2384L8.51508 39.1304Z" fill="white"/>
<path d="M12.5 34.258L21.1924 34.2391C22.328 34.2408 23.1307 34.2978 24.0082 35.192L24.2826 35.5042L24.4565 35.7302L24.3923 35.8696C24.3198 35.8348 24.2647 35.7521 24.2129 35.6902C22.8055 34.2183 21.5583 34.4834 19.7069 34.4793L13.0682 34.4819C12.8216 34.4802 12.5961 34.5421 12.5 34.258Z" fill="url(#paint0_linear_57_2070)"/>
<path d="M37.7577 19.3493L37.7526 18.8064C37.7518 18.6483 37.7422 18.3635 38.009 18.5276C38.0709 19.3696 38.0305 20.237 38.031 21.0824L38.0261 33.936C38.0055 34.3162 37.6638 34.4396 37.325 34.4472L29.0731 34.4499C28.6095 34.4509 28.151 34.4287 27.6963 34.5358C26.5359 34.8093 25.6453 35.8924 25.2001 36.9565C25.1244 36.8706 24.9887 36.7323 25.0007 36.6071L25.0334 36.4736C25.0764 36.3855 25.1407 36.3072 25.19 36.2221C26.1372 34.5893 27.0958 34.2079 28.8208 34.2064L36.7151 34.2071C37.0499 34.2067 37.7128 34.3467 37.7486 33.8625C37.787 33.3433 37.7574 32.8026 37.7578 32.2803L37.7577 19.3493Z" fill="white"/>
<path d="M12.7887 34.1555C12.5703 34.0694 12.523 33.9858 12.5148 33.7237L12.5104 18.9946C12.4835 17.8631 12.4274 17.9461 13.5399 17.9452L20.6165 17.9441C21.0442 17.9439 21.4888 17.9185 21.9137 17.9541C23.3737 18.0762 24.7098 19.016 25.2172 20.4052C25.9641 19.0275 26.6272 18.2603 28.2917 17.9659C28.5938 17.9124 28.9444 17.9442 29.252 17.9438L37.969 17.947C38.0278 18.4155 38.0281 18.8727 38.0315 19.344L38.0331 32.2333C38.0326 32.7539 38.0621 33.2928 38.0239 33.8103C37.9883 34.293 37.3293 34.1534 36.9964 34.1538L29.1482 34.1532C27.4333 34.1546 26.4803 34.5348 25.5387 36.1624C25.4896 36.2472 25.4257 36.3252 25.3829 36.413C25.1601 36.1827 24.985 35.9014 24.8039 35.6376L24.6291 35.4127L24.3534 35.1021C23.4715 34.2123 22.6649 34.1555 21.5237 34.1539L12.7887 34.1555ZM13.3083 33.5402L20.6637 33.537C21.9621 33.536 23.4342 33.4426 24.479 34.3655C24.618 34.4882 24.92 34.6953 24.9893 34.867L24.993 23.8126C24.9919 22.6786 25.0852 20.6545 24.2296 19.7781C23.9887 19.3739 23.4228 19.0381 22.9995 18.8591C22.9039 18.8785 22.8164 18.8591 22.7257 18.8916L22.5459 18.9379C21.935 18.8461 21.3633 18.8294 20.7435 18.83L13.321 18.8313L13.3083 33.5402ZM37.4571 18.8358L37.3882 18.859C37.0679 18.7993 36.7001 18.8292 36.3734 18.8291L31.0392 18.831C29.7776 18.8334 28.2403 18.6896 27.1513 19.4708C25.7509 20.4753 25.8102 21.8532 25.8085 23.3962L25.8569 34.6485C26.9579 33.5713 27.8512 33.5401 29.2551 33.5401L37.5024 33.5399L37.5011 20.3036C37.5007 19.8339 37.5547 19.2929 37.4571 18.8358ZM25.8256 34.6485L25.8085 23.3962C25.8102 21.8532 25.7509 20.4753 27.1513 19.4708C28.2403 18.6896 29.7776 18.8334 31.0392 18.831L36.3734 18.8291C36.7001 18.8292 37.0679 18.7993 37.3882 18.859L37.4571 18.8358L37.4455 18.5989C37.3042 18.534 35.3788 18.5763 35.0153 18.576L30.7989 18.5735C28.7798 18.5725 26.8263 18.2767 25.7998 20.584L25.5607 21.258C25.5133 21.3892 25.5154 21.556 25.5129 21.6943L25.5161 33.348C25.5161 33.9086 25.4795 34.5 25.5437 35.0568L25.8256 34.6485ZM13.3144 33.5399L13.321 18.8313L20.7435 18.83C21.3633 18.8294 21.935 18.8461 22.5459 18.9379L22.7257 18.8916C22.8164 18.8591 22.9039 18.8785 22.9995 18.8591C22.0024 18.4759 20.9177 18.5802 19.8728 18.5797L13.2568 18.577C13.1798 18.577 13.0651 18.5626 12.9948 18.5904L13.013 33.2264C13.0164 33.3214 13.0064 33.4458 13.0578 33.5249L13.3144 33.5399Z" fill="#3B3E57"/>
<path d="M37.4407 19.0358C37.5403 19.491 37.4852 20.0297 37.4856 20.4975L37.487 33.6787L29.064 33.6788C27.6302 33.6789 26.7178 33.7099 25.5934 34.7826L25.544 23.5772C25.5457 22.0407 25.4852 20.6684 26.9154 19.6681C28.0275 18.8902 29.5976 19.0333 30.8861 19.031L36.3339 19.0291C36.6675 19.0292 37.0432 18.9994 37.3703 19.0589L37.4407 19.0358ZM34.5676 28.6817C34.5635 29.1519 34.5283 29.2063 34.0781 29.2053L28.8195 29.14L28.8899 29.541C29.2563 29.5272 29.6253 29.5522 29.9921 29.5543L33.8995 29.5944C34.0672 29.5941 34.3628 29.6284 34.5159 29.5622C34.7448 29.4633 34.896 29.0975 34.7747 28.8742L34.7599 28.849C34.7423 28.8173 34.7277 28.7867 34.6985 28.763L34.5676 28.6817Z" fill="#FA6564"/>
<path d="M28.945 24.4565C28.88 24.4153 28.8039 24.3956 28.7723 24.312L28.8472 24.1529C28.648 24.1098 28.4646 24.0567 28.2744 23.9767C28.2871 23.7088 28.1874 23.0761 28.389 22.9545C28.5929 22.8316 29.2138 22.7142 29.3477 23.021C29.2327 23.0753 28.9737 23.1657 28.9053 23.2778C28.9045 23.6635 28.8979 24.0746 28.945 24.4565Z" fill="#3B3E57"/>
<path d="M34.1048 26.0869L34.1711 26.1129C34.4869 26.7477 33.632 26.6198 33.0269 26.62L29.8089 26.6158C29.292 26.6146 28.7049 26.6829 28.2607 26.449L28.3845 26.3865L33.7979 26.3915C34.1113 26.3845 34.1117 26.2855 34.1048 26.0869Z" fill="white"/>
<path d="M29.216 23.3696C29.3145 23.4443 29.3125 23.5373 29.2643 23.6461C29.1786 23.7933 29.2042 24.0605 29.2065 24.2317L33.759 24.2343C34.0137 24.2345 34.4299 24.3352 34.5527 24.0417L34.5751 23.8821C34.6621 23.9439 34.7487 24.0528 34.7829 24.1558C34.5996 24.6204 34.3295 24.5291 33.8968 24.5378L30.6843 24.55C30.185 24.5518 29.6795 24.5371 29.1812 24.5689C29.0446 25.0156 28.8818 25.2571 28.8469 24.5736C28.7985 24.2532 28.8046 23.9085 28.8053 23.5849C28.8688 23.4909 29.1092 23.415 29.216 23.3696Z" fill="white"/>
<path d="M28.8688 23.3777C29.3276 23.4087 29.7982 23.3863 30.2586 23.3855L32.7794 23.383C33.1915 23.3829 33.6542 23.347 34.0606 23.3931C34.2385 23.4132 34.2376 23.5715 34.239 23.7057L34.2395 23.7278C34.1147 23.9874 33.6921 23.8983 33.4334 23.8982L28.8101 23.8958C28.8077 23.7444 28.7818 23.5079 28.8688 23.3777Z" fill="#3B3E57"/>
<path d="M28.8267 26.6269C28.7708 26.4597 28.835 26.2533 28.8688 26.0869L34.3001 26.1098C34.4488 26.1134 34.675 26.099 34.7813 26.2024C34.7884 26.4913 34.788 26.6213 34.4618 26.6304L28.8267 26.6269Z" fill="#3B3E57"/>
<path d="M28.7453 28.7659C27.9776 28.6993 28.2221 28.2817 28.7868 28.2618C28.9373 28.2564 29.0978 28.2766 29.2497 28.2798L30.4153 28.2902C30.618 28.2959 30.8192 28.3239 31.0214 28.3265L33.1625 28.3295C33.5549 28.3298 33.935 28.2402 34.239 28.4413C34.2351 28.7674 34.2014 28.8051 33.7711 28.8043L28.7453 28.7659Z" fill="#3B3E57"/>
<path d="M13.0439 33.4787L13.0569 19.023L20.6505 19.0217C21.2845 19.0212 21.8695 19.0376 22.4945 19.1278L22.6784 19.0823C22.7711 19.0503 22.8607 19.0694 22.9584 19.0503C23.3915 19.2263 23.9704 19.5563 24.2169 19.9535C25.0923 20.8148 24.9968 22.8041 24.9979 23.9186L24.9942 34.7826C24.9232 34.6138 24.6143 34.4104 24.472 34.2897C23.4032 33.3827 21.8971 33.4745 20.5688 33.4755L13.0439 33.4787ZM21.9728 28.545C21.963 28.7198 21.9809 29.0571 21.7342 29.0691C21.1704 29.0964 20.5879 29.0637 20.0217 29.0631L16.2911 29.0515C16.3333 29.1405 16.3398 29.3171 16.3558 29.4179L21.4802 29.4602C21.7786 29.4675 21.961 29.4921 22.1099 29.1948L22.1245 29.1643C22.1986 29.0127 22.2065 28.7322 22.063 28.6144L21.9728 28.545ZM22.0942 25.9836C22.0606 26.2286 22.0857 26.3986 21.7909 26.4257C21.268 26.4737 20.7168 26.4414 20.19 26.4424L16.5547 26.4355C16.4035 26.4321 16.2435 26.4141 16.0957 26.4475L16.0365 26.5025C16.0611 26.5894 16.2269 26.793 16.3045 26.8459C16.6599 26.6503 17.0497 26.7531 17.4403 26.755L20.2762 26.7545C20.7863 26.7537 21.3211 26.7826 21.8288 26.7381C22.4167 26.6867 22.391 26.2337 22.0942 25.9836Z" fill="#FA6564"/>
<path d="M22.7214 19.0217C23.1313 19.2335 23.6793 19.6306 23.9127 20.1087C23.2759 19.7321 23.191 19.3816 22.2822 19.115L22.4563 19.0602C22.5441 19.0217 22.6289 19.0447 22.7214 19.0217Z" fill="white"/>
<path d="M21.5745 23.9131C21.8609 24.0913 21.7625 24.4067 21.3639 24.4348C21.1157 24.4523 20.8504 24.439 20.5999 24.4392L17.2525 24.4391C17.0652 24.4391 15.5338 24.5459 15.7894 24.2305C15.9542 24.1962 16.1171 24.2046 16.2857 24.206L19.8244 24.2119C20.2783 24.2116 20.7565 24.2339 21.2067 24.2058C21.4943 24.1879 21.5252 24.1102 21.5745 23.9131Z" fill="white"/>
<path d="M15.7654 23.913C15.7733 23.8807 15.773 23.8956 15.7693 23.8602L15.7607 23.5126C15.7698 23.4495 15.7843 23.4312 15.8421 23.3925L19.672 23.3984C20.128 23.3987 21.3952 23.2795 21.7138 23.5236L21.739 23.5425C21.6881 23.7749 21.6562 23.8663 21.3592 23.8874C20.8944 23.9206 20.4006 23.8943 19.9319 23.8946L16.2778 23.8876C16.1038 23.8861 15.9355 23.8762 15.7654 23.913Z" fill="#3B3E57"/>
<path d="M15.9748 26.6266C15.603 26.5648 15.7996 26.3437 15.9394 26.0869C16.3856 26.1186 16.8307 26.1116 17.2781 26.1124L20.3316 26.1646C20.7861 26.1788 21.2605 26.1333 21.711 26.1792L21.739 26.2195C21.7067 26.4458 21.7309 26.5862 21.4476 26.6086C20.9451 26.6483 20.4155 26.6216 19.9092 26.6224L16.416 26.6167C16.2706 26.6139 16.1169 26.599 15.9748 26.6266Z" fill="#3B3E57"/>
<path d="M16.16 28.7893C15.9907 28.6809 15.7844 28.7854 15.7623 28.5482C15.726 28.1584 16.3383 28.2744 16.6579 28.2854L20.9679 28.2899C21.2767 28.2906 21.5089 28.2352 21.739 28.4058C21.7294 28.536 21.7469 28.7873 21.5048 28.7962C20.9511 28.8166 20.3791 28.7922 19.8231 28.7918L16.16 28.7893Z" fill="#3B3E57"/>
<defs>
<linearGradient id="paint0_linear_57_2070" x1="18.4622" y1="35.8931" x2="18.452" y2="34.2146" gradientUnits="userSpaceOnUse">
<stop stop-color="#71D7F9"/>
<stop offset="1" stop-color="#DEFDFF"/>
</linearGradient>
</defs>
</svg>
