<svg width="1564" height="1452" viewBox="0 0 1564 1452" fill="none" xmlns="http://www.w3.org/2000/svg">
<g opacity="0.7" clip-path="url(#clip0_654_2382)">
<path fill-rule="evenodd" clip-rule="evenodd" d="M881.665 1210.03C1199.31 1156.9 1407.08 859.866 1346.5 545.535C1285.89 231.241 979.721 17.9452 661.58 68.3884C547.861 86.4874 442.969 137.351 359.999 214.613C436.508 156.732 527.359 118.308 624.128 102.863C942.381 52.4425 1247.06 257.264 1305.7 561.025C1364.38 864.789 1154.95 1153.23 837.178 1206.22C796.95 1212.85 756.054 1215.45 715.213 1213.95C770.59 1220.45 826.726 1219.12 881.665 1210.03Z" fill="url(#paint0_linear_654_2382)" fill-opacity="0.65"/>
<path fill-rule="evenodd" clip-rule="evenodd" d="M992.826 1210.34C1353.68 1150.32 1593.65 834.427 1529.67 503.682C1465.67 172.933 1121.78 -48.18 760.402 9.00863C631.253 29.5193 511.213 86.6067 415.999 169.136C503.624 107.129 607.526 63.3526 717.466 45.8377C1078.93 -11.3226 1421.25 200.863 1483.21 520.519C1545.15 840.169 1303.44 1147 942.462 1206.89C896.816 1214.37 850.463 1217.61 804.108 1216.57C867.017 1222.71 930.561 1220.61 992.826 1210.34Z" fill="url(#paint1_linear_654_2382)" fill-opacity="0.65"/>
<path fill-rule="evenodd" clip-rule="evenodd" d="M943.231 1209.37C1278.79 1153.37 1499.75 847.375 1437.5 524.882C1375.21 202.397 1053.21 -15.236 717.12 38.0219C597.007 57.1246 486.011 108.211 397.999 187.936C479.098 128.159 575.18 89.9048 677.431 73.6044C1013.6 20.3777 1334.1 229.294 1394.37 540.961C1454.64 852.645 1231.98 1149.78 896.308 1205.66C853.816 1212.64 810.64 1215.49 767.496 1214.16C826.009 1220.57 885.238 1218.95 943.231 1209.37Z" fill="url(#paint2_linear_654_2382)" fill-opacity="0.65"/>
<path fill-rule="evenodd" clip-rule="evenodd" d="M1227.89 447.088C1016.77 223.332 631.582 209.811 366.206 416.845C100.866 623.891 55.1831 973.57 264.049 1199.08C338.753 1279.63 439.866 1336.67 554.708 1363C461.401 1331.92 379.148 1279.71 315.496 1211.16C106.652 985.545 145.077 641.366 401.458 441.189C657.903 241.026 1035.81 260.211 1246.85 484.115C1273.49 512.508 1296.67 543.468 1316 576.448C1293.91 529.295 1264.26 485.737 1227.89 447.088Z" fill="url(#paint3_linear_654_2382)" fill-opacity="0.65"/>
<path fill-rule="evenodd" clip-rule="evenodd" d="M1171.45 358.826C931.963 104.444 512.74 75.0462 233.67 293.073C-45.3876 511.101 -79.2898 894.506 157.816 1150.73C242.623 1242.28 357.099 1306.67 483.104 1340C380.283 1302.26 286.507 1243.87 214.269 1165.97C-22.8526 909.64 3.44032 532.013 273.082 321.214C542.721 110.415 954.292 145.782 1193.73 400.313C1223.93 432.546 1250.49 467.491 1273 504.615C1246.88 451.855 1212.69 402.766 1171.45 358.826Z" fill="url(#paint4_linear_654_2382)" fill-opacity="0.65"/>
<path fill-rule="evenodd" clip-rule="evenodd" d="M1195.4 398.873C972.421 162.413 572.113 143.009 299.914 355.474C27.6992 567.937 -14.0034 932.312 206.628 1170.58C285.538 1255.71 384.71 1314.93 504.439 1344C406.97 1310.28 327.466 1256.32 260.273 1183.9C39.6164 945.538 73.9083 586.781 336.915 381.366C599.972 175.948 992.819 201.167 1215.7 437.788C1243.82 467.777 1268.39 500.403 1289 535.122C1265.38 485.701 1233.83 439.779 1195.41 398.873L1195.4 398.873Z" fill="url(#paint5_linear_654_2382)" fill-opacity="0.65"/>
<path fill-rule="evenodd" clip-rule="evenodd" d="M336.803 531.781C218.994 807.264 385.675 1125.51 709.694 1243.69C1033.68 1361.88 1393.09 1235.53 1513.66 961.068C1556.66 862.941 1564.61 754.42 1536.5 649.117C1549.98 739.205 1537.91 830.207 1501.3 913.755C1380.65 1188.28 1029.95 1317.92 716.766 1203.79C403.583 1089.63 245.768 774.621 363.757 499.121C378.765 464.282 397.876 431.045 420.751 400.001C385.578 439.739 357.266 484.182 336.803 531.781Z" fill="url(#paint6_linear_654_2382)" fill-opacity="0.65"/>
<path fill-rule="evenodd" clip-rule="evenodd" d="M278.267 619.212C144.208 931.697 311.322 1284.63 652.07 1408.69C992.822 1532.75 1378.96 1381.27 1515.92 1069.82C1564.81 958.487 1575.35 833.272 1548.8 715.772C1560.25 816.576 1545.89 922.223 1504.32 1017.02C1367.28 1328.53 990.243 1483.47 660.866 1363.67C331.492 1243.85 173.74 894.342 307.969 581.822C325.018 542.343 346.381 504.544 371.732 469.002C332.948 514.753 301.477 565.331 278.267 619.212Z" fill="url(#paint7_linear_654_2382)" fill-opacity="0.65"/>
<path fill-rule="evenodd" clip-rule="evenodd" d="M305.109 580.292C180.542 870.957 348.531 1203.79 680.865 1324.84C1013.21 1445.88 1384.83 1309.6 1512.22 1019.98C1557.66 916.444 1568.63 802.91 1540.88 692.516C1553.71 787.062 1538.69 882.226 1500.05 970.386C1372.57 1260.05 1009.86 1399.72 688.613 1282.83C367.366 1165.9 208.504 836.402 333.207 545.717C349.092 508.98 369.17 473.88 393.107 441.001C356.3 483.286 326.648 530.179 305.109 580.292Z" fill="url(#paint8_linear_654_2382)" fill-opacity="0.65"/>
</g>
<defs>
<linearGradient id="paint0_linear_654_2382" x1="858.5" y1="61.0039" x2="858.496" y2="1218" gradientUnits="userSpaceOnUse">
<stop stop-color="#C8D9FB"/>
<stop offset="0.0001" stop-color="#578BEF"/>
<stop offset="0.144988" stop-color="#1D4490"/>
<stop offset="0.335048" stop-color="#1D4490"/>
<stop offset="0.640048" stop-color="#112C62"/>
<stop offset="0.785048" stop-color="#0C1B48"/>
<stop offset="1" stop-color="#040223"/>
</linearGradient>
<linearGradient id="paint1_linear_654_2382" x1="978" y1="0.00312314" x2="977.995" y2="1220" gradientUnits="userSpaceOnUse">
<stop stop-color="#C8D9FB"/>
<stop offset="0.0001" stop-color="#578BEF"/>
<stop offset="0.144988" stop-color="#1D4490"/>
<stop offset="0.335048" stop-color="#1D4490"/>
<stop offset="0.640048" stop-color="#112C62"/>
<stop offset="0.785048" stop-color="#0C1B48"/>
<stop offset="1" stop-color="#040223"/>
</linearGradient>
<linearGradient id="paint2_linear_654_2382" x1="923" y1="30.004" x2="922.995" y2="1218" gradientUnits="userSpaceOnUse">
<stop stop-color="#C8D9FB"/>
<stop offset="0.0001" stop-color="#578BEF"/>
<stop offset="0.144988" stop-color="#1D4490"/>
<stop offset="0.335048" stop-color="#1D4490"/>
<stop offset="0.640048" stop-color="#112C62"/>
<stop offset="0.785048" stop-color="#0C1B48"/>
<stop offset="1" stop-color="#040223"/>
</linearGradient>
<linearGradient id="paint3_linear_654_2382" x1="724.498" y1="270.003" x2="724.494" y2="1363" gradientUnits="userSpaceOnUse">
<stop stop-color="#C8D9FB"/>
<stop offset="0.0001" stop-color="#578BEF"/>
<stop offset="0.144988" stop-color="#1D4490"/>
<stop offset="0.335048" stop-color="#1D4490"/>
<stop offset="0.640048" stop-color="#112C62"/>
<stop offset="0.785048" stop-color="#0C1B48"/>
<stop offset="1" stop-color="#040223"/>
</linearGradient>
<linearGradient id="paint4_linear_654_2382" x1="636.5" y1="147.002" x2="636.495" y2="1340" gradientUnits="userSpaceOnUse">
<stop stop-color="#C8D9FB"/>
<stop offset="0.0001" stop-color="#578BEF"/>
<stop offset="0.144988" stop-color="#1D4490"/>
<stop offset="0.335048" stop-color="#1D4490"/>
<stop offset="0.640048" stop-color="#112C62"/>
<stop offset="0.785048" stop-color="#0C1B48"/>
<stop offset="1" stop-color="#040223"/>
</linearGradient>
<linearGradient id="paint5_linear_654_2382" x1="677" y1="208.003" x2="676.996" y2="1344" gradientUnits="userSpaceOnUse">
<stop stop-color="#C8D9FB"/>
<stop offset="0.0001" stop-color="#578BEF"/>
<stop offset="0.144988" stop-color="#1D4490"/>
<stop offset="0.335048" stop-color="#1D4490"/>
<stop offset="0.640048" stop-color="#112C62"/>
<stop offset="0.785048" stop-color="#0C1B48"/>
<stop offset="1" stop-color="#040223"/>
</linearGradient>
<linearGradient id="paint6_linear_654_2382" x1="926" y1="400.003" x2="925.997" y2="1288" gradientUnits="userSpaceOnUse">
<stop stop-color="#C8D9FB"/>
<stop offset="0.0001" stop-color="#578BEF"/>
<stop offset="0.144988" stop-color="#1D4490"/>
<stop offset="0.335048" stop-color="#1D4490"/>
<stop offset="0.640048" stop-color="#112C62"/>
<stop offset="0.785048" stop-color="#0C1B48"/>
<stop offset="1" stop-color="#040223"/>
</linearGradient>
<linearGradient id="paint7_linear_654_2382" x1="897.498" y1="469.004" x2="897.494" y2="1452" gradientUnits="userSpaceOnUse">
<stop stop-color="#C8D9FB"/>
<stop offset="0.0001" stop-color="#578BEF"/>
<stop offset="0.144988" stop-color="#1D4490"/>
<stop offset="0.335048" stop-color="#1D4490"/>
<stop offset="0.640048" stop-color="#112C62"/>
<stop offset="0.785048" stop-color="#0C1B48"/>
<stop offset="1" stop-color="#040223"/>
</linearGradient>
<linearGradient id="paint8_linear_654_2382" x1="909.998" y1="441.003" x2="909.995" y2="1369" gradientUnits="userSpaceOnUse">
<stop stop-color="#C8D9FB"/>
<stop offset="0.0001" stop-color="#578BEF"/>
<stop offset="0.144988" stop-color="#1D4490"/>
<stop offset="0.335048" stop-color="#1D4490"/>
<stop offset="0.640048" stop-color="#112C62"/>
<stop offset="0.785048" stop-color="#0C1B48"/>
<stop offset="1" stop-color="#040223"/>
</linearGradient>
<clipPath id="clip0_654_2382">
<rect width="1564" height="1452" fill="white"/>
</clipPath>
</defs>
</svg>
