<svg width="100" height="101" fill="none" xmlns="http://www.w3.org/2000/svg"><path fill-rule="evenodd" clip-rule="evenodd" d="M56.395 83.822c20.332-3.66 33.63-24.116 29.753-45.763-3.88-21.645-23.477-36.334-43.84-32.86-7.28 1.246-13.993 4.75-19.304 10.07a36.573 36.573 0 0 1 16.907-7.696c20.37-3.472 39.872 10.633 43.625 31.553 3.756 20.92-9.649 40.784-29.988 44.434-2.574.456-5.19.635-7.807.532 3.56.447 7.146.356 10.654-.27Z" fill="#FCFCFC"/><path fill-rule="evenodd" clip-rule="evenodd" d="M63.555 83.827c23.092-4.132 38.449-25.88 34.355-48.65C93.814 12.405 71.807-2.818 48.68 1.12c-8.264 1.412-15.946 5.342-22.04 11.024 5.608-4.269 12.258-7.282 19.293-8.488C69.064-.28 90.971 14.328 94.936 36.336c3.964 22.006-11.503 43.13-34.604 47.253-2.923.515-5.89.739-8.854.667a43.28 43.28 0 0 0 12.077-.429Z" fill="#FCFCFC"/><path fill-rule="evenodd" clip-rule="evenodd" d="M60.353 83.747C81.83 79.89 95.975 58.82 91.99 36.614 88.003 14.408 67.392-.578 45.88 3.089 38.19 4.404 31.086 7.922 25.452 13.412c5.191-4.116 11.341-6.75 17.886-7.873 21.518-3.665 42.032 10.72 45.89 32.182 3.858 21.462-10.394 41.923-31.88 45.77-2.718.481-5.483.677-8.245.586 3.755.44 7.542.33 11.249-.33Z" fill="#FCFCFC"/><path fill-rule="evenodd" clip-rule="evenodd" d="M78.543 31.297C65.04 15.882 40.4 14.95 23.426 29.214 6.454 43.48 3.532 67.57 16.892 83.107c4.778 5.55 11.246 9.479 18.592 11.293-5.969-2.141-11.23-5.738-15.302-10.461-13.358-15.544-10.9-39.256 5.499-53.048 16.403-13.79 40.576-12.468 54.075 2.957a35.551 35.551 0 0 1 4.423 6.362 34.356 34.356 0 0 0-5.636-8.913Z" fill="#FCFCFC"/><path fill-rule="evenodd" clip-rule="evenodd" d="M74.92 25.213C59.602 7.692 32.791 5.668 14.944 20.686-2.903 35.702-5.07 62.11 10.094 79.76c5.423 6.305 12.744 10.74 20.803 13.036-6.576-2.6-12.573-6.621-17.193-11.987C-1.461 63.153.22 37.143 17.464 22.623c17.245-14.52 43.567-12.084 58.88 5.448a43.368 43.368 0 0 1 5.07 7.184 41.967 41.967 0 0 0-6.495-10.042Z" fill="#FCFCFC"/><path fill-rule="evenodd" clip-rule="evenodd" d="M76.473 27.975c-14.26-16.291-39.863-17.628-57.271-2.99C1.792 39.623-.875 64.725 13.236 81.14c5.046 5.865 11.39 9.944 19.046 11.948-6.233-2.323-11.318-6.04-15.615-11.03-14.113-16.422-11.92-41.138 4.901-55.29 16.824-14.152 41.949-12.415 56.203 3.887a38.58 38.58 0 0 1 4.688 6.705 37.31 37.31 0 0 0-5.986-9.386Z" fill="#FCFCFC"/><path fill-rule="evenodd" clip-rule="evenodd" d="M21.544 37.14c-7.535 18.963 3.127 40.868 23.852 49.003 20.723 8.135 43.712-.561 51.424-19.454 2.75-6.754 3.259-14.224 1.461-21.472.862 6.2.09 12.465-2.252 18.215-7.717 18.897-30.148 27.82-50.18 19.964-20.033-7.857-30.128-29.54-22.58-48.503a35.296 35.296 0 0 1 3.645-6.823 34.332 34.332 0 0 0-5.37 9.07Z" fill="#FCFCFC"/><path fill-rule="evenodd" clip-rule="evenodd" d="M17.774 43.138C9.194 64.662 19.89 88.972 41.7 97.517c21.809 8.544 46.522-1.89 55.288-23.342 3.129-7.668 3.804-16.293 2.104-24.387.733 6.944-.186 14.22-2.846 20.75-8.771 21.457-32.903 32.129-53.983 23.878-21.081-8.254-31.178-32.327-22.587-53.854a43.168 43.168 0 0 1 4.081-7.771 41.859 41.859 0 0 0-5.982 10.347Z" fill="#FCFCFC"/><path fill-rule="evenodd" clip-rule="evenodd" d="M19.529 40.495c-7.97 20.029 2.778 42.963 24.042 51.305 21.264 8.34 45.041-1.05 53.191-21.007 2.908-7.135 3.61-14.958 1.835-22.565.82 6.515-.14 13.072-2.613 19.147-8.156 19.96-31.363 29.584-51.917 21.53-20.554-8.057-30.719-30.762-22.74-50.792a38.498 38.498 0 0 1 3.832-7.216 37.217 37.217 0 0 0-5.63 9.598Z" fill="#FCFCFC"/><path fill-rule="evenodd" clip-rule="evenodd" d="m28.9 33.243.138-.136H34.6l.138.136v.309c0 1.411-.863 2.565-2.007 3.205 1.375.636 2.205 2 2.205 3.35v.308l-.138.136h-5.76l-.138-.136v-7.172Zm.276.136v6.9h5.484v-.173c0-1.326-.871-2.676-2.301-3.209l-.012-.25c1.2-.567 2.115-1.704 2.115-3.095v-.173h-5.286Zm.742.778.138-.136h3.39l.137.151c-.166 1.503-1.648 2.352-2.862 2.352h-.665l-.138-.136v-2.23Zm.277.137v1.958h.526c1.076 0 2.34-.725 2.565-1.959h-3.091Zm-.277 2.976.138-.136h.834c1.402 0 2.69 1.006 2.9 2.35l-.137.157h-3.597l-.138-.136V37.27Zm.277.136v1.963h3.29c-.258-1.122-1.373-1.963-2.595-1.963h-.695Z" fill="#FCFCFC"/><path d="M32.406 36.768c1.237-.584 2.194-1.763 2.194-3.217v-.308h-5.563v7.172h5.76v-.308c0-1.383-.904-2.786-2.39-3.339Zm1.04-2.613c-.156 1.414-1.56 2.233-2.724 2.233h-.666v-2.233h3.39Zm-3.39 3.115h.831c1.342 0 2.569.963 2.767 2.233h-3.598V37.27Z" fill="#FCFCFC"/><path fill-rule="evenodd" clip-rule="evenodd" d="m38.131 33.292.129-.185h1.143l.129.087 2.807 7.172-.13.185h-1.142l-.128-.087-.345-.875-4.999 1.073-.166-.12a7.203 7.203 0 0 1-.042-.66c0-2.296 1.45-4.164 3.488-4.683l-.744-1.907Zm.33.087.728 1.867-.099.182c-1.983.432-3.427 2.218-3.427 4.455 0 .15.012.314.026.48L40.65 39.3l.159.083.353.897h.846l-2.7-6.9h-.847Zm-1.652 5.788 3.343-.717-.816-2.09c-1.436.298-2.402 1.395-2.527 2.807Zm-.287.166c.063-1.66 1.19-2.966 2.877-3.262l.153.085.916 2.345-.1.182-3.679.788-.167-.138Z" fill="#FCFCFC"/><path d="m42.21 40.415-2.807-7.172H38.26l.8 2.049c-2.048.45-3.535 2.295-3.535 4.59 0 .205.02.43.041.646l5.116-1.096.386.983h1.143Zm-5.552-1.076c.063-1.598 1.144-2.848 2.766-3.135l.916 2.346-3.682.79Z" fill="#FCFCFC"/><path fill-rule="evenodd" clip-rule="evenodd" d="m42.823 33.243.139-.136h5.925l.138.136v.983l-.036.091-4.535 4.978h4.483l.139.137v.983l-.139.136h-6.083l-.138-.136v-.983l.035-.091 4.536-4.979h-4.325l-.139-.136v-.983Zm.277.136v.711h4.497l.103.227-4.708 5.167v.795H48.8v-.711h-4.655l-.103-.227 4.708-5.167v-.795h-5.65Z" fill="#FCFCFC"/><path d="M42.855 40.415h6.083v-.983h-4.793l4.742-5.206v-.983h-5.928v.983h4.638l-4.742 5.206v.983Z" fill="#FCFCFC"/><path fill-rule="evenodd" clip-rule="evenodd" d="m52.168 33.292.13-.185h1.14l.13.087 2.809 7.172-.129.185h-1.142l-.129-.087-.345-.875-4.998 1.073-.167-.12a7.203 7.203 0 0 1-.042-.66c0-2.296 1.45-4.164 3.486-4.683l-.743-1.907Zm.33.087.727 1.867-.099.182c-1.98.432-3.425 2.218-3.425 4.455 0 .15.012.314.027.48l4.96-1.064.159.083.353.897h.847l-2.703-6.9h-.846Zm-1.651 5.788 3.342-.717-.817-2.09c-1.434.298-2.4 1.395-2.526 2.807Zm-.288.166c.064-1.66 1.191-2.966 2.876-3.262l.153.085.917 2.345-.1.182-3.678.788-.168-.138Z" fill="#FCFCFC"/><path d="m56.248 40.415-2.807-7.172h-1.144l.8 2.049c-2.048.451-3.535 2.295-3.535 4.59 0 .205.02.43.041.646l5.116-1.096.386.983h1.143Zm-5.553-1.076c.063-1.598 1.145-2.848 2.766-3.135l.916 2.346-3.682.79Z" fill="#FCFCFC"/><path fill-rule="evenodd" clip-rule="evenodd" d="m28.12 46.05.138-.136h6.236l.138.136v.983l-.138.136h-2.461v6.053l-.138.136h-1.038l-.139-.136v-6.053h-2.46l-.138-.136v-.983Zm.277.136v.711h2.46l.138.136v6.053h.761v-6.053l.139-.136h2.46v-.71h-5.958Z" fill="#FCFCFC"/><path d="M34.496 46.05h-6.239v.983h2.6v6.188h1.039v-6.188h2.6v-.983Z" fill="#FCFCFC"/><path fill-rule="evenodd" clip-rule="evenodd" d="m35.45 46.05.138-.136h5.611l.139.136v.309c0 1.621-.818 2.86-2.06 3.583l2.583 3.195-.108.221h-1.271l-.109-.052-2.28-2.87c-.43.111-.878.183-1.348.203v2.583l-.139.136h-1.018l-.138-.136V46.05Zm.276.136v6.9h.742v-2.578l.135-.136a6.173 6.173 0 0 0 1.505-.223l.146.047 2.295 2.89h.918l-2.506-3.099.041-.204c1.24-.665 2.06-1.848 2.06-3.424v-.173h-5.336Zm.742.758.138-.136h3.513l.136.157c-.27 1.683-1.68 2.748-3.649 2.748l-.138-.136v-2.633Zm.277.136v2.36c1.72-.047 2.91-.96 3.208-2.36h-3.208Z" fill="#FCFCFC"/><path d="M40.485 53.22h1.268l-2.682-3.318c1.279-.687 2.132-1.916 2.132-3.545v-.307h-5.615v7.17h1.018v-2.713c.54-.01 1.051-.093 1.54-.226l2.34 2.94Zm-3.879-3.646v-2.633h3.515c-.26 1.609-1.6 2.633-3.515 2.633Z" fill="#FCFCFC"/><path fill-rule="evenodd" clip-rule="evenodd" d="m44.567 46.099.129-.185h1.142l.129.087 2.81 7.172-.13.185h-1.142l-.129-.087-.344-.874-4.999 1.072-.167-.12a7.19 7.19 0 0 1-.042-.66c0-2.296 1.451-4.164 3.487-4.683l-.744-1.907Zm.33.087.729 1.867-.1.182c-1.98.432-3.425 2.218-3.425 4.455 0 .15.011.314.026.48l4.961-1.064.158.083.354.897h.846l-2.703-6.9h-.846Zm-1.651 5.788 3.341-.716-.815-2.09c-1.434.297-2.4 1.394-2.526 2.806Zm-.287.166c.064-1.66 1.19-2.966 2.876-3.262l.154.086.914 2.344-.1.182-3.677.788-.167-.138Z" fill="#FCFCFC"/><path d="m48.648 53.22-2.808-7.17h-1.144l.8 2.049c-2.048.451-3.535 2.295-3.535 4.59 0 .205.021.43.042.645l5.115-1.096.385.983h1.145Zm-5.554-1.074c.063-1.599 1.144-2.848 2.767-3.136l.914 2.347-3.68.79Z" fill="#FCFCFC"/><path fill-rule="evenodd" clip-rule="evenodd" d="m49.623 46.05.138-.136h1.04l.138.136v7.172l-.139.136h-1.039l-.138-.136V46.05Zm.276.136v6.9h.763v-6.9H49.9Z" fill="#FCFCFC"/><path d="M49.76 46.05h1.04v7.17h-1.04v-7.17Z" fill="#FCFCFC"/><path fill-rule="evenodd" clip-rule="evenodd" d="m52.533 46.05.139-.136h1.039l.102.044 4.024 4.322v-4.23l.138-.136h1.038l.138.136v7.172l-.138.136h-1.038l-.138-.136v-1.154l-3.988-4.275v5.429l-.138.136h-1.04l-.138-.136V46.05Zm.277.136v6.9h.763v-5.642l.24-.093 4.264 4.572.036.092v1.07h.762v-6.899h-.762v4.443l-.24.092-4.223-4.535h-.84Z" fill="#FCFCFC"/><path d="M57.974 46.05v4.58l-4.263-4.58h-1.04v7.17h1.04v-5.777l4.263 4.57v1.208h1.04V46.05h-1.04Z" fill="#FCFCFC"/><path fill-rule="evenodd" clip-rule="evenodd" d="m60.748 46.05.139-.136h4.887l.138.136v.963l-.138.136h-3.71v1.87h3.395l.138.136v.963l-.138.136h-3.395v1.869h3.71l.138.136v.963l-.138.136h-4.887l-.139-.136V46.05Zm.277.136v6.9h4.61v-.69h-3.71l-.137-.137v-2.141l.138-.137h3.395v-.69h-3.395l-.138-.136v-2.142l.138-.136h3.71v-.69h-4.611Z" fill="#FCFCFC"/><path d="M65.772 47.013v-.963h-4.887v7.17h4.887v-.962h-3.847v-2.14h3.535v-.963h-3.535v-2.142h3.847Z" fill="#FCFCFC"/><path fill-rule="evenodd" clip-rule="evenodd" d="m67.195 46.05.138-.136h4.887l.138.136v.963l-.138.136h-3.71v1.87h3.397l.138.136v.963l-.138.136H68.51v1.869h3.71l.138.136v.963l-.138.136h-4.887l-.138-.136V46.05Zm.277.136v6.9h4.61v-.69h-3.71l-.139-.137v-2.141l.138-.137h3.398v-.69H68.37l-.138-.136v-2.142l.138-.136h3.711v-.69h-4.61Z" fill="#FCFCFC"/><path d="M72.22 47.013v-.963h-4.888v7.17h4.887v-.962h-3.847v-2.14h3.535v-.963h-3.535v-2.142h3.847Z" fill="#FCFCFC"/><path fill-rule="evenodd" clip-rule="evenodd" d="m28.797 58.856.138-.136h1.039l.138.136v2.5c0 1.146.352 2.028.997 2.625.646.599 1.606.928 2.857.928h.13v-6.053l.138-.136h1.04l.137.136v7.172l-.138.136h-1.307c-1.62 0-2.916-.431-3.808-1.258-.893-.828-1.361-2.036-1.361-3.55v-2.5Zm.276.136v2.363c0 1.46.45 2.588 1.275 3.353.826.766 2.045 1.184 3.618 1.184h1.17v-6.9h-.764v6.053l-.138.136h-.268c-1.298 0-2.334-.342-3.046-1.001-.714-.66-1.084-1.623-1.084-2.825v-2.363h-.763Z" fill="#FCFCFC"/><path d="M34.236 58.856v6.189h-.271c-2.548 0-3.992-1.342-3.992-3.69v-2.499h-1.04v2.5c0 2.971 1.84 4.672 5.032 4.672h1.31v-7.172h-1.039Z" fill="#FCFCFC"/><path fill-rule="evenodd" clip-rule="evenodd" d="m37.01 58.856.138-.136h1.018l.139.136v3.001h.653c.838 0 1.518-.261 1.989-.756.472-.496.75-1.243.75-2.245l.139-.136h1.04l.138.136c0 1.501-.595 2.914-1.842 3.532 1.332.627 1.986 2.072 1.986 3.64l-.138.136h-1.04l-.138-.136c0-.888-.255-1.635-.735-2.16-.479-.522-1.194-.837-2.149-.837h-.654v2.997l-.138.136h-1.018l-.138-.136v-7.172Zm.276.136v6.9h.742v-2.997l.138-.136h.792c1.02 0 1.815.339 2.354.927.51.558.78 1.326.804 2.206h.764c-.039-1.558-.758-2.9-2.108-3.372l-.002-.257c1.266-.458 1.928-1.768 1.966-3.27h-.764c-.024.984-.314 1.759-.824 2.294-.534.56-1.293.842-2.19.842h-.792l-.138-.136v-3h-.742Z" fill="#FCFCFC"/><path d="M40.817 62.391c1.384-.502 2.06-1.946 2.06-3.535h-1.04c0 2.049-1.145 3.135-2.88 3.135h-.79v-3.135h-1.02v7.172h1.02v-3.135h.79c1.975 0 3.025 1.312 3.025 3.135h1.04c0-1.65-.739-3.125-2.205-3.637Z" fill="#FCFCFC"/><path fill-rule="evenodd" clip-rule="evenodd" d="m44.288 58.856.139-.136h5.611l.138.136v.309c0 1.62-.816 2.86-2.061 3.583l2.584 3.195-.108.221h-1.27l-.108-.052-2.283-2.87a6.43 6.43 0 0 1-1.348.203v2.583l-.138.136h-1.017l-.139-.136v-7.172Zm.277.136v6.9h.74v-2.578l.136-.136a6.147 6.147 0 0 0 1.504-.223l.146.047 2.298 2.89h.915l-2.506-3.099.042-.204c1.242-.665 2.06-1.848 2.06-3.424v-.173h-5.335Zm.74.758.139-.136h3.515l.136.158c-.273 1.683-1.683 2.747-3.651 2.747l-.138-.136V59.75Zm.277.136v2.36c1.72-.047 2.91-.96 3.21-2.36h-3.21Z" fill="#FCFCFC"/><path d="M49.323 66.028h1.269l-2.683-3.32c1.279-.685 2.131-1.916 2.131-3.544v-.308h-5.614v7.172h1.018v-2.715a6.27 6.27 0 0 0 1.54-.225l2.339 2.94Zm-3.879-3.647v-2.633h3.515c-.26 1.608-1.601 2.633-3.515 2.633Z" fill="#FCFCFC"/><path fill-rule="evenodd" clip-rule="evenodd" d="m53.406 58.905.129-.185h1.142l.129.087 2.807 7.172-.129.185h-1.142l-.13-.087-.343-.874-4.998 1.072-.167-.12a6.818 6.818 0 0 1-.043-.66c0-2.296 1.45-4.164 3.488-4.683l-.743-1.907Zm.33.087.728 1.867-.1.182c-1.982.432-3.427 2.218-3.427 4.455 0 .15.012.314.027.48l4.962-1.064.158.084.352.896h.847l-2.7-6.9h-.847Zm-1.652 5.788 3.342-.716-.816-2.09c-1.435.297-2.4 1.394-2.526 2.806Zm-.288.166c.064-1.66 1.19-2.966 2.877-3.262l.153.085.916 2.345-.1.182-3.678.788-.168-.138Z" fill="#FCFCFC"/><path d="m57.485 66.028-2.807-7.172h-1.143l.8 2.049c-2.05.45-3.536 2.295-3.536 4.59 0 .205.02.43.042.646l5.116-1.096.385.983h1.143Zm-5.552-1.076c.062-1.598 1.144-2.848 2.766-3.135l.915 2.346-3.68.79Z" fill="#FCFCFC"/><path fill-rule="evenodd" clip-rule="evenodd" d="m58.46 58.856.139-.136h1.04l.137.136v7.172l-.138.136h-1.04l-.137-.136v-7.172Zm.277.136v6.9h.763v-6.9h-.763Z" fill="#FCFCFC"/><path d="M58.598 58.856h1.04v7.172h-1.04v-7.172Z" fill="#FCFCFC"/><path fill-rule="evenodd" clip-rule="evenodd" d="m61.37 58.856.139-.136h1.04l.102.044 4.024 4.322v-4.23l.139-.136h1.039l.138.136v7.172l-.138.136h-1.04l-.138-.136v-1.154L62.688 60.6v5.429l-.139.136h-1.04l-.138-.136v-7.172Zm.277.136v6.9h.764V60.25l.24-.092 4.264 4.571.037.092v1.07h.763v-6.899h-.763v4.444l-.24.092-4.223-4.536h-.842Z" fill="#FCFCFC"/><path d="M66.813 58.856v4.58l-4.264-4.58h-1.04v7.172h1.04V60.25l4.264 4.57v1.208h1.039v-7.172h-1.04Z" fill="#FCFCFC"/><path fill-rule="evenodd" clip-rule="evenodd" d="m69.586 58.856.138-.136h4.887l.138.136v.963l-.138.136h-3.71v1.87h3.397l.138.136v.963l-.138.136h-3.396v1.869h3.71l.137.136v.963l-.138.136h-4.887l-.138-.136v-7.172Zm.276.136v6.9h4.61V65.2h-3.709l-.138-.136v-2.141l.138-.137h3.397v-.69h-3.397l-.138-.136v-2.142l.138-.136h3.71v-.69h-4.61Z" fill="#FCFCFC"/><path d="M74.61 59.819v-.963h-4.887v7.172h4.887v-.963h-3.847v-2.141H74.3v-.963h-3.536v-2.142h3.847Z" fill="#FCFCFC"/></svg>