<svg width="40" height="40" viewBox="0 0 40 40" fill="none" xmlns="http://www.w3.org/2000/svg">
<path fill-rule="evenodd" clip-rule="evenodd" d="M22.5581 33.3288C30.6907 31.8652 36.0102 23.6826 34.4592 15.0236C32.9074 6.36564 25.0685 0.489897 16.9231 1.87957C14.0115 2.37816 11.326 3.77927 9.20176 5.90772C11.1606 4.31323 13.4866 3.25467 15.9642 2.82921C24.1125 1.44027 31.9131 7.08247 33.4145 15.4503C34.917 23.8182 29.5549 31.7639 21.4191 33.2239C20.3897 33.4064 19.343 33.478 18.2964 33.4369C19.72 33.6157 21.1547 33.5791 22.5581 33.3288Z" fill="#FCFCFC"/>
<path fill-rule="evenodd" clip-rule="evenodd" d="M25.4219 33.3309C34.6589 31.6778 40.8016 22.9787 39.1639 13.8705C37.5255 4.76218 28.7228 -1.32691 19.4722 0.248023C16.1664 0.812878 13.0936 2.38499 10.6563 4.65773C12.8994 2.95016 15.559 1.74463 18.3732 1.26227C27.6258 -0.311839 36.3884 5.53134 37.9746 14.3341C39.5602 23.1368 33.373 31.5864 24.1327 33.2358C22.9636 33.4417 21.7767 33.5312 20.5911 33.5023C22.2014 33.6713 23.828 33.6136 25.4219 33.3309Z" fill="#FCFCFC"/>
<path fill-rule="evenodd" clip-rule="evenodd" d="M24.141 33.2987C32.7325 31.7562 38.3898 23.3281 36.7959 14.4455C35.2011 5.56308 26.9568 -0.431356 18.3518 1.0356C15.2765 1.56176 12.4346 2.96889 10.1812 5.16485C12.2577 3.51835 14.7177 2.4647 17.3356 2.01573C25.9428 0.5496 34.1483 6.30384 35.6915 14.8884C37.2347 23.4733 31.5341 31.6575 22.9397 33.1968C21.8522 33.3889 20.7465 33.4673 19.6417 33.4308C21.1437 33.6072 22.6585 33.5628 24.141 33.2987Z" fill="#FCFCFC"/>
<path fill-rule="evenodd" clip-rule="evenodd" d="M31.4173 12.319C26.0157 6.15268 16.1602 5.78007 9.3704 11.4856C2.58154 17.1915 1.41272 26.828 6.75669 33.0427C8.66812 35.2626 11.2551 36.8343 14.1935 37.5601C11.8061 36.7036 9.70159 35.2647 8.073 33.3755C2.72955 27.158 3.71266 17.673 10.2723 12.1565C16.8337 6.64035 26.5028 7.169 31.9023 13.3393C32.5832 14.1212 33.1767 14.9741 33.6715 15.8839C33.1065 14.5844 32.3478 13.3841 31.4173 12.319Z" fill="#FCFCFC"/>
<path fill-rule="evenodd" clip-rule="evenodd" d="M29.9678 9.88541C23.8412 2.87673 13.1167 2.0669 5.97766 8.07392C-1.16108 14.0809 -2.02827 24.6444 4.0373 31.7038C6.20686 34.226 9.13531 36.0001 12.3587 36.9185C9.72843 35.8786 7.32943 34.2699 5.48146 32.1235C-0.584538 25.0613 0.0880775 14.6571 6.9859 8.84922C13.8837 3.0413 24.4123 4.0157 30.5377 11.0284C31.3106 11.9171 31.9902 12.8802 32.5654 13.9021C31.8974 12.4487 31.0227 11.0959 29.9678 9.88541Z" fill="#FCFCFC"/>
<path fill-rule="evenodd" clip-rule="evenodd" d="M30.5893 10.9898C24.8849 4.47362 14.6442 3.93893 7.68079 9.79397C0.716986 15.649 -0.349844 25.6903 5.29427 32.2565C7.31297 34.6022 9.85005 36.2342 12.913 37.0355C10.4195 36.1062 8.3856 34.6193 6.66674 32.6234C1.02178 26.0547 1.899 16.1683 8.62726 10.5075C15.3568 4.84665 25.4066 5.54154 31.1085 12.0622C31.8273 12.8883 32.4562 13.7872 32.9836 14.7445C32.3774 13.3796 31.5711 12.1154 30.5893 10.9898Z" fill="#FCFCFC"/>
<path fill-rule="evenodd" clip-rule="evenodd" d="M8.61776 14.6563C5.60361 22.2412 9.86819 31.0033 18.1583 34.2573C26.4475 37.5113 35.6433 34.0326 38.728 26.4757C39.8282 23.774 40.0316 20.7861 39.3124 17.8868C39.6571 20.3672 39.3483 22.8727 38.4116 25.173C35.3248 32.7315 26.3523 36.3009 18.3393 33.1585C10.3264 30.0155 6.28858 21.3424 9.30737 13.7571C9.69124 12.7985 10.1795 11.8838 10.7656 11.028C9.8628 12.1268 9.13993 13.3483 8.61776 14.6563Z" fill="#FCFCFC"/>
<path fill-rule="evenodd" clip-rule="evenodd" d="M7.10967 17.055C3.67765 25.6646 7.95595 35.3886 16.6795 38.8067C25.403 42.2246 35.2886 38.051 38.7948 29.4701C40.0465 26.4026 40.3162 22.9527 39.6365 19.7153C39.9297 22.4927 39.5619 25.4034 38.4979 28.0154C34.9896 36.5979 25.337 40.867 16.9047 37.5662C8.47231 34.265 4.43367 24.6354 7.87012 16.0249C8.30646 14.9368 8.85418 13.8949 9.50241 12.9164C8.5098 14.1769 7.70352 15.5706 7.10967 17.055Z" fill="#FCFCFC"/>
<path fill-rule="evenodd" clip-rule="evenodd" d="M7.81159 15.9981C4.62367 24.0096 8.92298 33.1833 17.4284 36.5198C25.9341 39.8559 35.4449 36.0997 38.7049 28.117C39.8678 25.2632 40.1487 22.1339 39.4386 19.0912C39.7668 21.6971 39.3825 24.3201 38.3936 26.75C35.131 34.7339 25.8483 38.5837 17.6266 35.3617C9.40503 32.139 5.33925 23.0571 8.53077 15.0452C8.93744 14.0326 9.45085 13.0655 10.0637 12.1589C9.12177 13.3244 8.3629 14.6169 7.81159 15.9981Z" fill="#FCFCFC"/>
<path fill-rule="evenodd" clip-rule="evenodd" d="M11.5599 13.0972L11.6152 13.0427H13.84L13.8953 13.0972V13.2207C13.8953 13.7853 13.5501 14.247 13.0923 14.5028C13.6426 14.757 13.9745 15.3025 13.9745 15.8425V15.966L13.9192 16.0204H11.6152L11.5599 15.966V13.0972ZM11.6704 13.1516V15.9115H13.864V15.8425C13.864 15.3121 13.5154 14.7718 12.9434 14.5589L12.939 14.4589C13.4186 14.2319 13.7848 13.7773 13.7848 13.2207V13.1516H11.6704ZM11.9673 13.4629L12.0226 13.4085H13.3781L13.4331 13.4688C13.3669 14.0702 12.7741 14.4097 12.2882 14.4097H12.0226L11.9673 14.3553V13.4629ZM12.0778 13.5174V14.3008H12.2882C12.7187 14.3008 13.2242 14.0106 13.3144 13.5174H12.0778ZM11.9673 14.7079L12.0226 14.6535H12.3559C12.9167 14.6535 13.432 15.0559 13.5156 15.5937L13.461 15.6564H12.0226L11.9673 15.6019V14.7079ZM12.0778 14.7624V15.5475H13.3943C13.2907 15.0987 12.8447 14.7624 12.3559 14.7624H12.0778Z" fill="#FCFCFC"/>
<path d="M12.9625 14.5072C13.4573 14.2736 13.84 13.8022 13.84 13.2203V13.0972H11.6147V15.966H13.9188V15.8428C13.9188 15.2898 13.5572 14.7283 12.9625 14.5072ZM13.3781 13.4621C13.3158 14.0277 12.7542 14.3553 12.2886 14.3553H12.0222V13.4621H13.3781ZM12.0222 14.7079H12.355C12.8915 14.7079 13.3822 15.0931 13.4614 15.6011H12.0222V14.7079Z" fill="#FCFCFC"/>
<path fill-rule="evenodd" clip-rule="evenodd" d="M15.2524 13.1167L15.304 13.0427H15.761L15.8126 13.0776L16.9355 15.9464L16.8839 16.0204H16.427L16.3755 15.9857L16.2375 15.6358L14.2382 16.0647L14.1714 16.0166C14.1632 15.9307 14.1547 15.8372 14.1547 15.753C14.1547 14.8344 14.7349 14.0872 15.5499 13.8796L15.2524 13.1167ZM15.3844 13.1516L15.6757 13.8985L15.636 13.9712C14.843 14.144 14.2652 14.8583 14.2652 15.753C14.2652 15.8129 14.2699 15.8788 14.2758 15.9452L16.2602 15.5195L16.3234 15.5529L16.4648 15.9115H16.8034L15.7231 13.1516H15.3844ZM14.7237 15.4667L16.0607 15.1802L15.7343 14.3443C15.1601 14.4631 14.7736 14.9018 14.7237 15.4667ZM14.6088 15.5332C14.634 14.8692 15.0849 14.3468 15.7596 14.2285L15.8209 14.2626L16.187 15.2004L16.1472 15.2731L14.6758 15.5884L14.6088 15.5332Z" fill="#FCFCFC"/>
<path d="M16.8844 15.966L15.7614 13.0972H15.304L15.6241 13.9168C14.8046 14.0972 14.2099 14.8347 14.2099 15.753C14.2099 15.8347 14.2182 15.925 14.2264 16.0111L16.2728 15.5727L16.427 15.966H16.8844ZM14.6632 15.5356C14.6883 14.8965 15.1209 14.3962 15.7697 14.2817L16.1358 15.2199L14.6632 15.5356Z" fill="#FCFCFC"/>
<path fill-rule="evenodd" clip-rule="evenodd" d="M17.1293 13.0972L17.1846 13.0427H19.5546L19.6099 13.0972V13.4905L19.5958 13.5269L17.7815 15.5182H19.5749L19.6302 15.5727V15.966L19.5749 16.0204H17.1417L17.0865 15.966V15.5727L17.1006 15.5363L18.9148 13.545H17.1846L17.1293 13.4905V13.0972ZM17.2399 13.1516V13.436H19.0387L19.0798 13.5269L17.197 15.5935V15.9115H19.5197V15.6271H17.6576L17.6165 15.5363L19.4994 13.4696V13.1516H17.2399Z" fill="#FCFCFC"/>
<path d="M17.1422 15.966H19.5753V15.5727H17.658L19.5547 13.4905V13.0972H17.1838V13.4905H19.0387L17.1422 15.5727V15.966Z" fill="#FCFCFC"/>
<path fill-rule="evenodd" clip-rule="evenodd" d="M20.8673 13.1167L20.9189 13.0427H21.3754L21.4269 13.0776L22.5508 15.9464L22.4992 16.0204H22.0423L21.9908 15.9857L21.8528 15.6358L19.8535 16.0647L19.7867 16.0166C19.7785 15.9307 19.77 15.8372 19.77 15.753C19.77 14.8344 20.3502 14.0872 21.1643 13.8796L20.8673 13.1167ZM20.9993 13.1516L21.2901 13.8985L21.2504 13.9712C20.4583 14.144 19.8805 14.8582 19.8805 15.753C19.8805 15.8129 19.8852 15.8788 19.891 15.9452L21.8755 15.5195L21.9387 15.5529L22.0801 15.9115H22.4187L21.3375 13.1516H20.9993ZM20.3386 15.4667L21.6755 15.1802L21.3487 14.3443C20.7754 14.4631 20.3889 14.9018 20.3386 15.4667ZM20.2237 15.5331C20.2493 14.8692 20.7002 14.3468 21.3739 14.2285L21.4352 14.2625L21.8019 15.2003L21.762 15.2731L20.2906 15.5884L20.2237 15.5331Z" fill="#FCFCFC"/>
<path d="M22.4993 15.966L21.3763 13.0972H20.9189L21.2389 13.9168C20.4195 14.0972 19.8248 14.8347 19.8248 15.7531C19.8248 15.8347 19.8331 15.925 19.8413 16.0111L21.8877 15.5727L22.0419 15.966H22.4993ZM20.2781 15.5356C20.3032 14.8965 20.7358 14.3963 21.3845 14.2817L21.7507 15.2199L20.2781 15.5356Z" fill="#FCFCFC"/>
<path fill-rule="evenodd" clip-rule="evenodd" d="M11.2481 18.22L11.3034 18.1655H13.7976L13.8528 18.22V18.6133L13.7976 18.6678H12.8131V21.0888L12.7579 21.1432H12.3426L12.2874 21.0888V18.6678H11.3034L11.2481 18.6133V18.22ZM11.3586 18.2744V18.5589H12.3426L12.3979 18.6133V21.0343H12.7026V18.6133L12.7579 18.5589H13.7423V18.2744H11.3586Z" fill="#FCFCFC"/>
<path d="M13.7984 18.22H11.3029V18.6133H12.3426V21.0884H12.7583V18.6133H13.7984V18.22Z" fill="#FCFCFC"/>
<path fill-rule="evenodd" clip-rule="evenodd" d="M14.1798 18.22L14.2351 18.1655H16.4798L16.5351 18.22V18.3436C16.5351 18.992 16.2082 19.4878 15.711 19.7768L16.7445 21.0549L16.7013 21.1432H16.1928L16.1492 21.1224L15.237 19.9741C15.065 20.0188 14.8859 20.0475 14.6979 20.0557V21.0888L14.6426 21.1432H14.2351L14.1798 21.0888V18.22ZM14.2903 18.2744V21.0343H14.5873V20.0031L14.6413 19.9486C14.8525 19.9439 15.052 19.9121 15.2431 19.8596L15.3014 19.8785L16.2197 21.0343H16.5866L15.5842 19.7948L15.601 19.7131C16.097 19.4472 16.4245 18.974 16.4245 18.3436V18.2744H14.2903ZM14.5873 18.5776L14.6426 18.5232H16.0476L16.1022 18.5862C15.9937 19.2594 15.4299 19.6853 14.6426 19.6853L14.5873 19.6309V18.5776ZM14.6979 18.6321V19.5757C15.3858 19.5572 15.8621 19.192 15.9812 18.6321H14.6979Z" fill="#FCFCFC"/>
<path d="M16.194 21.0884H16.7013L15.6282 19.7609C16.14 19.4862 16.4811 18.9945 16.4811 18.3427V18.22H14.2351V21.0884H14.6426V20.0027C14.8587 19.9986 15.0628 19.9656 15.2583 19.9125L16.194 21.0884ZM14.6426 19.6296V18.5764H16.0484C15.9445 19.22 15.408 19.6296 14.6426 19.6296Z" fill="#FCFCFC"/>
<path fill-rule="evenodd" clip-rule="evenodd" d="M17.8267 18.2395L17.8783 18.1655H18.3352L18.3867 18.2004L19.5106 21.0692L19.459 21.1432H19.0021L18.9506 21.1085L18.8126 20.7586L16.8133 21.1876L16.7465 21.1395C16.7383 21.0537 16.7298 20.9601 16.7298 20.8759C16.7298 19.9572 17.31 19.21 18.1245 19.0024L17.8267 18.2395ZM17.9587 18.2744L18.2503 19.0213L18.2106 19.094C17.4181 19.2668 16.8403 19.9811 16.8403 20.8759C16.8403 20.9358 16.845 21.0017 16.8508 21.068L18.8353 20.6423L18.8985 20.6757L19.0399 21.0343H19.3785L18.2973 18.2744H17.9587ZM17.2984 20.5896L18.635 20.303L18.3089 19.4671C17.7352 19.586 17.3487 20.0246 17.2984 20.5896ZM17.1835 20.656C17.2091 19.992 17.66 19.4696 18.3342 19.3513L18.3954 19.3854L18.7612 20.3232L18.7214 20.3959L17.2504 20.7113L17.1835 20.656Z" fill="#FCFCFC"/>
<path d="M19.459 21.0884L18.336 18.22H17.8782L18.1987 19.0396C17.3793 19.22 16.7846 19.9575 16.7846 20.8754C16.7846 20.9575 16.7928 21.0478 16.8011 21.1335L18.8474 20.6951L19.0012 21.0884H19.459ZM17.2378 20.6584C17.2629 20.0189 17.6952 19.5191 18.3442 19.4041L18.7101 20.3427L17.2378 20.6584Z" fill="#FCFCFC"/>
<path fill-rule="evenodd" clip-rule="evenodd" d="M19.8492 18.22L19.9044 18.1655H20.3202L20.3754 18.22V21.0888L20.3202 21.1432H19.9044L19.8492 21.0888V18.22ZM19.9597 18.2744V21.0343H20.2649V18.2744H19.9597Z" fill="#FCFCFC"/>
<path d="M19.904 18.22H20.3198V21.0884H19.904V18.22Z" fill="#FCFCFC"/>
<path fill-rule="evenodd" clip-rule="evenodd" d="M21.0134 18.22L21.0686 18.1655H21.4844L21.5251 18.1832L23.1348 19.9119V18.22L23.19 18.1655H23.6053L23.6605 18.22V21.0888L23.6053 21.1432H23.19L23.1348 21.0888V20.6273L21.5396 18.9172V21.0888L21.4844 21.1432H21.0686L21.0134 21.0888V18.22ZM21.1239 18.2744V21.0343H21.4291V18.7775L21.5251 18.7406L23.2307 20.5693L23.2453 20.6061V21.0343H23.55V18.2744H23.2453V20.0518L23.1493 20.0886L21.4601 18.2744H21.1239Z" fill="#FCFCFC"/>
<path d="M23.1896 18.22V20.0518L21.4844 18.22H21.0686V21.0884H21.4844V18.777L23.1896 20.6049V21.0884H23.6057V18.22H23.1896Z" fill="#FCFCFC"/>
<path fill-rule="evenodd" clip-rule="evenodd" d="M24.2994 18.22L24.3546 18.1655H26.3094L26.3647 18.22V18.6052L26.3094 18.6596H24.8256V19.4074H26.1836L26.2389 19.4618V19.847L26.1836 19.9015H24.8256V20.6491H26.3094L26.3647 20.7036V21.0888L26.3094 21.1432H24.3546L24.2994 21.0888V18.22ZM24.4099 18.2744V21.0343H26.2542V20.758H24.7704L24.7151 20.7036V19.847L24.7704 19.7926H26.1283V19.5163H24.7704L24.7151 19.4618V18.6052L24.7704 18.5507H26.2542V18.2744H24.4099Z" fill="#FCFCFC"/>
<path d="M26.309 18.6052V18.22H24.3542V21.0884H26.309V20.7032H24.7699V19.847H26.184V19.4618H24.7699V18.6052H26.309Z" fill="#FCFCFC"/>
<path fill-rule="evenodd" clip-rule="evenodd" d="M26.8781 18.22L26.9333 18.1655H28.8881L28.9433 18.22V18.6052L28.8881 18.6596H27.4038V19.4074H28.7627L28.818 19.4618V19.847L28.7627 19.9015H27.4038V20.6491H28.8881L28.9433 20.7036V21.0888L28.8881 21.1432H26.9333L26.8781 21.0888V18.22ZM26.9886 18.2744V21.0343H28.8328V20.758H27.3486L27.2933 20.7036V19.847L27.3486 19.7926H28.7075V19.5163H27.3486L27.2933 19.4618V18.6052L27.3486 18.5507H28.8328V18.2744H26.9886Z" fill="#FCFCFC"/>
<path d="M28.8878 18.6052V18.22H26.9329V21.0884H28.8878V20.7032H27.3486V19.847H28.7628V19.4618H27.3486V18.6052H28.8878Z" fill="#FCFCFC"/>
<path fill-rule="evenodd" clip-rule="evenodd" d="M11.5186 23.3424L11.5738 23.2879H11.9896L12.0449 23.3424V24.3421C12.0449 24.8006 12.1855 25.1537 12.4436 25.3926C12.7021 25.6319 13.0861 25.7634 13.5864 25.7634H13.6384V23.3424L13.6937 23.2879H14.1093L14.1646 23.3424V26.2112L14.1093 26.2656H13.5864C12.9382 26.2656 12.4199 26.0932 12.0633 25.7624C11.7062 25.4312 11.5186 24.9482 11.5186 24.3421V23.3424ZM11.6291 23.3968V24.3421C11.6291 24.9257 11.8092 25.3772 12.139 25.6831C12.4694 25.9895 12.9574 26.1567 13.5864 26.1567H14.0541V23.3968H13.7489V25.8179L13.6937 25.8723H13.5864C13.0673 25.8723 12.6529 25.7357 12.3679 25.4719C12.0824 25.2077 11.9343 24.8229 11.9343 24.3421V23.3968H11.6291Z" fill="#FCFCFC"/>
<path d="M13.6944 23.3424V25.8179H13.586C12.567 25.8179 11.9892 25.2811 11.9892 24.3424V23.3424H11.5731V24.3424C11.5731 25.531 12.3092 26.2112 13.586 26.2112H14.1102V23.3424H13.6944Z" fill="#FCFCFC"/>
<path fill-rule="evenodd" clip-rule="evenodd" d="M14.8039 23.3424L14.8591 23.2879H15.2665L15.3218 23.3424V24.5428H15.5833C15.9183 24.5428 16.1902 24.4383 16.3787 24.2404C16.5675 24.042 16.679 23.7431 16.679 23.3424L16.7342 23.2879H17.1504L17.2057 23.3424C17.2057 23.9428 16.9678 24.5081 16.4687 24.7554C17.0015 25.0059 17.2634 25.5842 17.2634 26.2112L17.2081 26.2656H16.792L16.7367 26.2112C16.7367 25.8562 16.6349 25.5571 16.4427 25.3474C16.2513 25.1385 15.965 25.0124 15.5833 25.0124H15.3218V26.2112L15.2665 26.2656H14.8591L14.8039 26.2112V23.3424ZM14.9144 23.3968V26.1567H15.2113V24.958L15.2665 24.9035H15.5833C15.9912 24.9035 16.3092 25.0392 16.5248 25.2745C16.7291 25.4975 16.8365 25.8047 16.8465 26.1567H17.1522C17.1364 25.5335 16.8488 24.9967 16.3087 24.8078L16.3082 24.7054C16.8146 24.522 17.0794 23.9978 17.0945 23.3968H16.7888C16.7791 23.791 16.6632 24.1008 16.4593 24.3149C16.2458 24.5391 15.9422 24.6517 15.5833 24.6517H15.2665L15.2113 24.5972V23.3968H14.9144Z" fill="#FCFCFC"/>
<path d="M16.3268 24.7565C16.8803 24.5557 17.1504 23.978 17.1504 23.3424H16.7347C16.7347 24.162 16.2769 24.5964 15.5824 24.5964H15.2665V23.3424H14.8587V26.2112H15.2665V24.9572H15.5824C16.3727 24.9572 16.7928 25.4818 16.7928 26.2112H17.2089C17.2089 25.5513 16.9133 24.9613 16.3268 24.7565Z" fill="#FCFCFC"/>
<path fill-rule="evenodd" clip-rule="evenodd" d="M17.7154 23.3424L17.7706 23.2879H20.0152L20.0705 23.3424V23.4659C20.0705 24.1144 19.7441 24.6102 19.246 24.8993L20.2795 26.1772L20.2363 26.2656H19.7287L19.6852 26.2448L18.772 25.0965C18.6006 25.1412 18.4212 25.1699 18.2329 25.1781V26.2112L18.1776 26.2656H17.7706L17.7154 26.2112V23.3424ZM17.8259 23.3968V26.1567H18.1223V25.1255L18.1763 25.071C18.388 25.0662 18.5879 25.0344 18.778 24.982L18.8364 25.0008L19.7556 26.1567H20.1216L19.1192 24.9172L19.136 24.8354C19.6329 24.5696 19.96 24.0964 19.96 23.4659V23.3968H17.8259ZM18.1223 23.7L18.1776 23.6455H19.5835L19.6381 23.7086C19.5286 24.3819 18.9649 24.8077 18.1776 24.8077L18.1223 24.7533V23.7ZM18.2329 23.7545V24.6981C18.9208 24.6795 19.3971 24.3145 19.5171 23.7545H18.2329Z" fill="#FCFCFC"/>
<path d="M19.7292 26.2112H20.2368L19.1637 24.8833C19.6751 24.609 20.0161 24.1169 20.0161 23.4655V23.3424H17.7702V26.2112H18.1776V25.1251C18.3942 25.121 18.5979 25.0884 18.7934 25.0353L19.7292 26.2112ZM18.1776 24.7524V23.6992H19.5836C19.4796 24.3424 18.9431 24.7524 18.1776 24.7524Z" fill="#FCFCFC"/>
<path fill-rule="evenodd" clip-rule="evenodd" d="M21.3622 23.3619L21.4138 23.2879H21.8707L21.9223 23.3228L23.0452 26.1916L22.9936 26.2656H22.5367L22.4852 26.2309L22.3476 25.881L20.3483 26.3099L20.2815 26.2621C20.2729 26.1761 20.2644 26.0826 20.2644 25.9982C20.2644 25.0796 20.8446 24.3325 21.6596 24.1248L21.3622 23.3619ZM21.4942 23.3968L21.7854 24.1437L21.7458 24.2164C20.9527 24.3893 20.3749 25.1035 20.3749 25.9982C20.3749 26.0582 20.3796 26.1242 20.3856 26.1905L22.3703 25.7647L22.4336 25.7982L22.5746 26.1567H22.9131L21.8328 23.3968H21.4942ZM20.8334 25.712L22.1705 25.4254L21.844 24.5895C21.2699 24.7084 20.8837 25.147 20.8334 25.712ZM20.7185 25.7784C20.7442 25.1144 21.1946 24.5921 21.8693 24.4737L21.9306 24.5078L22.2968 25.4456L22.257 25.5183L20.7855 25.8337L20.7185 25.7784Z" fill="#FCFCFC"/>
<path d="M22.9941 26.2112L21.8712 23.3424H21.4138L21.7338 24.162C20.9143 24.3424 20.3196 25.0799 20.3196 25.9982C20.3196 26.08 20.3279 26.1702 20.3365 26.2563L22.3829 25.8179L22.5367 26.2112H22.9941ZM20.7733 25.7809C20.7981 25.1417 21.2306 24.6414 21.8794 24.5269L22.2455 25.4651L20.7733 25.7809Z" fill="#FCFCFC"/>
<path fill-rule="evenodd" clip-rule="evenodd" d="M23.3842 23.3424L23.4395 23.2879H23.8552L23.9105 23.3424V26.2112L23.8552 26.2656H23.4395L23.3842 26.2112V23.3424ZM23.4947 23.3968V26.1567H23.8V23.3968H23.4947Z" fill="#FCFCFC"/>
<path d="M23.4391 23.3424H23.8552V26.2112H23.4391V23.3424Z" fill="#FCFCFC"/>
<path fill-rule="evenodd" clip-rule="evenodd" d="M24.5483 23.3424L24.6036 23.2879H25.0198L25.0605 23.3056L26.6702 25.0343V23.3424L26.7254 23.2879H27.1412L27.1965 23.3424V26.2112L27.1412 26.2656H26.7254L26.6702 26.2112V25.7497L25.075 24.0397V26.2112L25.0198 26.2656H24.6036L24.5483 26.2112V23.3424ZM24.6589 23.3968V26.1567H24.9645V23.8999L25.0605 23.8631L26.7661 25.6916L26.7807 25.7285V26.1567H27.0859V23.3968H26.7807V25.1742L26.6847 25.2111L24.9955 23.3968H24.6589Z" fill="#FCFCFC"/>
<path d="M26.725 23.3424V25.1742L25.0198 23.3424H24.6036V26.2112H25.0198V23.8999L26.725 25.7277V26.2112H27.1408V23.3424H26.725Z" fill="#FCFCFC"/>
<path fill-rule="evenodd" clip-rule="evenodd" d="M27.8344 23.3424L27.8896 23.2879H29.8444L29.8997 23.3424V23.7276L29.8444 23.782H28.3606V24.5298H29.7191L29.7744 24.5842V24.9694L29.7191 25.0239H28.3606V25.7715H29.8444L29.8997 25.826V26.2112L29.8444 26.2656H27.8896L27.8344 26.2112V23.3424ZM27.9449 23.3968V26.1567H29.7892V25.8804H28.3054L28.2501 25.826V24.9694L28.3054 24.915H29.6639V24.6387H28.3054L28.2501 24.5842V23.7276L28.3054 23.6731H29.7892V23.3968H27.9449Z" fill="#FCFCFC"/>
<path d="M29.844 23.7276V23.3424H27.8892V26.2112H29.844V25.826H28.3054V24.9694H29.7195V24.5842H28.3054V23.7276H29.844Z" fill="#FCFCFC"/>
</svg>
