<svg width="50" height="50" viewBox="0 0 50 50" fill="none" xmlns="http://www.w3.org/2000/svg">
<path d="M10.3571 8.69692L39.0227 8.69566C40.6282 8.69362 41.9031 8.90323 42.687 10.5951C42.7912 10.82 42.9173 11.1154 42.9296 11.3627L42.935 35.7265C42.9329 35.8797 42.9344 36.0754 42.8808 36.2184L42.7442 36.5987C42.0772 38.1709 40.9113 38.4418 39.3967 38.4438L30.8134 38.4468L29.6358 38.4499C29.6053 38.7967 29.6943 39.1955 29.7279 39.5436L29.9919 42.0327C30.0461 42.4101 30.1571 42.8539 30.147 43.2319L29.9937 43.3921C29.7788 43.5724 29.6975 43.4335 29.4943 43.3046L25.1305 40.526C25.1042 40.5098 24.983 40.4178 24.9689 40.4179C24.8353 40.4194 22.8759 41.7398 22.6019 41.915L20.9776 42.9307C20.145 43.454 19.7119 43.987 19.9236 42.4415L20.2135 39.6374C20.2565 39.2614 20.2296 38.8599 20.3283 38.4942L10.7114 38.4485C10.3382 38.4501 9.95015 38.4725 9.57911 38.4283C8.48524 38.298 7.50663 37.3646 7.19856 36.3153L7.09069 35.8616C7.04281 35.4621 7.07773 35.0241 7.07758 34.6205L7.07901 12.8458C7.07948 11.7187 7.03471 10.9448 7.77232 9.9852L8.03526 9.67995C8.71011 8.97163 9.42457 8.71109 10.3571 8.69692ZM20.6566 30.3163C20.6502 30.1918 20.4398 29.9864 20.3618 29.8749C19.4926 28.6341 19.0601 26.997 19.1742 25.4865C19.3857 22.6884 21.6557 20.1337 24.4118 19.7289C24.9898 19.6439 25.5959 19.6642 26.1765 19.7266C26.9422 19.8966 27.5494 20.0306 28.2661 20.3841L28.2727 20.221C28.0404 20.0825 27.7788 19.9255 27.5233 19.8368C26.1584 19.1496 24.4816 19.1602 23.0582 19.6449C18.9781 21.0344 17.4436 26.2611 20.1177 29.7173C20.2772 29.9234 20.4581 30.1479 20.6566 30.3163ZM20.8979 42.2333L22.0704 33.0699C22.1105 32.8219 22.1342 32.5867 22.2102 32.3456C23.5906 32.863 24.5991 33.3037 26.1151 33.033C26.8053 32.9098 27.4648 32.6666 28.136 32.4715L28.0869 32.0794C26.1603 32.8268 24.2857 33.0533 22.3263 32.168C22.2416 32.1297 21.9376 31.9503 21.8615 31.9665C21.7693 32.3708 21.7438 32.8012 21.6853 33.2125L20.8077 39.9695C20.7067 40.7878 20.5914 41.6243 20.5563 42.4485C20.6795 42.384 20.7893 42.322 20.8979 42.2333ZM25.388 38.7338C25.3293 39.0865 25.3606 39.4777 25.3646 39.8356C25.4588 39.9567 25.6217 40.0239 25.7464 40.1126C25.6237 39.7343 25.5631 39.0044 25.388 38.7338Z" fill="#3B3E57"/>
<path d="M20.4088 29.8913C20.2042 29.7251 20.0177 29.5036 19.8532 29.3003C17.0963 25.8905 18.6783 20.7341 22.885 19.3633C24.3524 18.8851 26.0813 18.8746 27.4885 19.5525C27.7519 19.64 28.0216 19.7949 28.2611 19.9315L28.2543 20.0925C27.5153 19.7437 26.8893 19.6115 26.0999 19.4438C25.5013 19.3822 24.8764 19.3622 24.2805 19.446C21.4389 19.8455 19.0985 22.3659 18.8805 25.1264C18.7628 26.6166 19.2088 28.2317 20.1049 29.4558C20.1854 29.5658 20.4023 29.7684 20.4088 29.8913Z" fill="url(#paint0_linear_57_2093)"/>
<path d="M8.00288 14.6653L7.66933 14.6739L7.6482 14.5352C7.58393 13.7821 7.59868 12.3362 7.68387 11.6109C7.84116 10.2718 8.79078 9.40229 10.1758 9.28535C10.7907 9.23343 11.4215 9.26047 12.0385 9.26031L38.737 9.25738C39.81 9.255 40.9639 9.0869 41.8475 9.81975C41.7414 9.85781 41.6367 9.76259 41.5344 9.73247C41.046 9.58895 40.5928 9.60336 40.0875 9.60282L34.665 9.60636C34.3733 9.61052 34.0845 9.65482 33.7899 9.65643L18.7026 9.60705L10.7378 9.63848C9.59695 9.7062 8.7652 9.98939 8.22747 11.1234C7.96008 11.6873 8.00838 12.299 8.00663 12.9013L8.00288 14.6653Z" fill="white"/>
<path d="M8.05613 36.413C7.6205 35.8609 7.60946 35.39 7.6084 34.7296L7.61218 15.2174L42.391 15.2307L42.3909 15.5837C41.3509 15.7203 40.2812 15.639 39.2334 15.6593L14.9812 15.6917L7.97146 15.6433L7.97465 35.2481C7.97479 35.5213 8.07432 36.2896 8.05613 36.413Z" fill="white"/>
<path d="M20.6523 41.9946L21.8335 32.7926C21.8738 32.5435 21.8977 32.3074 21.9742 32.0652C23.3648 32.5848 24.3806 33.0273 25.9076 32.7556C26.6029 32.6318 27.2672 32.3876 27.9433 32.1917C28.0724 32.6751 28.1442 33.1747 28.2222 33.6684L29.348 42.3913C28.8846 42.0351 25.5729 40.0387 25.5363 39.8649C25.4127 39.485 25.3517 38.7521 25.1752 38.4803C25.1212 38.1844 24.914 38.053 24.6191 38.0607C24.3923 38.3286 24.5969 39.4167 24.5134 39.5882C24.4967 39.6227 23.9073 39.9395 23.8115 39.9995L20.6523 41.9946Z" fill="#FA6564"/>
<path d="M20.5518 30.2932C20.5453 30.1678 20.3308 29.9608 20.2511 29.8484C19.3646 28.598 18.9234 26.9482 19.0398 25.426C19.2555 22.6062 21.5709 20.0317 24.3822 19.6237C24.9717 19.5381 25.59 19.5585 26.1821 19.6087C26.9631 19.7927 27.5824 19.9277 28.3135 20.284L28.3203 20.1196L28.7695 20.4241L29.1953 20.749C30.4712 21.753 31.2894 23.5598 31.4826 25.136C31.6799 26.7466 31.1115 28.4714 30.1183 29.7281C27.894 32.5423 23.6185 32.7971 20.8722 30.5894C20.781 30.5162 20.6101 30.3921 20.5518 30.2932Z" fill="#FA6564"/>
<path d="M28.2688 20.1087L28.8042 20.5399C28.7624 20.5815 28.7264 20.6211 28.6786 20.6522L28.2607 20.3415L28.2688 20.1087Z" fill="#FFC3C5"/>
<path d="M28.5608 25.0259L28.5872 25C28.7524 25.1541 28.9037 25.7118 28.7199 25.9082C28.3304 26.3247 27.6825 26.4453 27.6648 27.1228C27.6506 27.666 27.856 28.9388 27.5066 29.3478C27.3849 29.3485 27.1071 29.1147 26.9769 29.0451C26.4853 28.7822 25.949 28.568 25.4338 28.3586C24.9642 28.1676 24.309 29.1268 23.4047 29.1664L23.3691 29.124C23.4132 29 23.5435 28.8892 23.6469 28.8157C24.1293 28.6186 24.5828 28.1903 24.9996 27.8721C25.5772 28.1901 26.6834 28.7076 27.3195 28.9194C27.3815 28.4481 27.3356 27.8831 27.2623 27.4144L27.1716 26.8658C27.0525 26.1955 28.4801 25.785 28.5608 25.0259Z" fill="white"/>
<path d="M23.2754 28.7017L23.0611 28.6994C22.4129 28.6334 22.9742 26.9716 23.0955 26.6324L21.8115 25.3691C21.7463 25.2902 21.7301 25.2272 21.7437 25.1245C21.7986 24.7075 22.3044 24.7638 22.6053 24.7626L23.5652 24.7614C23.8919 24.7566 23.8215 24.7305 23.9222 24.4141L24.0847 23.971C24.3936 23.0929 24.8338 22.1668 25.3794 23.4815L25.7519 24.401C25.8042 24.5175 25.8377 24.6308 25.9077 24.7395L27.8767 24.7631C28.0698 24.772 28.1013 24.8556 28.238 24.9396L28.261 24.9515C28.1791 25.7026 26.7306 26.1089 26.8515 26.7721L26.9435 27.315C27.0179 27.7788 27.0645 28.3379 27.0015 28.8043C26.3562 28.5948 25.2338 28.0827 24.6479 27.7679C24.2249 28.0828 23.7648 28.5067 23.2754 28.7017Z" fill="#3B3E57"/>
<path d="M24.49 25.6575L24.5075 25.6311C24.8238 25.1393 24.8414 24.4415 25.1219 23.9131C25.3384 24.4645 25.4547 25.6878 26.13 25.7202C26.4466 25.7223 26.8705 25.667 27.174 25.7599L27.1524 25.7794C27.0576 25.8672 27.007 25.9887 26.9201 26.087C26.7276 25.9546 26.4521 25.9739 26.2319 25.9582L25.6391 25.9553C25.4374 25.8348 25.2733 25.5594 25.1262 25.3661C24.9978 25.5312 24.9106 25.7478 24.7595 25.8858L24.7422 25.9006L24.5849 26.0474C24.382 26.0491 24.0022 26.0313 23.9131 25.7821C23.9594 25.7203 24.2627 25.7299 24.3513 25.7207C24.4011 25.7083 24.4441 25.6818 24.49 25.6575Z" fill="white"/>
<path d="M24.481 25.4613L24.498 25.4484C24.6472 25.3294 24.7333 25.1425 24.8599 25C25.0052 25.1668 25.1672 25.4045 25.3662 25.5084L25.9512 25.5114C26.1686 25.5245 26.4405 25.5078 26.6305 25.622L26.2112 26.0163C26.0161 26.2136 26.1228 26.3636 26.1427 26.6146L26.1704 27.3478C25.6379 27.1272 25.2537 26.8945 24.7576 26.6116C24.2897 26.896 23.9619 27.3703 23.5378 27.7174L23.8598 26.2746C23.807 26.1741 22.9996 25.4067 22.8262 25.2823L24.0951 25.306C24.0077 25.314 23.7084 25.3057 23.6626 25.359C23.7506 25.574 24.1254 25.5894 24.3257 25.5879L24.481 25.4613Z" fill="url(#paint1_linear_57_2093)"/>
<path d="M7.6084 14.6035L7.61685 12.7272C7.6186 12.0904 7.57027 11.4435 7.83783 10.8473C8.37591 9.6481 9.20819 9.34865 10.3497 9.27705L18.3197 9.24381L33.4165 9.29603C33.7113 9.29432 34.0002 9.24748 34.2922 9.24308L39.7181 9.23933C40.2237 9.2399 40.6772 9.22467 41.166 9.37643C41.2683 9.40828 41.3731 9.50897 41.4793 9.46872C41.978 9.93028 42.3497 10.583 42.391 11.2851L42.3739 14.6739C42.0016 14.5688 41.5318 14.6091 41.1472 14.6084L7.6084 14.6035Z" fill="#FA6564"/>
<path d="M38.2989 11.4131C38.6299 11.4547 38.6782 12.249 38.4315 12.4792C38.1679 12.515 37.8911 12.4912 37.6257 12.4887L34.6039 12.4828C34.1467 12.482 33.5654 12.5886 33.1523 12.2808L33.1966 12.0866L37.5001 12.079C37.9749 12.079 38.2828 12.1817 38.2989 11.4131Z" fill="white"/>
<path d="M18.6561 11.4131C18.9264 11.5865 19.1393 11.8709 18.949 12.2177C18.732 12.6131 18.1218 12.4786 17.7781 12.4756L13.4905 12.4704C13.0744 12.4699 11.7654 12.5938 11.4361 12.3182L11.4131 12.2942C11.4347 12.206 11.4629 12.1857 11.5249 12.1317C12.1621 12.0557 12.8348 12.1 13.4764 12.1001L16.9428 12.1013C17.4076 12.1018 17.9044 12.1508 18.3647 12.1046C18.675 12.0734 18.6499 11.6647 18.6561 11.4131Z" fill="white"/>
<path d="M33.5461 11.9539L33.5261 11.9516C33.1773 11.8288 32.9284 11.4487 33.4578 11.423C33.8035 11.4062 34.1587 11.4229 34.5056 11.4241L37.7105 11.4265C37.9815 11.4267 38.4018 11.3532 38.5871 11.5476C38.5713 12.0164 38.267 11.9537 37.7979 11.9537L33.5461 11.9539Z" fill="#3B3E57"/>
<path d="M11.5525 11.9565C11.5049 11.9318 11.4686 11.9127 11.4532 11.8663L11.4471 11.8455C11.407 11.7129 11.4128 11.5811 11.4142 11.4459C11.9027 11.4169 12.3988 11.4284 12.8889 11.4282L17.2178 11.4306C17.5039 11.431 18.258 11.3616 18.4783 11.4962C18.4723 11.6588 18.4967 11.9227 18.1954 11.9428C17.7483 11.9727 17.2658 11.9411 16.8143 11.9407L13.4478 11.94C12.8247 11.9399 12.1713 11.9113 11.5525 11.9565Z" fill="#3B3E57"/>
<path d="M42.3566 15.7609L42.391 34.7996C42.3851 36.2069 41.7327 37.1559 40.2117 37.4013C39.808 37.4665 39.3484 37.4281 38.9387 37.4285L29.6299 37.431L29.4076 37.5L28.7651 33.0441C28.6846 32.5215 28.6327 31.9743 28.4893 31.4648L28.8678 31.21C30.3368 30.1917 31.4126 28.6063 31.7188 26.8528L31.7921 26.3386C32.0387 25.0674 31.6084 23.3574 31.0075 22.2552C30.9955 22.2507 30.8963 22.0767 30.8827 22.0551L30.5858 21.6057C29.3525 20.2188 28.8021 19.5468 26.8811 18.8646C22.8806 17.4436 18.2064 20.5314 17.9356 24.7286C17.9022 25.2472 17.8737 25.876 17.9609 26.3884L18.0305 26.7687C18.4612 28.524 19.1926 29.8418 20.6713 30.898C20.938 31.0884 21.018 31.042 20.9828 31.3486L20.1826 37.4915L10.3409 37.4295C9.29395 37.4289 8.36838 37.45 7.69388 36.4193C7.71224 36.297 7.61177 35.535 7.61162 35.2639L7.6084 15.82L14.6851 15.8679L39.169 15.8358C40.2268 15.8157 41.3067 15.8963 42.3566 15.7609Z" fill="#5FCAF3"/>
<path d="M30.4346 21.742C30.6826 21.705 30.8709 22.0374 30.978 22.1788L30.9776 22.181C30.9328 22.2119 30.8903 22.2354 30.8734 22.2826C30.8608 22.2789 30.7576 22.134 30.7435 22.1161L30.4346 21.742Z" fill="#9FE7FE"/>
<path d="M31.4132 22.4078C31.43 22.3496 31.4724 22.3207 31.517 22.2826C33.2746 25.0588 32.8741 28.6824 30.5783 31.0276C30.3339 31.2773 29.23 32.0823 29.1953 32.1389C29.1896 32.6572 29.3035 33.2172 29.387 33.7295L29.6843 35.6278C29.8181 36.4167 29.9874 37.1982 29.9848 38.0013L29.7559 38.0435L29.0903 33.4733C29.007 32.9373 28.9532 32.3761 28.8047 31.8536L29.1967 31.5922C30.7184 30.5478 31.8328 28.9218 32.1499 27.1233L32.2259 26.5959C32.4813 25.2921 32.0356 23.5383 31.4132 22.4078Z" fill="white"/>
<defs>
<linearGradient id="paint0_linear_57_2093" x1="19.2069" y1="22.3971" x2="25.3769" y2="25.5837" gradientUnits="userSpaceOnUse">
<stop stop-color="white" stop-opacity="0"/>
<stop offset="1" stop-color="#FFFCFC" stop-opacity="0.352941"/>
</linearGradient>
<linearGradient id="paint1_linear_57_2093" x1="26.5631" y1="25.8148" x2="23.214" y2="26.5997" gradientUnits="userSpaceOnUse">
<stop stop-color="#FFB44F"/>
<stop offset="1" stop-color="#FFDB68"/>
</linearGradient>
</defs>
</svg>
