<svg width="50" height="50" viewBox="0 0 50 50" fill="none" xmlns="http://www.w3.org/2000/svg">
<path d="M9.45004 9.58197C9.8945 9.54892 10.33 9.60971 10.7732 9.61736C11.6475 9.63236 12.5246 9.619 13.3993 9.61885C21.8997 9.61689 30.4003 9.62697 38.9008 9.61908C39.3753 9.61861 39.8711 9.56783 40.3419 9.59291C41.3717 9.64775 42.2988 10.5013 42.5564 11.4752C42.7144 12.0724 42.6548 12.7635 42.6548 13.3785C42.6551 21.067 42.6557 28.7557 42.6559 36.4443C42.656 36.986 42.6825 37.5431 42.6482 38.0829C42.5657 39.3811 41.6394 40.3728 40.3995 40.6953L40.2511 40.7235C39.5693 40.8187 38.8753 40.7924 38.1885 40.7925C29.332 40.7945 20.4756 40.7913 11.6192 40.7926C10.9743 40.7927 10.3107 40.8297 9.66895 40.7707C8.53309 40.6662 7.397 39.5206 7.25397 38.4103C7.1977 37.9733 7.22482 37.5107 7.22488 37.0703C7.22596 29.1992 7.23012 21.3283 7.22545 13.4574C7.22485 12.4595 7.05777 11.4384 7.71529 10.592C8.12856 10.06 8.77809 9.66361 9.45004 9.58197ZM8.2716 22.4767C8.23723 22.901 8.27614 23.3463 8.27668 23.7737C8.2816 27.8136 8.27715 31.8536 8.27707 35.8935C8.27699 36.6546 8.25879 37.4199 8.28067 38.1804C8.28848 38.4525 8.37043 39.043 8.34332 39.263L8.67051 39.6399C9.49371 40.3582 10.6805 40.1973 11.6922 40.1956C20.3641 40.1803 29.0363 40.1962 37.7082 40.1963C39.0268 40.1964 40.5521 40.4186 41.5074 39.2957C42.2759 38.3924 42.0377 37.0528 42.0371 35.9538C42.0351 32.6471 42.0354 29.3405 42.0369 26.0338C42.0375 24.8453 42.083 23.6396 41.9946 22.4549C40.8884 22.5905 39.7702 22.4964 38.6592 22.4915C36.7314 22.4831 34.7622 22.4979 32.8322 22.512C24.6463 22.5721 16.4579 22.498 8.2716 22.4767Z" fill="#3B3E57"/>
<path d="M7.88867 21.4353L7.89195 11.9753C8.01539 10.5368 9.09836 10.2713 10.265 10.2814C19.8961 10.3649 29.532 10.3185 39.1637 10.2841C40.1159 10.2807 40.9482 10.1345 41.6215 10.9822L41.5627 11.0072C41.4741 10.9542 41.3991 10.8813 41.3123 10.8252C40.6141 10.3742 39.5535 10.6065 38.7704 10.6089C29.4629 10.6375 20.1542 10.6203 10.8467 10.6072C10.4089 10.6066 9.88219 10.5563 9.4575 10.6603C8.11914 10.9881 8.22125 12.3453 8.22141 13.4188C8.22195 16.0905 8.20633 18.7627 8.2243 21.4343L7.88867 21.4353Z" fill="white"/>
<path d="M7.85449 22.152L41.9939 22.1656L41.9949 22.4549C40.8887 22.5905 39.7705 22.4964 38.6595 22.4915C36.7317 22.4831 34.7625 22.4979 32.8325 22.5121C24.6466 22.5721 16.4582 22.498 8.27191 22.4767C8.23754 22.901 8.27645 23.3464 8.27699 23.7737C8.28191 27.8136 8.27746 31.8536 8.27738 35.8935C8.2773 36.6546 8.2591 37.4199 8.28098 38.1804C8.28879 38.4525 8.37074 39.043 8.34363 39.263C7.7712 38.4664 7.87637 37.7052 7.87738 36.779C7.88098 33.3339 7.87918 29.8888 7.87887 26.4437C7.87871 25.0185 7.92504 23.5749 7.85449 22.152Z" fill="white"/>
<path d="M8.22449 21.4343C8.20652 18.7627 8.22215 16.0905 8.2216 13.4188C8.22144 12.3453 8.11933 10.9882 9.45769 10.6603C9.88238 10.5563 10.4091 10.6066 10.8469 10.6072C20.1544 10.6203 29.4631 10.6375 38.7706 10.6089C39.5537 10.6065 40.6143 10.3742 41.3125 10.8252C41.3993 10.8814 41.4743 10.9542 41.5629 11.0072L41.6217 10.9822C42.0521 11.4101 42.0353 12.1096 42.0368 12.6698L42.0309 21.4581C41.1372 21.4817 40.2407 21.4659 39.3464 21.4653C30.0809 21.4585 20.7735 21.5597 11.5121 21.4545C10.4223 21.4421 9.31136 21.5264 8.22449 21.4343Z" fill="#FA6564"/>
<path d="M19.51 19.5627L19.5375 19.8358L19.2617 19.7209L19.51 19.5627Z" fill="#B66F84"/>
<path d="M25.8484 13.4012L25.7617 13.2817C25.806 13.1723 25.8709 13.1073 25.9728 13.0491L26.0655 13.1487C25.9571 13.2181 25.897 13.2818 25.8484 13.4012Z" fill="#FB9F9D"/>
<path d="M25.9736 13.0491C26.0838 12.9983 26.2362 12.9262 26.3595 12.9751L26.4714 13.0427L26.446 13.2086L26.4214 13.1926C26.2897 13.1087 26.2162 13.1148 26.0664 13.1487L25.9736 13.0491Z" fill="#FFC1BF"/>
<path d="M31.0371 13.3413L31.1254 13.4093L31.1524 14.2898C31.0608 13.9657 31.0059 13.6792 31.0371 13.3413Z" fill="#FB9F9D"/>
<path d="M26.2298 19.736L26.7867 19.6236L26.6383 19.9409C26.4716 19.8983 26.3009 19.9052 26.1504 19.8073L26.2298 19.736Z" fill="#FB9F9D"/>
<path d="M31.0375 13.3414L30.874 12.9167L31.0525 12.8656C31.3693 12.8245 31.7932 12.8153 31.8338 13.2078C31.6585 13.1407 31.4203 13.0553 31.2379 13.1418L31.1257 13.4093L31.0375 13.3414Z" fill="white"/>
<path d="M29.0518 14.4458L29.0881 14.2436C29.2326 14.3126 30.4019 16.6265 30.2773 16.9177L30.2641 16.9437L29.0518 14.4458Z" fill="#FFC1BF"/>
<path d="M33.792 16.6821L34.2081 16.6799C35.1558 16.8347 36.2959 16.422 37.1066 17.0382L37.0443 17.0631C36.8732 17.0914 36.6291 16.9783 36.4493 16.9703C35.3381 16.9212 34.7389 17.3712 33.792 16.6821Z" fill="white"/>
<path d="M23.6785 13.4332L23.698 13.425C23.77 13.5819 24.0101 13.9683 23.9883 14.1003C23.7682 14.4813 21.3192 14.3339 20.8116 14.3337C20.459 14.3337 20.0921 14.3154 19.7417 14.3548C19.7343 14.6483 19.7777 15.725 19.6199 15.9215L19.5547 13.9738C20.168 13.9744 23.4168 14.0515 23.697 13.8672L23.6785 13.4332Z" fill="white"/>
<path d="M23.7952 18.8558C24.1694 19.0521 24.0023 19.8281 23.612 19.9371C23.4182 19.9911 19.783 19.8633 19.5373 19.8358L19.5098 19.5626C19.7933 19.375 23.3114 19.6415 23.5893 19.4266C23.7384 19.3113 23.7552 19.0314 23.7952 18.8558Z" fill="white"/>
<path d="M23.5423 16.0941C23.9089 16.2547 24.3455 16.7685 23.7283 16.9661C22.8877 17.2351 20.7505 16.8923 19.654 17.0205C19.7173 17.4134 19.7958 18.3546 19.7107 18.73L19.6071 18.6837C19.5268 18.488 19.5991 17.3292 19.6019 17.0394L19.5858 16.6961C20.2123 16.628 23.2108 16.7263 23.4721 16.5437C23.5722 16.4099 23.5467 16.2526 23.5423 16.0941Z" fill="white"/>
<path d="M26.7871 19.6236C27.3995 18.8951 28.4013 16.3629 28.8061 15.4431L29.0324 16.0511C28.883 16.7401 27.0457 20.0901 26.7886 20.2128L26.7207 20.2288L26.6387 19.9409L26.7871 19.6236Z" fill="white"/>
<path d="M38.2301 13.4297C38.3486 13.4668 38.4599 13.5302 38.5158 13.6468C38.9257 14.5024 37.7883 14.3631 37.3124 14.3416C36.7483 14.3159 35.1454 14.2726 34.6972 14.4416C34.0209 14.6968 34.0045 15.343 34.1949 15.9369L34.1655 15.9185C33.4683 15.461 33.6835 14.3429 34.4376 14.0846C34.9734 13.9011 36.5559 13.9584 37.2056 13.9812C37.6925 13.9983 38.3598 14.1653 38.2301 13.4297Z" fill="white"/>
<path d="M16.1105 13.1498L16.0205 13.1026L16.0878 13.0551C16.8963 12.8719 16.6968 14.6051 16.7107 15.088C16.7378 16.0194 16.7693 16.9487 16.7846 17.8803C16.793 18.3882 16.8613 18.9034 16.8468 19.41C16.8361 19.7891 16.4243 20.0895 16.0743 19.8535L16.0851 19.849C16.7163 19.5645 16.4069 18.1816 16.4052 17.5352C16.4037 16.9542 16.5032 13.4914 16.3454 13.1994L16.1105 13.1498Z" fill="white"/>
<path d="M31.851 13.2194L32.0311 13.2151C32.1232 13.2845 32.1514 13.399 32.1668 13.5088L32.2024 13.9224C32.2907 15.2123 32.2357 16.5085 32.248 17.8009C32.2532 18.3494 32.5783 20.0681 31.6267 20.087L31.4541 19.9331L31.6662 19.7613C32.0074 19.4097 31.9221 18.9194 31.9106 18.4746C31.8704 16.9349 31.9124 15.3871 31.9068 13.8464L31.851 13.2194Z" fill="white"/>
<path d="M31.8506 13.2194L32.0307 13.2151C32.1228 13.2845 32.1511 13.399 32.1664 13.5088L32.202 13.9224C32.1226 13.827 32.1306 13.6437 32.1054 13.5212L32.0079 13.4676C31.8872 13.5448 31.9666 13.6899 31.9232 13.8051L31.9064 13.8464L31.8506 13.2194Z" fill="#FFC1BF"/>
<path d="M38.0764 17.2863C38.9752 18.2966 38.2514 19.4622 37.1383 19.7918C36.7373 19.9105 34.3169 20.0201 33.9961 19.7116L34.068 19.5119C34.359 19.4565 34.6813 19.495 34.9779 19.5005C36.5679 19.5302 38.3482 19.3666 38.0764 17.2863Z" fill="white"/>
<path d="M33.6216 16.3608C32.5827 15.1942 33.2098 13.4469 34.7066 13.2981C35.2617 13.2429 35.8506 13.2793 36.4091 13.2792C36.8715 13.2791 37.866 13.1289 38.2305 13.4297C38.3602 14.1653 37.6929 13.9983 37.206 13.9812C36.5562 13.9584 34.9738 13.9011 34.438 14.0846C33.6839 14.3429 33.4687 15.461 34.1659 15.9185L34.1953 15.9369C34.9412 16.5343 37.1108 15.3045 38.0762 17.2863C38.348 19.3666 36.5676 19.5302 34.9776 19.5006C34.6811 19.495 34.3587 19.4565 34.0677 19.5119L33.8545 19.4849C33.6487 19.4106 33.5415 19.1313 33.6241 18.9352C34.2578 18.3178 36.4618 19.2794 37.2166 18.3274C37.5683 17.8838 37.5517 17.3924 37.1062 17.0382C36.2955 16.422 35.1554 16.8347 34.2076 16.6799C33.9823 16.5991 33.8128 16.5049 33.6216 16.3608Z" fill="#3B3E57"/>
<path d="M18.974 19.5681L18.9002 19.2715C18.8554 18.969 18.8694 18.6514 18.8691 18.3463C18.8676 16.8453 18.7814 15.3169 18.8931 13.8229C18.9162 13.5143 18.9276 13.3032 19.2781 13.2716C20.157 13.1922 21.5285 13.2797 22.4573 13.2811C22.7512 13.2816 23.4852 13.1674 23.6783 13.4332L23.6967 13.8672C23.4165 14.0515 20.1678 13.9745 19.5544 13.9739L19.6197 15.9215C20.2976 15.9506 23.0785 15.876 23.4752 16.0622L23.5424 16.0941C23.5469 16.2526 23.5724 16.4099 23.4722 16.5438C23.2109 16.7264 20.2124 16.628 19.5859 16.6961L19.6021 17.0394C19.5993 17.3292 19.5269 18.488 19.6072 18.6838L19.7108 18.73C20.4447 18.6742 23.3769 18.7285 23.7447 18.8404L23.7953 18.8559C23.7552 19.0314 23.7384 19.3114 23.5894 19.4267C23.3115 19.6415 19.7933 19.375 19.5098 19.5627L19.2615 19.7209L18.974 19.5681Z" fill="#3B3E57"/>
<path d="M16.1104 13.1498L16.3453 13.1995C16.5032 13.4914 16.4036 16.9542 16.4051 17.5352C16.4068 18.1816 16.7162 19.5645 16.0851 19.849L16.0743 19.8535C15.513 19.5541 15.2037 18.9419 14.8407 18.4455C14.3338 17.7523 13.8107 17.0703 13.3072 16.3748C13.0564 16.0282 12.8365 15.6578 12.5678 15.3248C12.5762 15.5475 12.5461 15.7721 12.5353 15.9947C12.4725 17.2767 12.6037 18.5752 12.5105 19.8514L12.3861 19.9015C12.2729 19.8985 12.1225 19.8174 12.039 19.7439C11.8561 19.6897 11.6422 19.6506 11.4975 19.5192C11.4525 19.4215 11.4993 15.4442 11.4976 15.0931C11.4952 14.5974 11.1285 12.9567 12.1116 13.3569L12.2629 13.4216C12.364 13.5432 12.4474 13.697 12.5345 13.8306C13.0379 14.6036 13.5119 15.3614 14.0803 16.0908C14.215 16.2638 14.3659 16.434 14.4883 16.615C14.6847 16.795 15.1445 17.3576 15.1986 17.616L15.1209 17.7388L15.7607 18.6822C15.7063 18.0014 15.7504 17.2116 15.7505 16.5204C15.7506 15.5482 15.7185 14.5686 15.7392 13.5974C15.7452 13.3156 15.83 13.2204 16.1104 13.1498Z" fill="#3B3E57"/>
<path d="M14.208 16.4969L14.2304 16.4257L14.4886 16.615C14.6851 16.795 15.1449 17.3576 15.1989 17.616L15.1213 17.7388L14.208 16.4969Z" fill="#FB9F9D"/>
<path d="M12.1123 13.3569L12.2636 13.4216C12.3646 13.5432 12.4481 13.697 12.5352 13.8306C13.0386 14.6036 13.5126 15.3614 14.081 16.0908C14.2157 16.2637 14.3666 16.434 14.4889 16.615L14.2307 16.4257L14.2083 16.4969C13.4773 15.4936 12.6221 14.4944 12.1123 13.3569Z" fill="white"/>
<path d="M12.1603 14.6939C12.3237 14.8954 12.4579 15.0889 12.5678 15.3248C12.5762 15.5475 12.5462 15.7721 12.5353 15.9947C12.4726 17.2767 12.6038 18.5752 12.5105 19.8514L12.3861 19.9015C12.2729 19.8985 12.1225 19.8173 12.0391 19.7439C12.2853 19.4959 12.1371 18.7713 12.1345 18.4489C12.1264 17.4427 12.0266 15.6513 12.1603 14.6939Z" fill="white"/>
<path d="M26.4708 13.0427C26.954 13.3291 26.834 14.3721 26.8348 14.8437C26.8362 15.7261 26.7991 16.5873 26.7566 17.4674L26.7189 18.2221C27.1064 17.6569 27.7524 16.3462 28.0432 15.6792C28.1921 15.3374 28.4832 14.0237 29.0518 14.4458L30.2642 16.9437C30.5281 17.5559 30.8573 18.0968 31.2488 18.6332L31.1521 14.2898L31.1251 13.4093L31.2372 13.1418C31.4196 13.0552 31.6579 13.1407 31.8332 13.2078L31.8507 13.2194L31.9064 13.8464C31.9121 15.3871 31.87 16.9348 31.9103 18.4746C31.9218 18.9194 32.0071 19.4097 31.6659 19.7612L31.4538 19.9331C31.3493 19.7918 31.2104 19.6626 31.098 19.5238C30.454 18.7277 29.8857 17.8655 29.4404 16.9419C29.304 16.6591 29.2061 16.3555 29.0501 16.0826L29.0318 16.0511L28.8055 15.4431C28.4007 16.3629 27.3989 18.8951 26.7865 19.6236L26.2296 19.736L25.9806 19.697C25.8088 19.4983 25.8676 13.993 25.8486 13.4012C25.8971 13.2818 25.9573 13.2181 26.0657 13.1487C26.2156 13.1148 26.2891 13.1087 26.4208 13.1926L26.4454 13.2086L26.4708 13.0427Z" fill="#3B3E57"/>
<path d="M26.4897 17.9063L26.5408 17.8753C26.6522 17.793 26.7323 17.5986 26.7564 17.4674L26.7186 18.2221L26.4814 18.6797L26.4897 17.9063Z" fill="#FFCDAE"/>
<path d="M26.4708 13.0427C26.954 13.3291 26.834 14.3721 26.8348 14.8437C26.8362 15.7261 26.7991 16.5873 26.7566 17.4674C26.7325 17.5986 26.6524 17.793 26.541 17.8753L26.4899 17.9063C26.4996 17.2807 26.559 13.5108 26.4453 13.2086L26.4708 13.0427Z" fill="white"/>
<path fill-rule="evenodd" clip-rule="evenodd" d="M15.2008 22.4603C12.8891 22.4501 10.5775 22.4398 8.26612 22.4338C8.24351 22.7129 8.25261 23.0011 8.26163 23.2873C8.26633 23.4362 8.27101 23.5846 8.2712 23.7309C8.27456 26.4853 8.27355 29.2398 8.27255 31.9943C8.27208 33.2798 8.27162 34.5653 8.27159 35.8507C8.27157 36.0876 8.26979 36.3249 8.26801 36.5623C8.26407 37.0877 8.26012 37.6137 8.27519 38.1376C8.27811 38.2396 8.29146 38.3863 8.30557 38.5415C8.32911 38.8003 8.35479 39.0826 8.33784 39.2202L8.66503 39.5971C9.36386 40.2069 10.3247 40.183 11.218 40.1608C11.377 40.1569 11.5338 40.153 11.6867 40.1527C17.4487 40.1426 23.2108 40.1462 28.9728 40.1498C31.8828 40.1516 34.7928 40.1535 37.7028 40.1535C37.8877 40.1535 38.0768 40.1579 38.2677 40.1623C39.4381 40.1895 40.6806 40.2183 41.5019 39.2529C42.1265 38.5188 42.0861 37.4965 42.0488 36.5494C42.0402 36.3311 42.0317 36.1168 42.0316 35.9109C42.0296 32.6043 42.0299 29.2977 42.0314 25.991C42.0316 25.6934 42.0346 25.3946 42.0375 25.0954C42.0464 24.1999 42.0554 23.3001 41.9891 22.4121C41.1921 22.5098 40.3889 22.4882 39.5866 22.4667C39.2753 22.4584 38.9642 22.45 38.6537 22.4487C36.7601 22.4404 34.8266 22.4546 32.9296 22.4685L32.8267 22.4692C26.9521 22.5123 21.0762 22.4863 15.2008 22.4603Z" fill="#5FCAF3"/>
<path d="M10 26.1953H23.623" stroke="#3B3E57"/>
<path d="M26 26.1953H39.623" stroke="#3B3E57"/>
<path d="M10 28.1953H23.623" stroke="white"/>
<path d="M10 30.1953H23.623" stroke="white"/>
<path d="M10 32.1953H23.623" stroke="white"/>
<path d="M10 34.1953H23.623" stroke="white"/>
<path d="M10 36.1953H23.623" stroke="white"/>
<path d="M26 28.1953H39.623" stroke="white"/>
<path d="M26 30.1953H39.623" stroke="white"/>
<path d="M26 32.1953H39.623" stroke="white"/>
<path d="M26 34.1953H39.623" stroke="white"/>
<path d="M26 36.1953H39.623" stroke="white"/>
</svg>
