<svg width="50" height="50" viewBox="0 0 50 50" fill="none" xmlns="http://www.w3.org/2000/svg">
<path d="M10.8942 8.56327C11.2677 8.52898 11.6761 8.56077 12.0533 8.56132L16.716 8.56413C17.1096 8.56437 17.5414 8.52773 17.9293 8.5882L17.9686 8.59484C18.7397 8.71601 19.1968 9.08156 19.7503 9.58085C21.0918 10.7909 21.8084 10.7163 23.4697 10.7168L36.1265 10.7176C37.2436 10.7185 38.101 10.7316 39.0608 11.4308L39.1653 11.5083C39.7537 11.9721 40.2497 12.8241 40.3415 13.5733C40.3856 13.9323 40.3526 14.2999 40.3964 14.66C40.8254 14.7066 42.4443 14.4887 42.486 14.9421C42.5273 15.3917 42.4952 15.8694 42.4956 16.323L42.4941 37.0109C42.4938 37.3918 42.5215 37.7986 42.4746 38.1753C42.2529 39.9512 40.6736 41.11 38.9708 41.2094L16.9907 41.2106C16.7054 41.2104 16.4101 41.2269 16.1273 41.1884C15.0155 41.0367 13.9483 40.0372 13.6941 38.9477C13.6153 38.6097 13.6087 38.2308 13.5998 37.884L11.4808 37.9082C9.77464 37.9103 8.41988 37.7618 7.59813 35.9112C7.5074 35.7069 7.45868 35.4991 7.38558 35.2911L7.364 35.2281C7.31004 35.0422 7.31203 34.8085 7.31106 34.6162L7.30701 12.8362C7.30392 11.8258 7.21754 11.2271 7.7361 10.2975C8.41433 9.08171 9.56668 8.56945 10.8942 8.56327Z" fill="#3B3E57"/>
<path d="M8.30082 14.7434L8.00293 14.75L8.00371 11.8635C8.00434 11.7002 7.99387 11.5134 8.04715 11.3572L8.16855 11.0015C8.88988 9.16429 10.5212 9.25586 12.1083 9.25484L17.6149 9.26359C17.901 9.27453 18.1357 9.33414 18.4025 9.43929C18.7664 9.5939 19.0436 9.88492 19.3327 10.146C19.2586 10.1949 19.1785 10.2315 19.0987 10.2702C18.8888 10.0508 18.7084 9.88414 18.4408 9.73351L18.2169 9.65C18.1216 9.61382 18.0337 9.5932 17.9319 9.58789L11.7693 9.58187C11.3757 9.58234 10.9627 9.55679 10.5743 9.62343C9.47004 9.81297 8.55848 10.5513 8.32738 11.6705C8.26285 11.9834 8.30082 12.3639 8.30129 12.6845L8.30082 14.7434Z" fill="white"/>
<path d="M19.3326 10.146C20.6757 11.3145 21.4195 11.4525 23.1416 11.4535L35.8027 11.4526C36.725 11.453 38.1233 11.3568 38.8186 12.098L38.7968 12.1009C38.7018 12.1014 38.5329 12.0031 38.4442 11.9651C38.0203 11.7833 37.5394 11.7319 37.0833 11.7277L24.1599 11.7266C22.1795 11.7242 20.6112 11.7598 19.0986 10.2702C19.1784 10.2315 19.2585 10.1949 19.3326 10.146Z" fill="url(#paint0_linear_140_1274)"/>
<path d="M14.5941 39.3265C14.3429 38.8767 14.3494 38.5018 14.3497 38.0065L14.355 21.626C14.3555 20.6009 14.2851 19.7161 14.9414 18.8444C15.9896 17.4521 17.7098 17.6044 19.26 17.6033L29.0746 17.6069C29.1133 17.6086 29.1315 17.6159 29.1618 17.6395L29.1743 17.8687L19.3202 17.8619C17.3212 17.8615 15.151 17.9089 14.6282 20.2841C14.5208 20.7716 14.5698 21.3527 14.5693 21.8518L14.5679 38.4778C14.569 38.749 14.5551 39.0305 14.6091 39.2975L14.5941 39.3265Z" fill="white"/>
<path d="M8.3907 35.8956C8.03922 35.2572 8.00328 34.751 8.00305 34.0484L7.99609 15.4145L40.1613 15.4164C40.4062 15.4163 41.6983 15.3795 41.7957 15.4448L41.8049 15.6331C41.2762 15.6967 40.7461 15.6844 40.2153 15.6848L29.187 15.733L8.30078 15.6929L8.29398 35.0098C8.2957 35.2505 8.40719 35.7492 8.3907 35.8956Z" fill="white"/>
<path d="M29.8869 18.4138L35.9114 23.6195C36.1913 23.862 36.4971 24.1075 36.724 24.4019L36.707 24.4451L31.547 24.4447C31.2422 24.4495 30.8704 24.4966 30.5784 24.4064L30.5424 24.3944C29.8756 24.177 29.884 23.7624 29.8828 23.1837L29.8869 18.4138Z" fill="#5FCAF3"/>
<path d="M8.33047 14.7004L8.30156 12.6845C8.30109 12.3639 8.26312 11.9834 8.32765 11.6706C8.55875 10.5513 9.47031 9.81298 10.5746 9.62344C10.963 9.5568 11.3759 9.58235 11.7695 9.58188L17.9322 9.5879C18.034 9.59321 18.1219 9.61383 18.2172 9.65001L18.4411 9.73352C18.7087 9.88415 18.8891 10.0508 19.099 10.2702C20.6116 11.7599 22.1798 11.7242 24.1602 11.7266L37.0837 11.7277C37.5398 11.732 38.0206 11.7833 38.4445 11.9651C38.5333 12.0031 38.7022 12.1014 38.7971 12.1009L38.8189 12.0981C39.6084 12.63 39.751 13.7899 39.7384 14.6649L8.33047 14.7004Z" fill="#FA6564"/>
<path d="M17.172 13.1381L17.2075 13.1241C17.2814 13.3022 17.2922 13.5413 17.3346 13.7329L17.1668 13.7573C17.1419 13.7179 17.1331 13.6877 17.124 13.6421C17.1546 13.4703 17.1667 13.3123 17.172 13.1381Z" fill="#FEA1A3"/>
<path d="M17.3556 11.1298C17.4902 11.2771 17.3713 11.8158 17.3208 11.9848C16.5555 12.0603 16.0473 12.0771 15.2656 12.0756L13.5239 12.0866C13.0076 12.0866 12.4334 12.1389 11.9267 12.0537L10.9551 11.858C11.1759 11.7909 11.4034 11.7424 11.6335 11.7248L16.4859 11.7204C17.5839 11.7109 17.0342 11.5895 17.3354 11.1523L17.3556 11.1298Z" fill="white"/>
<path d="M11.9342 13.7648L16.5903 13.8021C16.8052 13.8412 17.2252 13.7667 17.4012 13.8973C17.4156 13.9963 17.4135 14.1055 17.3272 14.1723L17.3267 14.3677C17.1724 14.2945 17.102 14.1573 16.9045 14.1977C16.6314 14.2535 16.3425 14.2437 16.0648 14.2445L15.0015 14.2465C14.3973 14.2465 13.7745 14.2749 13.1725 14.2381C12.919 14.2226 12.6714 14.1609 12.4148 14.1491C12.0154 14.1307 11.7969 14.2141 11.4395 13.9956L11.6313 13.8012L11.9342 13.7648Z" fill="#FEB68A"/>
<path d="M11.6305 13.8012C11.0171 13.8813 10.9785 13.1285 11.299 12.7788C11.591 12.7631 11.8361 12.7741 12.1119 12.8796C12.1193 12.9937 12.1286 13.0677 12.2035 13.1598L12.8622 13.1677L16.626 13.1261C16.7481 13.1231 17.075 13.0747 17.1711 13.1354C17.1658 13.3123 17.1538 13.4703 17.1232 13.6421L17.1121 13.7472C16.9944 13.827 16.7366 13.8006 16.5896 13.814L11.9335 13.7965L11.6305 13.8012Z" fill="#3B3E57"/>
<path d="M11.6332 11.7256C11.4087 11.7227 11.1813 11.7328 10.9741 11.6333C10.8343 11.4816 10.8089 11.205 10.925 11.0325C11.2017 10.9591 11.5575 10.9901 11.8443 10.9872L15.9004 10.9887C16.1613 10.9895 17.1902 10.9041 17.3554 11.0895L17.3351 11.1523C17.0339 11.5895 17.5836 11.7109 16.4856 11.7204L11.6332 11.7256Z" fill="#3B3E57"/>
<path d="M41.8049 15.6416L41.8257 24.5012C40.8421 24.4426 39.8342 24.4862 38.8479 24.4862C38.577 24.4861 37.8943 24.6112 37.7067 24.3963L37.6724 24.3506C37.554 24.1914 37.38 24.0468 37.2321 23.9137L30.1203 17.658C29.7805 17.3394 29.5746 16.8927 29.0465 16.8691L18.9407 16.8521C18.2036 16.8526 17.4039 16.7975 16.6802 16.9518C14.9108 17.3291 13.706 18.7617 13.686 20.5486L13.6135 37.1671C12.9767 37.258 12.2771 37.2079 11.6322 37.2101L10.7164 37.2127C9.72605 37.2146 8.86059 36.8392 8.39066 35.8956C8.40715 35.7492 8.29566 35.2505 8.29395 35.0098L8.30074 15.6929L29.1869 15.733L40.2153 15.6848C40.7461 15.6844 41.2762 15.6967 41.8049 15.6416Z" fill="#FA6564"/>
<path d="M14.5941 39.3265L14.6092 39.2975C14.5552 39.0305 14.569 38.749 14.5679 38.4778L14.5693 21.8518C14.5698 21.3527 14.5209 20.7716 14.6282 20.2841C15.151 17.9089 17.3213 17.8615 19.3202 17.8619L29.1743 17.8641C29.1762 18.1901 29.2065 18.5328 29.207 18.8568L29.2067 22.8119C29.205 23.6364 29.1672 24.3084 29.9172 24.8624C29.9661 24.8986 30.0738 24.949 30.106 24.9912C30.6436 25.2518 31.0948 25.2047 31.6783 25.2046L41.1203 25.203C41.3349 25.2037 41.5957 25.1764 41.8019 25.2236L41.8131 37.7603C41.7435 39.2832 40.5344 40.4699 38.9899 40.5238L16.4487 40.5196C15.7088 40.4823 14.926 39.9906 14.5941 39.3265Z" fill="#5FCAF3"/>
<path d="M39.8841 36.2786C40.065 36.5966 39.3652 37.0886 39.1619 37.2945C38.9017 37.558 37.4126 39.1727 37.1539 39.0408L37.1113 38.8506C37.3405 38.7541 37.5814 38.4721 37.7552 38.2946L38.9225 37.093C39.189 36.8237 39.5265 36.4181 39.8841 36.2786Z" fill="white"/>
<path d="M28.2379 27.8183C28.3519 28.0409 28.3096 28.1386 28.1505 28.3195L25.6566 30.8906C25.4417 31.1037 25.1604 31.6272 24.8926 31.1898L24.902 31.1738C25.0704 31.0809 25.2066 30.9008 25.3348 30.7586L27.2495 28.763C27.5727 28.4394 27.9235 28.1517 28.2379 27.8183Z" fill="white"/>
<path d="M37.1105 38.8506C36.7591 38.832 36.5555 38.4364 36.9087 38.0819L38.3331 36.5973C38.7723 36.1347 39.6304 34.9559 39.9125 36.2427L39.8833 36.2786C39.5257 36.4181 39.1882 36.8237 38.9217 37.093L37.7544 38.2946C37.5806 38.4721 37.3397 38.7541 37.1105 38.8506Z" fill="#3B3E57"/>
<path d="M30.106 24.9912C30.6436 25.2518 31.0948 25.2047 31.6783 25.2046L41.1204 25.203C41.335 25.2037 41.5957 25.1764 41.8019 25.2236L41.7891 25.4113C41.6889 25.4667 41.5437 25.4664 41.4311 25.4703L32.4186 25.477C31.9761 25.4769 30.3116 25.5734 30.0537 25.0855L30.106 24.9912Z" fill="white"/>
<path d="M31.2943 31.723C31.4903 32.1365 31.1088 32.3629 30.8396 32.6442L24.4822 39.0149C24.313 39.1671 24.1377 39.3941 23.8896 39.3823L23.8506 39.2825L31.2943 31.723Z" fill="white"/>
<path d="M24.9023 31.1738C24.4119 30.8016 24.2154 30.7577 24.7105 30.2768L27.4548 27.4654C27.8475 27.0807 28.1273 27.3969 28.2382 27.8183C27.9238 28.1517 27.573 28.4394 27.2498 28.7631L25.3351 30.7586C25.2069 30.9008 25.0707 31.0809 24.9023 31.1738Z" fill="#3B3E57"/>
<path d="M23.8497 39.2825C23.661 39.296 23.3302 39.1322 23.29 38.9282C23.3463 38.7456 23.4894 38.6053 23.6158 38.4674L30.3947 31.6272C30.6632 31.3521 30.9957 30.9424 31.2969 31.4758C31.3462 31.563 31.3198 31.6343 31.2935 31.723L23.8497 39.2825Z" fill="#3B3E57"/>
<defs>
<linearGradient id="paint0_linear_140_1274" x1="28.8945" y1="9.97518" x2="29.0157" y2="12.4125" gradientUnits="userSpaceOnUse">
<stop stop-color="#FDCAD0"/>
<stop offset="1" stop-color="#FFFEF8"/>
</linearGradient>
</defs>
</svg>
