<svg width="50" height="50" viewBox="0 0 50 50" fill="none" xmlns="http://www.w3.org/2000/svg">
<path d="M11.0402 7.3091C11.558 7.27718 12.0813 7.30789 12.5998 7.30842L31.7384 7.30596C35.4497 7.29135 34.8404 9.63434 34.8984 12.4905C36.1688 12.4706 37.7955 12.4148 39.0491 12.5086C41.0863 12.6611 41.1917 14.2772 41.1918 15.7887L41.1923 38.5839C41.1928 39.1407 41.222 39.7164 41.1792 40.271C41.0879 41.4555 40.0429 42.4261 38.8345 42.3241L19.63 42.3223C18.3503 42.3209 16.9042 42.5234 16.4085 40.8486C16.2133 40.1889 16.2648 37.7836 16.2947 36.9157L12.746 36.9164C12.0526 36.9166 11.2755 36.9821 10.5966 36.8402C8.83196 36.4714 8.75672 34.8122 8.75985 33.4229L8.76126 11.2661C8.76149 9.52481 8.64922 7.57567 11.0402 7.3091ZM9.84633 35.6932C9.61243 34.6611 9.71071 33.1806 9.70969 32.1009L9.7068 12.0211C9.70641 9.70707 9.19766 8.31637 12.0066 8.23262C13.3303 8.19309 14.6664 8.22918 15.9911 8.2291L32.032 8.22762C32.904 8.22254 33.3266 8.12871 33.9851 8.74043L34.0226 8.73332C33.3445 7.58401 31.8796 7.91004 30.7575 7.90989L13.0352 7.9091C11.7951 7.90871 9.80774 7.63316 9.4329 9.2391C9.34829 9.60137 9.38524 10.0385 9.38563 10.4104L9.38696 32.7191C9.38618 33.5773 9.16876 35.0362 9.84633 35.6932Z" fill="#3D3D57"/>
<path d="M17.3766 41.3528C16.7951 40.7004 16.9614 40.275 16.9617 39.5257L16.9614 16.4216C16.9614 15.8921 16.9345 15.3434 16.9863 14.8168C17.1706 12.9414 19.1556 13.1523 20.457 13.16L37.2295 13.1087C38.2539 13.1027 39.3346 12.832 40.1564 13.5901C40.0275 13.6223 39.7821 13.4926 39.6427 13.4555C38.9075 13.26 38.0837 13.4532 37.3353 13.4757C35.851 13.5202 34.3523 13.4799 32.8667 13.48L20.5155 13.4797C17.9477 13.4766 17.2527 13.4479 17.3003 16.1736L17.2507 39.7687C17.2526 40.3154 17.3838 40.941 17.3766 41.3528Z" fill="#FEFEFE"/>
<path d="M9.84566 35.6932C9.61176 34.6611 9.71004 33.1806 9.70902 32.1009L9.70613 12.0211C9.70574 9.70708 9.19699 8.31637 12.0059 8.23262C13.3296 8.19309 14.6657 8.22918 15.9904 8.22911L32.0314 8.22762C32.9033 8.22254 33.326 8.12872 33.9844 8.74043L34.0219 8.73333C34.3972 9.28122 34.306 10.0451 34.3058 10.6724L34.3043 12.5482C33.8313 12.4874 33.3597 12.5006 32.884 12.5039L20.8071 12.5673C20.0337 12.5594 19.224 12.5065 18.4549 12.5934C16.5388 12.8099 16.4046 14.5462 16.4045 16.01L16.4056 33.9917C16.4053 34.772 16.2729 35.5604 16.294 36.3351L12.4747 36.3343C11.6591 36.3342 10.3464 36.5561 9.84566 35.6932Z" fill="#FC6362"/>
<path d="M17.3759 41.3529C17.383 40.941 17.2519 40.3154 17.25 39.7687L17.2995 16.1736C17.252 13.4479 17.947 13.4766 20.5148 13.4797L32.8659 13.48C34.3516 13.4799 35.8503 13.5202 37.3345 13.4757C38.083 13.4532 38.9068 13.26 39.642 13.4555C39.7814 13.4926 40.0268 13.6223 40.1556 13.5901C40.8334 14.2214 40.633 16.0274 40.633 16.8929L40.6331 38.9191C40.632 41.6024 40.3317 41.7482 37.6607 41.7454L18.7993 41.7462C18.2895 41.7498 17.7156 41.8473 17.3759 41.3529Z" fill="#60CAEF"/>
<path d="M24.75 18.7037L24.7849 18.6969C24.8923 18.8039 24.9224 18.714 24.8797 18.5983C24.9921 18.664 25.0923 19.1425 25.1133 19.3082H24.9631C24.9166 19.0954 24.8402 18.9013 24.75 18.7037Z" fill="#BDEFFA"/>
<path d="M36.4766 30.2425C36.6691 30.3389 37.0123 30.4838 36.8364 30.7489C36.7624 30.6572 36.588 30.6696 36.4766 30.651C36.5058 30.5151 36.5073 30.378 36.4766 30.2425Z" fill="#BDEFFA"/>
<path d="M36.4761 17.4117L36.4946 17.3994C36.6149 17.4285 36.7424 17.4471 36.7997 17.573C37.0759 18.1809 35.0663 18.0176 34.8834 18.0176L32.2207 18.0163C31.8532 18.0163 30.4784 18.1004 30.2207 17.9365C29.9133 17.741 29.8791 17.2982 30.3294 17.2886L30.365 17.3253C30.2923 17.926 31.3017 17.727 31.7745 17.7273L35.2384 17.7284C35.6098 17.729 36.5356 17.9083 36.4761 17.4117Z" fill="#FEFEFE"/>
<path d="M36.5426 21.9321C36.554 21.8281 36.5385 21.7258 36.5276 21.6223C36.7981 21.5453 37.2143 21.9625 36.664 22.3096C36.2608 22.5639 32.3968 22.4469 31.7654 22.4351C31.6667 22.4333 30.351 22.4069 30.315 22.3965C29.8967 22.2746 29.8765 21.4368 30.3664 21.7552C30.3076 22.2682 31.2055 22.0941 31.6042 22.0938L35.1365 22.093C35.4052 22.0938 36.4051 22.2201 36.5426 21.9321Z" fill="#FEFEFE"/>
<path d="M30.634 21.4605C31.832 21.43 33.0393 21.4601 34.2384 21.4597H35.5342C36.0795 21.46 36.5075 21.2762 36.5422 21.9321C36.4047 22.2201 35.4049 22.0938 35.1362 22.0929L31.6038 22.0938C31.2052 22.0941 30.3073 22.2682 30.366 21.7552C30.4483 21.6487 30.5251 21.5417 30.634 21.4605Z" fill="#3D3D57"/>
<path d="M30.3651 17.3253C30.6797 16.8667 31.6901 17.0687 32.2333 17.0686C32.7112 17.0686 36.0916 16.9839 36.3044 17.1279C36.3899 17.1858 36.4362 17.3204 36.4762 17.4117C36.5357 17.9082 35.6098 17.729 35.2385 17.7284L31.7746 17.7273C31.3018 17.727 30.2923 17.926 30.3651 17.3253Z" fill="#3D3D57"/>
<path d="M36.4773 35.0048C36.6159 34.9637 36.6307 34.8354 36.7902 34.9063C37.1709 35.7869 32.9639 35.4492 32.2334 35.4493L23.4227 35.447C23.0573 35.4479 22.2154 35.5095 21.91 35.42C21.5187 35.3053 21.3923 34.89 21.8208 34.7491C21.9052 35.1393 21.9962 35.1182 22.3941 35.129C23.1577 35.1498 23.9268 35.13 24.6908 35.1298L33.7776 35.1314C34.1858 35.1315 36.2778 35.2541 36.4773 35.0048Z" fill="#FEFEFE"/>
<path d="M21.8205 31.0703C21.5401 30.8284 21.4622 30.525 21.8205 30.353C21.8877 30.6923 21.9277 30.7264 22.2701 30.7425C22.9497 30.7744 23.6405 30.7492 24.3213 30.7492L34.0887 30.7486C34.5283 30.7487 36.2088 30.8782 36.4769 30.651C36.5884 30.6696 36.7628 30.6572 36.8368 30.7489C36.4933 31.2681 35.2427 31.072 34.7055 31.0715L21.8205 31.0703Z" fill="#FEFEFE"/>
<path d="M21.5801 26.2532C21.6437 26.1341 21.69 26.054 21.8194 26.0039C21.8998 26.5448 22.3948 26.3834 22.7986 26.3828L35.4755 26.3796C35.8512 26.3785 36.5911 26.6055 36.5409 26.0039C36.8757 26.1247 37.1081 26.31 36.6423 26.5684C36.1794 26.8252 34.6187 26.7162 34.0704 26.7162L30.9425 26.7161C29.9914 26.716 22.1245 26.769 21.8714 26.6657C21.6989 26.5954 21.6427 26.4121 21.5801 26.2532Z" fill="#FEFEFE"/>
<path d="M21.8203 30.353C22.3985 29.8936 24.1933 30.1035 25.009 30.104L35.415 30.1034C35.7331 30.1036 36.2152 30.02 36.4768 30.2425C36.5075 30.378 36.506 30.5151 36.4768 30.651C36.2087 30.8783 34.5281 30.7487 34.0886 30.7486L24.3212 30.7492C23.6403 30.7492 22.9495 30.7744 22.2699 30.7425C21.9276 30.7264 21.8876 30.6923 21.8203 30.353Z" fill="#3D3D57"/>
<path d="M21.8203 34.7491L21.8405 34.7236C22.1749 34.2965 22.7091 34.4564 23.2694 34.4563L31.6816 34.4567C32.1752 34.4567 36.1736 34.4012 36.3249 34.54C36.4373 34.643 36.4582 34.8625 36.4768 35.0048C36.2773 35.2541 34.1853 35.1315 33.7771 35.1314L24.6903 35.1298C23.9263 35.13 23.1572 35.1498 22.3936 35.129C21.9957 35.1182 21.9048 35.1393 21.8203 34.7491Z" fill="#3D3D57"/>
<path d="M21.8203 26.0039C22.166 25.5267 22.8004 25.7069 23.4077 25.7066L35.3182 25.7062C35.7506 25.7055 36.3085 25.5392 36.5419 26.0039C36.592 26.6055 35.8522 26.3786 35.4765 26.3796L22.7995 26.3828C22.3958 26.3834 21.9008 26.5448 21.8203 26.0039Z" fill="#3D3D57"/>
<path d="M20.8087 20.9682C20.7736 20.8568 20.6809 20.7232 20.631 20.6121C19.6393 18.4045 22.8536 16.0696 24.7504 18.7037C24.8406 18.9013 24.9169 19.0954 24.9635 19.3082H25.1136C25.5003 20.6161 24.9759 20.4779 24.7504 21.3183C24.932 21.5648 25.7661 22.2816 25.7159 22.553C25.6071 23.1414 24.688 22.133 24.5915 22.0925C24.0057 22.1046 24.4209 21.8205 23.5647 22.1849C22.4983 22.6386 20.6097 21.7207 20.8087 20.9682Z" fill="#3D3D57"/>
<path d="M24.2372 19.3829C24.2631 19.5585 24.2254 19.695 24.3745 19.8257C24.3152 20.0986 24.2338 20.3 24.0692 20.527C23.9955 20.4379 23.9148 20.35 23.8496 20.2547C24.1216 19.9729 24.2159 19.7762 24.2372 19.3829Z" fill="#F8B6C1"/>
<path d="M24.9641 19.3082H25.1142C25.5009 20.6161 24.9765 20.4779 24.7509 21.3183C24.6606 21.2262 24.5577 21.1434 24.4609 21.0581C24.9417 20.6044 25.0782 19.9479 24.9641 19.3082Z" fill="#FEFEFE"/>
<path d="M24.5923 22.0925C24.0064 22.1046 24.4217 21.8205 23.5655 22.1849C22.4991 22.6387 20.6105 21.7207 20.8095 20.9683C21.5282 21.9495 23.1491 22.4822 23.9941 21.4605C24.2302 21.6306 24.4089 21.8694 24.5923 22.0925Z" fill="#FEFEFE"/>
<path d="M21.6765 21.0581C20.8819 20.4049 20.9028 19.2112 21.7048 18.5507C22.7848 17.6611 24.5102 18.3882 24.3738 19.8258C24.2247 19.6951 24.2624 19.5585 24.2365 19.3829C23.4955 17.5354 20.9814 18.7401 21.5605 20.6804C21.5961 20.7997 21.6606 20.9366 21.6765 21.0581Z" fill="#FEFEFE"/>
<path d="M21.6765 21.0581C21.6605 20.9366 21.5961 20.7996 21.5604 20.6803C20.9813 18.7401 23.4954 17.5354 24.2365 19.3829C24.2151 19.7762 24.1209 19.9728 23.8489 20.2547C23.7067 20.0968 23.2601 19.6832 23.3203 20.1969C23.3512 20.4605 23.5878 20.8567 23.5268 21.1C23.1034 21.6489 22.1399 21.4205 21.6765 21.0581Z" fill="#FC6362"/>
</svg>
