<svg width="50" height="50" viewBox="0 0 50 50" fill="none" xmlns="http://www.w3.org/2000/svg">
<path d="M11.0402 7.30941C11.558 7.27749 12.0813 7.3082 12.5998 7.30873L31.7384 7.30627C35.4497 7.29165 34.8404 9.63464 34.8984 12.4908C36.1688 12.4709 37.7955 12.4151 39.0491 12.5089C41.0863 12.6614 41.1917 14.2775 41.1918 15.789L41.1923 38.5842C41.1928 39.141 41.222 39.7167 41.1792 40.2713C41.0879 41.4558 40.0429 42.4264 38.8345 42.3244L19.63 42.3226C18.3503 42.3212 16.9042 42.5237 16.4085 40.8489C16.2133 40.1893 16.2648 37.7839 16.2947 36.916L12.746 36.9168C12.0526 36.9169 11.2755 36.9825 10.5966 36.8405C8.83196 36.4717 8.75672 34.8125 8.75985 33.4232L8.76126 11.2664C8.76149 9.52511 8.64922 7.57598 11.0402 7.30941ZM9.84633 35.6935C9.61243 34.6614 9.71071 33.1809 9.70969 32.1012L9.7068 12.0214C9.70641 9.70738 9.19766 8.31667 12.0066 8.23292C13.3303 8.19339 14.6664 8.22949 15.9911 8.22941L32.032 8.22792C32.904 8.22285 33.3266 8.12902 33.9851 8.74074L34.0226 8.73363C33.3445 7.58432 31.8796 7.91035 30.7575 7.91019L13.0352 7.90941C11.7951 7.90902 9.80774 7.63346 9.4329 9.23941C9.34829 9.60167 9.38524 10.0388 9.38563 10.4107L9.38696 32.7194C9.38618 33.5776 9.16876 35.0365 9.84633 35.6935Z" fill="#3D3D57" fill-opacity="0.3"/>
<path d="M17.3766 41.3526C16.7951 40.7002 16.9614 40.2747 16.9617 39.5255L16.9614 16.4214C16.9614 15.8918 16.9345 15.3431 16.9863 14.8166C17.1706 12.9412 19.1556 13.1521 20.457 13.1598L37.2295 13.1085C38.2539 13.1024 39.3346 12.8317 40.1564 13.5899C40.0275 13.6221 39.7821 13.4924 39.6427 13.4553C38.9075 13.2597 38.0837 13.453 37.3353 13.4754C35.851 13.5199 34.3523 13.4796 32.8667 13.4797L20.5155 13.4795C17.9477 13.4763 17.2527 13.4477 17.3003 16.1734L17.2507 39.7685C17.2526 40.3152 17.3838 40.9407 17.3766 41.3526Z" fill="#FEFEFE" fill-opacity="0.3"/>
<path d="M9.84566 35.693C9.61176 34.6608 9.71004 33.1803 9.70902 32.1007L9.70613 12.0209C9.70574 9.70683 9.19699 8.31613 12.0059 8.23238C13.3296 8.19285 14.6657 8.22894 15.9904 8.22886L32.0314 8.22738C32.9033 8.2223 33.326 8.12847 33.9844 8.74019L34.0219 8.73308C34.3972 9.28097 34.306 10.0449 34.3058 10.6721L34.3043 12.548C33.8313 12.4871 33.3597 12.5003 32.884 12.5037L20.8071 12.5671C20.0337 12.5592 19.224 12.5063 18.4549 12.5932C16.5388 12.8096 16.4046 14.546 16.4045 16.0098L16.4056 33.9914C16.4053 34.7718 16.2729 35.5601 16.294 36.3349L12.4747 36.334C11.6591 36.3339 10.3464 36.5558 9.84566 35.693Z" fill="#FC6362" fill-opacity="0.3"/>
<path d="M17.3759 41.3532C17.383 40.9413 17.2519 40.3157 17.25 39.769L17.2995 16.1739C17.252 13.4482 17.947 13.4769 20.5148 13.48L32.8659 13.4803C34.3516 13.4802 35.8503 13.5205 37.3345 13.476C38.083 13.4535 38.9068 13.2603 39.642 13.4558C39.7814 13.4929 40.0268 13.6226 40.1556 13.5904C40.8334 14.2217 40.633 16.0277 40.633 16.8932L40.6331 38.9194C40.632 41.6027 40.3317 41.7485 37.6607 41.7457L18.7993 41.7465C18.2895 41.7501 17.7156 41.8476 17.3759 41.3532Z" fill="#60CAEF" fill-opacity="0.3"/>
<path d="M24.75 18.704L24.7849 18.6972C24.8923 18.8042 24.9224 18.7143 24.8797 18.5986C24.9921 18.6643 25.0923 19.1429 25.1133 19.3085H24.9631C24.9166 19.0957 24.8402 18.9016 24.75 18.704Z" fill="#BDEFFA" fill-opacity="0.3"/>
<path d="M36.4766 30.2422C36.6691 30.3387 37.0123 30.4835 36.8364 30.7487C36.7624 30.657 36.588 30.6693 36.4766 30.6507C36.5058 30.5148 36.5073 30.3777 36.4766 30.2422Z" fill="#BDEFFA" fill-opacity="0.3"/>
<path d="M36.4761 17.4112L36.4946 17.3989C36.6149 17.428 36.7424 17.4466 36.7997 17.5725C37.0759 18.1804 35.0663 18.0171 34.8834 18.0171L32.2207 18.0158C31.8532 18.0158 30.4784 18.1 30.2207 17.9361C29.9133 17.7405 29.8791 17.2977 30.3294 17.2881L30.365 17.3248C30.2923 17.9255 31.3017 17.7265 31.7745 17.7268L35.2384 17.7279C35.6098 17.7286 36.5356 17.9078 36.4761 17.4112Z" fill="#FEFEFE" fill-opacity="0.3"/>
<path d="M36.5426 21.9323C36.554 21.8284 36.5385 21.726 36.5276 21.6226C36.7981 21.5455 37.2143 21.9627 36.664 22.3098C36.2608 22.5641 32.3968 22.4471 31.7654 22.4354C31.6667 22.4336 30.351 22.4072 30.315 22.3967C29.8967 22.2748 29.8765 21.437 30.3664 21.7555C30.3076 22.2684 31.2055 22.0944 31.6042 22.0941L35.1365 22.0932C35.4052 22.0941 36.4051 22.2203 36.5426 21.9323Z" fill="#FEFEFE" fill-opacity="0.3"/>
<path d="M30.634 21.4608C31.832 21.4303 33.0393 21.4604 34.2384 21.46H35.5342C36.0795 21.4603 36.5075 21.2765 36.5422 21.9324C36.4047 22.2204 35.4049 22.0941 35.1362 22.0933L31.6038 22.0941C31.2052 22.0944 30.3073 22.2685 30.366 21.7555C30.4483 21.649 30.5251 21.542 30.634 21.4608Z" fill="#3D3D57" fill-opacity="0.3"/>
<path d="M30.3651 17.3253C30.6797 16.8667 31.6901 17.0687 32.2333 17.0687C32.7112 17.0687 36.0916 16.9839 36.3044 17.128C36.3899 17.1858 36.4362 17.3204 36.4762 17.4117C36.5357 17.9083 35.6098 17.7291 35.2385 17.7284L31.7746 17.7273C31.3018 17.727 30.2923 17.926 30.3651 17.3253Z" fill="#3D3D57" fill-opacity="0.3"/>
<path d="M36.4773 35.0047C36.6159 34.9636 36.6307 34.8354 36.7902 34.9062C37.1709 35.7868 32.9639 35.4491 32.2334 35.4492L23.4227 35.4469C23.0573 35.4479 22.2154 35.5094 21.91 35.4199C21.5187 35.3052 21.3923 34.89 21.8208 34.749C21.9052 35.1393 21.9962 35.1182 22.3941 35.1289C23.1577 35.1497 23.9268 35.13 24.6908 35.1297L33.7776 35.1314C34.1858 35.1314 36.2778 35.254 36.4773 35.0047Z" fill="#FEFEFE" fill-opacity="0.3"/>
<path d="M21.8205 31.0698C21.5401 30.8279 21.4622 30.5245 21.8205 30.3525C21.8877 30.6918 21.9277 30.7259 22.2701 30.742C22.9497 30.7739 23.6405 30.7487 24.3213 30.7487L34.0887 30.7482C34.5283 30.7482 36.2088 30.8778 36.4769 30.6505C36.5884 30.6691 36.7628 30.6568 36.8368 30.7485C36.4933 31.2676 35.2427 31.0715 34.7055 31.0711L21.8205 31.0698Z" fill="#FEFEFE" fill-opacity="0.3"/>
<path d="M21.5801 26.2532C21.6437 26.1341 21.69 26.0541 21.8194 26.0039C21.8998 26.5448 22.3948 26.3834 22.7986 26.3829L35.4755 26.3797C35.8512 26.3786 36.5911 26.6055 36.5409 26.0039C36.8757 26.1248 37.1081 26.3101 36.6423 26.5684C36.1794 26.8252 34.6187 26.7162 34.0704 26.7162L30.9425 26.7162C29.9914 26.7161 22.1245 26.7691 21.8714 26.6658C21.6989 26.5955 21.6427 26.4122 21.5801 26.2532Z" fill="#FEFEFE" fill-opacity="0.3"/>
<path d="M21.8203 30.353C22.3985 29.8935 24.1933 30.1035 25.009 30.1039L35.415 30.1034C35.7331 30.1035 36.2152 30.02 36.4768 30.2424C36.5075 30.378 36.506 30.5151 36.4768 30.651C36.2087 30.8782 34.5281 30.7487 34.0886 30.7486L24.3212 30.7492C23.6403 30.7492 22.9495 30.7744 22.2699 30.7424C21.9276 30.7263 21.8876 30.6923 21.8203 30.353Z" fill="#3D3D57" fill-opacity="0.3"/>
<path d="M21.8203 34.7488L21.8405 34.7233C22.1749 34.2962 22.7091 34.4561 23.2694 34.456L31.6816 34.4564C32.1752 34.4564 36.1736 34.4009 36.3249 34.5397C36.4373 34.6427 36.4582 34.8622 36.4768 35.0045C36.2773 35.2538 34.1853 35.1312 33.7771 35.1311L24.6903 35.1295C23.9263 35.1297 23.1572 35.1495 22.3936 35.1287C21.9957 35.1179 21.9048 35.139 21.8203 34.7488Z" fill="#3D3D57" fill-opacity="0.3"/>
<path d="M21.8203 26.0042C22.166 25.527 22.8004 25.7073 23.4077 25.707L35.3182 25.7066C35.7506 25.7059 36.3085 25.5395 36.5419 26.0042C36.592 26.6059 35.8522 26.3789 35.4765 26.38L22.7995 26.3832C22.3958 26.3837 21.9008 26.5452 21.8203 26.0042Z" fill="#3D3D57" fill-opacity="0.3"/>
<path d="M20.8087 20.9681C20.7736 20.8566 20.6809 20.723 20.631 20.6119C19.6393 18.4043 22.8536 16.0695 24.7504 18.7036C24.8406 18.9011 24.9169 19.0953 24.9635 19.308H25.1136C25.5003 20.616 24.9759 20.4778 24.7504 21.3182C24.932 21.5646 25.7661 22.2814 25.7159 22.5528C25.6071 23.1413 24.688 22.1329 24.5915 22.0923C24.0057 22.1044 24.4209 21.8204 23.5647 22.1847C22.4983 22.6385 20.6097 21.7205 20.8087 20.9681Z" fill="#3D3D57" fill-opacity="0.3"/>
<path d="M24.2372 19.3828C24.2631 19.5584 24.2254 19.6949 24.3745 19.8256C24.3152 20.0985 24.2338 20.2998 24.0692 20.5269C23.9955 20.4377 23.9148 20.3498 23.8496 20.2546C24.1216 19.9727 24.2159 19.7761 24.2372 19.3828Z" fill="#F8B6C1" fill-opacity="0.3"/>
<path d="M24.9641 19.3086H25.1142C25.5009 20.6166 24.9765 20.4784 24.7509 21.3187C24.6606 21.2266 24.5577 21.1438 24.4609 21.0585C24.9417 20.6048 25.0782 19.9484 24.9641 19.3086Z" fill="#FEFEFE" fill-opacity="0.3"/>
<path d="M24.5923 22.092C24.0064 22.1041 24.4217 21.82 23.5655 22.1844C22.4991 22.6382 20.6105 21.7202 20.8095 20.9678C21.5282 21.949 23.1491 22.4817 23.9941 21.46C24.2302 21.6301 24.4089 21.8689 24.5923 22.092Z" fill="#FEFEFE" fill-opacity="0.3"/>
<path d="M21.6765 21.0581C20.8819 20.4049 20.9028 19.2112 21.7048 18.5507C22.7848 17.6611 24.5102 18.3882 24.3738 19.8258C24.2247 19.6951 24.2624 19.5585 24.2365 19.383C23.4955 17.5355 20.9814 18.7402 21.5605 20.6804C21.5961 20.7997 21.6606 20.9367 21.6765 21.0581Z" fill="#FEFEFE" fill-opacity="0.3"/>
<path d="M21.6765 21.0585C21.6605 20.937 21.5961 20.8001 21.5604 20.6808C20.9813 18.7405 23.4954 17.5359 24.2365 19.3834C24.2151 19.7766 24.1209 19.9733 23.8489 20.2551C23.7067 20.0973 23.2601 19.6836 23.3203 20.1973C23.3512 20.4609 23.5878 20.8571 23.5268 21.1004C23.1034 21.6493 22.1399 21.4209 21.6765 21.0585Z" fill="#FC6362" fill-opacity="0.3"/>
</svg>
