<svg width="50" height="50" viewBox="0 0 50 50" fill="none" xmlns="http://www.w3.org/2000/svg">
<path d="M37.0119 26.7436C38.3312 26.7194 37.6419 27.6809 37.9123 28.6844C38.3153 28.9777 38.7761 29.1892 39.2011 29.4491L39.2261 29.4312C39.5395 29.2033 40.8302 27.8897 41.0821 27.8998C41.4175 28.038 43.2435 29.8269 43.1861 30.1463C42.9743 30.4805 42.0821 31.5004 41.7914 31.7758C42.0471 32.1071 42.366 32.7957 42.423 33.2076C42.9925 33.2076 43.6906 33.1551 44.244 33.1912C44.8432 33.2303 44.6476 34.2207 44.6452 34.678C44.6309 37.2992 44.9014 36.6964 42.3157 36.7298C42.1715 37.2063 41.9279 37.6467 41.7914 38.1192C42.0459 38.4408 43.1486 39.57 43.1792 39.9148C43.0345 40.2473 41.3085 41.9957 41.1171 42.0877C40.8514 42.2154 39.7993 41.0166 39.5071 40.8415C39.0443 41.0033 38.3432 41.287 37.9123 41.513C37.8442 42.0179 37.8771 43.6259 37.3607 43.6718C37.0192 43.7021 35.0732 43.712 34.8314 43.6648C34.2319 43.548 34.3071 41.9519 34.3055 41.513C33.8228 41.4575 33.0029 41.1235 32.5879 40.8415C32.1839 41.0721 31.1173 42.1229 31.0497 42.103C30.7261 42.0074 28.7908 40.1007 28.8768 39.8191C28.9539 39.5658 29.7478 38.6935 29.9693 38.4719C30.0657 38.36 30.1471 38.2415 30.2295 38.1192C30.3028 37.8495 29.9996 36.9846 29.8711 36.7298C27.9775 36.527 27.7003 37.3239 27.7319 34.9908C27.7396 34.4219 27.695 33.8236 27.7953 33.2614C28.4439 33.1441 29.2102 33.2063 29.8711 33.2076C29.9731 32.6711 30.2519 32.1199 30.507 31.6385C30.0321 31.123 29.5829 30.5564 29.221 29.9553C29.5222 29.5729 30.9376 28.043 31.3285 27.9834C31.5876 27.9439 32.5905 29.1412 32.8925 29.3468C34.7179 28.9058 34.3712 28.4476 34.3695 26.8537C34.9902 26.663 36.3098 26.7433 37.0119 26.7436ZM35.3924 27.6316H35.3219L35.2904 27.6049C35.1896 27.5852 35.0797 27.5395 34.9859 27.5832C34.9875 28.1087 35.0168 28.6499 34.9859 29.1737C34.3613 29.5337 33.7218 29.7538 33.07 30.0376C32.6446 30.0409 32.1919 29.4312 31.8585 29.1933L31.8307 29.1737C31.7311 29.219 31.6295 29.1887 31.5227 29.1737C31.1057 29.3602 30.5772 29.7348 30.2295 30.0376C30.284 30.2126 30.57 30.5813 30.507 30.7416C30.6904 31.0568 31.0836 31.3189 31.2022 31.6385C30.8983 32.0958 30.4023 33.215 30.3835 33.7592C30.0737 33.8132 28.5148 33.8263 28.4086 33.9109L28.3928 34.0049C28.3811 34.683 28.369 35.3756 28.3928 36.053C28.6889 36.0349 30.2168 36.0061 30.3835 36.119C30.5548 36.8968 30.7957 37.6453 31.0526 38.398C30.6711 38.9877 30.0454 39.3845 29.6717 39.9696C29.858 40.1462 30.0255 40.3383 30.2295 40.4953C30.4282 40.8063 30.7423 41.0826 31.0526 41.2791C31.5471 40.8375 32.058 40.3663 32.5879 39.9696C33.4958 40.438 33.9138 40.7404 34.9859 40.8415C34.9463 41.2611 34.9142 42.7732 35.2791 43.0159C35.8765 42.9761 36.5028 43.0165 37.1036 43.0159C37.1639 42.3168 37.1475 41.5098 37.3546 40.8415C38.3188 40.5412 38.5524 40.5594 39.5071 39.9696C40.0132 40.2809 40.6097 40.8571 41.0399 41.2791C41.4094 40.8046 41.9735 40.2515 42.423 39.8469C42.0053 39.4739 41.2745 38.7086 41.102 38.188C41.198 37.8533 41.7476 36.3712 41.8924 36.053H43.9976V33.848C43.3336 33.8657 42.6389 33.7813 41.9803 33.848C41.9353 33.6289 41.2443 32.1023 41.102 31.7758C41.3196 31.2848 42.0471 30.5528 42.423 30.1145C42.1396 29.7517 41.7837 29.3619 41.4296 29.0676C40.7995 29.2777 40.2795 30.1335 39.3125 30.4248C38.9633 30.2653 38.6375 30.0668 38.2674 29.9553C38.0671 29.8488 37.8535 29.7634 37.6458 29.6722C37.4764 29.6431 37.3095 29.5379 37.3546 29.3468C37.0529 29.0957 37.143 27.9665 37.1461 27.5832C36.937 27.6726 35.669 27.6517 35.3924 27.6316Z" fill="#3F3C59"/>
<path d="M30.0355 30.0371C30.1103 30.0966 30.155 30.0824 30.2301 30.0371C30.2846 30.2121 30.5705 30.5809 30.5076 30.7412C30.3513 30.5606 30.1147 30.2889 30.0195 30.0689L30.0355 30.0371Z" fill="#FFE4CB"/>
<path d="M37.3551 29.3477L38.0815 29.587C37.9507 29.6051 37.7373 29.572 37.6463 29.673C37.4769 29.644 37.31 29.5387 37.3551 29.3477Z" fill="#FE9E9E"/>
<path d="M38.0816 29.5859L38.4534 29.7761C38.3786 29.7912 38.3176 29.7852 38.2702 29.8471L38.268 29.9551C38.0677 29.8486 37.8541 29.7632 37.6465 29.672C37.7374 29.5709 37.9509 29.604 38.0816 29.5859Z" fill="#FBD8D7"/>
<path d="M35.3223 27.417C35.648 27.4162 36.9109 27.3482 37.1401 27.4933L37.1466 27.5834C36.9374 27.6728 35.6695 27.652 35.3928 27.6319H35.3223L35.2909 27.6052C35.19 27.5855 35.0802 27.5398 34.9863 27.5834C35.0005 27.3648 35.1444 27.4107 35.3223 27.417Z" fill="url(#paint0_linear_2319_10339)"/>
<path d="M34.9863 27.5829C35.0005 27.3642 35.1444 27.4102 35.3223 27.4165L35.3438 27.4262C35.5067 27.4977 35.8821 27.5215 35.3928 27.6313H35.3223L35.2909 27.6046C35.19 27.5849 35.0802 27.5392 34.9863 27.5829Z" fill="#FFE4CB"/>
<path d="M31.3834 28.7891C31.5302 28.9206 31.6789 29.0488 31.8309 29.1742C31.7314 29.2195 31.6298 29.1892 31.523 29.1742C31.106 29.3608 30.5775 29.7353 30.2298 30.0381C30.1547 30.0834 30.11 30.0976 30.0352 30.0381C30.3981 29.5513 30.9429 29.2039 31.3834 28.7891Z" fill="#FEFEFE"/>
<path d="M41.1022 28.7891L41.4298 29.0681C40.7997 29.2783 40.2797 30.1341 39.3127 30.4253C38.9635 30.2659 38.6377 30.0673 38.2676 29.9559L38.2698 29.8479C38.3171 29.786 38.3781 29.792 38.4529 29.7769C38.7457 29.9085 39.029 30.0697 39.3127 30.2201C39.8365 30.0012 40.6291 29.1791 41.1022 28.7891Z" fill="#FEFEFE"/>
<path d="M35.3922 27.6312C35.6688 27.6513 36.9368 27.6721 37.1459 27.5827C37.1428 27.966 37.0527 29.0952 37.3544 29.3463C37.3093 29.5374 37.4762 29.6427 37.6456 29.6717C37.8533 29.763 38.0669 29.8484 38.2672 29.9549C38.6373 30.0663 38.9631 30.2649 39.3123 30.4243C40.2793 30.1331 40.7993 29.2773 41.4294 29.0671C41.7835 29.3614 42.1394 29.7513 42.4228 30.1141C42.0469 30.5524 41.3194 31.2843 41.1018 31.7753C41.2441 32.1019 41.9351 33.6284 41.9802 33.8476C42.6387 33.7809 43.3334 33.8652 43.9974 33.8476V36.0525H41.8922C41.7474 36.3707 41.1978 37.8528 41.1018 38.1876C41.2743 38.7081 42.0051 39.4734 42.4228 39.8464C41.9733 40.2511 41.4092 40.8041 41.0397 41.2787C40.6095 40.8566 40.013 40.2805 39.5069 39.9691C38.5522 40.5589 38.3186 40.5408 37.3544 40.8411C37.1473 41.5094 37.1637 42.3163 37.1033 43.0155C36.5026 43.0161 35.8763 42.9756 35.2789 43.0155C34.914 42.7727 34.9461 41.2606 34.9857 40.8411C33.9136 40.7399 33.4956 40.4376 32.5877 39.9691C32.0578 40.3659 31.5469 40.837 31.0524 41.2787C30.7421 41.0821 30.428 40.8059 30.2293 40.4949C30.0253 40.3378 29.8578 40.1457 29.6715 39.9691C30.0452 39.3841 30.6709 38.9873 31.0524 38.3976C30.7955 37.6449 30.5546 36.8963 30.3833 36.1185C30.2166 36.0056 28.6887 36.0345 28.3926 36.0525C28.3688 35.3752 28.3809 34.6825 28.3926 34.0045L28.4084 33.9105C28.5146 33.8259 30.0735 33.8127 30.3833 33.7588C30.4021 33.2145 30.8981 32.0954 31.202 31.6381C31.0834 31.3184 30.6902 31.0563 30.5068 30.7412C30.5698 30.5809 30.2838 30.2121 30.2293 30.0371C30.577 29.7343 31.1055 29.3598 31.5225 29.1732C31.6293 29.1882 31.7309 29.2185 31.8305 29.1732L31.8583 29.1928C32.1917 29.4308 32.6444 30.0405 33.0698 30.0371C33.7216 29.7534 34.3611 29.5333 34.9857 29.1732C35.0166 28.6495 34.9873 28.1082 34.9857 27.5827C35.0795 27.5391 35.1894 27.5848 35.2902 27.6045L35.3217 27.6312H35.3922ZM38.7201 35.557C38.2876 37.3035 36.4269 38.3826 34.7449 37.5082C34.6698 37.5472 34.6464 37.5459 34.613 37.6264C36.8348 39.0816 39.676 37.0473 39.0191 34.3983L38.9433 34.3886C38.6631 34.6626 39.081 35.2628 38.7201 35.557ZM31.202 31.6381C30.8981 32.0954 30.4021 33.2145 30.3833 33.7588C30.0735 33.8127 28.5146 33.8259 28.4084 33.9105L28.3926 34.0045C28.6016 34.2449 30.4905 34.0767 30.5623 33.9968C30.6151 33.9381 31.8905 31.1213 31.202 31.6381ZM34.9857 27.5827C34.9873 28.1082 35.0166 28.6495 34.9857 29.1732C34.3611 29.5333 33.7216 29.7534 33.0698 30.0371L32.9933 30.0842L32.9913 30.1342C33.2385 30.5314 34.7731 29.6557 35.2789 29.4487C35.2837 28.9181 35.2128 28.1288 35.3217 27.6312L35.2902 27.6045C35.1894 27.5848 35.0795 27.5391 34.9857 27.5827ZM30.3833 36.1185C30.5546 36.8963 30.7955 37.6449 31.0524 38.3976C30.6709 38.9873 30.0452 39.3841 29.6715 39.9691C29.8578 40.1457 30.0253 40.3378 30.2293 40.4949C30.1236 40.3079 29.964 40.1789 29.8709 39.9691C30.0606 39.8486 31.229 38.8395 31.3829 38.6564C31.058 37.7977 30.8016 36.9192 30.5023 36.0518L30.4579 36.0482L30.3833 36.1185ZM35.2789 43.0155C34.914 42.7727 34.9461 41.2606 34.9857 40.8411C35.3105 40.7991 35.3139 42.8742 35.2789 43.0155Z" fill="#FD6564"/>
<path d="M34.1065 37.1055C34.168 37.1462 34.2523 37.188 34.3051 37.2377C34.2172 37.2758 34.2226 37.2756 34.1829 37.3637C34.1104 37.3114 34.0027 37.2536 33.9648 37.1708L33.983 37.1305L34.1065 37.1055Z" fill="#FE9E9E"/>
<path d="M34.1836 37.3642C34.2233 37.2762 34.2179 37.2763 34.3058 37.2383C34.4492 37.337 34.5917 37.427 34.7454 37.5088C34.6702 37.5478 34.6469 37.5466 34.6135 37.627C34.4594 37.5561 34.3181 37.467 34.1836 37.3642Z" fill="#FBD8D7"/>
<path d="M41.9805 33.8484C42.639 33.7816 43.3337 33.866 43.9977 33.8484C43.9932 33.9288 44.0049 34.047 43.9185 34.08C43.7942 34.1274 42.0513 34.2948 41.9805 33.8484Z" fill="#FEFEFE"/>
<path d="M34.106 37.107C30.8931 33.0335 36.9589 29.9645 38.5794 33.7603L38.6394 33.7139C38.8346 33.7806 38.9585 34.2252 39.0185 34.3999L38.9426 34.3902C38.6625 34.6642 39.0803 35.2644 38.7194 35.5585C38.287 37.3051 36.4263 38.3842 34.7443 37.5098C34.5906 37.4279 34.4481 37.3379 34.3046 37.2392C34.2518 37.1895 34.1676 37.1477 34.106 37.107Z" fill="#3F3C59"/>
<path d="M38.5801 33.7593L38.6401 33.7129C38.8353 33.7795 38.9591 34.2241 39.0191 34.3988L38.9433 34.3891C38.6631 34.6631 39.081 35.2634 38.7201 35.5575C38.8158 34.9745 38.8109 34.3109 38.5801 33.7593Z" fill="#FEFEFE"/>
<path d="M35.8078 32.6777C39.1125 32.8419 38.602 36.7588 36.1146 37.1066C33.2948 37.2934 32.9379 33.1151 35.8078 32.6777Z" fill="#FEFEFE"/>
<path d="M26.526 38.7714C26.4748 38.7759 26.4233 38.7796 26.3719 38.7799L11.9518 38.7699C11.4 38.7711 10.7879 38.8318 10.2431 38.7415C8.81413 38.5045 7.94827 37.1232 7.93429 35.7467C7.91483 33.8283 7.93483 31.9079 7.93483 29.9894L7.93343 11.2128C7.93405 8.79364 8.73093 7.46841 11.31 7.44658L32.0483 7.44536C33.9283 7.44465 36.5623 7.12064 37.0429 9.66254C37.1475 10.2158 37.1048 10.8292 37.1049 11.3918L37.0123 24.1704C36.9512 24.2265 36.9879 24.2191 36.9122 24.2109C36.2779 24.1423 36.4251 23.7834 36.4264 23.2915V16.4823H8.95937C8.94249 16.8639 8.95788 17.2456 8.9589 17.6274L8.95897 35.2877C8.95874 36.0542 9.0178 36.526 9.06382 37.2389C9.69343 38.2274 10.7226 38.1275 11.7331 38.1214L25.2036 38.1188C25.6014 38.1182 26.0388 38.0769 26.4323 38.12C26.4644 38.2332 26.5123 38.3565 26.526 38.4727C26.5228 38.5722 26.5253 38.6719 26.526 38.7714Z" fill="#3F3C59"/>
<path d="M8.95836 15.5301C8.45914 15.5138 8.64218 15.0197 8.64195 14.5061L8.6432 11.3179C8.64328 10.9044 8.63015 10.4813 8.67468 10.0696C8.90797 7.91166 11.128 8.1265 12.7194 8.12666L32.8627 8.12681C33.9464 8.12712 35.235 7.95595 35.973 8.91947L35.9259 8.91642C35.0623 8.27306 34.2326 8.4365 33.211 8.4365L12.2029 8.43501C10.9009 8.43259 9.31531 8.3715 9.00781 10.0739C8.81031 11.1671 8.93281 14.3292 8.95836 15.5301Z" fill="#FEFEFE"/>
<path d="M8.60754 16.2349C9.15863 16.1992 9.72269 16.2338 10.2755 16.2346L35.09 16.2347C35.5369 16.2341 36.4499 16.2406 36.4499 16.2406C36.4446 16.2353 36.4446 16.491 36.4446 16.491L8.96137 16.4994C8.94449 16.881 8.95988 17.2627 8.9609 17.6445L8.96097 35.3048C8.96074 36.0713 9.0198 36.5431 9.06582 37.256C8.38254 36.467 8.60777 34.9273 8.60801 33.9656L8.60754 16.2349Z" fill="#FEFEFE"/>
<path d="M8.95941 15.5301C8.93386 14.3293 8.81136 11.1671 9.00886 10.0739C9.31636 8.37152 10.902 8.43261 12.2039 8.43504L33.2121 8.43652C34.2336 8.43652 35.0633 8.27308 35.927 8.91644L35.9741 8.91949C36.681 9.6655 36.4703 11.1162 36.4703 12.0451L36.4689 15.5301L9.94363 15.53C9.61792 15.5299 9.28449 15.5146 8.95941 15.5301Z" fill="#FD6564"/>
<path d="M11.1348 12.9327C11.3692 12.9138 11.6056 12.9074 11.8397 12.9327C11.7577 12.9621 11.6806 12.9834 11.6155 13.0431L11.5898 13.1104L11.6214 13.1659C11.4523 13.0971 11.2941 13.0219 11.1348 12.9327Z" fill="#EAFEFE"/>
<path d="M15.4898 12.9333C15.2534 12.83 14.9923 12.5773 14.9395 12.3245C15.0312 12.3594 14.9982 12.5939 15.1078 12.4141C15.0356 12.3732 15.0362 12.3721 15.0054 12.2948L15.0397 12.2891C15.1988 12.4692 15.3706 12.635 15.567 12.7744L15.4898 12.9333Z" fill="#FE9E9E"/>
<path d="M21.5646 10.6992C23.0238 11.1952 21.653 14.2656 19.7754 12.9314C20.1023 12.9237 20.3748 12.9756 20.709 12.9314C21.6791 12.5427 22.3506 11.6799 21.5646 10.6992Z" fill="#FEFEFE"/>
<path d="M12.8965 10.5742C12.9676 10.558 12.998 10.5666 13.0609 10.6052C14.1997 11.3034 13.4152 13.7588 11.6215 13.1653L11.5898 13.1098L11.6155 13.0425C11.6807 12.9827 11.7577 12.9615 11.8398 12.9321C12.0056 12.9512 12.1596 12.9122 12.3184 12.8705C13.2223 12.5616 13.6441 11.2646 12.8965 10.5742Z" fill="#FEFEFE"/>
<path d="M16.7752 10.3068C17.4747 9.96957 18.0788 11.6081 17.7708 12.4015C17.418 13.3102 16.2613 13.3982 15.4902 12.9319L15.5674 12.773C17.1862 13.7265 18.5124 11.1445 16.7752 10.3068Z" fill="#FEFEFE"/>
<path d="M34.6126 11.2422C34.7713 11.3192 34.8972 11.4065 34.9565 11.581C35.1428 12.1298 33.6141 11.9362 33.3666 11.9355L30.8295 11.9353C29.6743 11.9354 27.8555 12.0553 26.7577 11.9349C26.6958 11.8504 26.6671 11.8032 26.6523 11.6973C27.1148 11.6508 28.3673 11.6485 28.8408 11.6973L32.8152 11.6975C33.3407 11.6978 34.7812 11.9931 34.6126 11.2422Z" fill="#FEFEFE"/>
<path d="M26.6523 11.6978C27.1148 11.6513 28.3673 11.6491 28.8408 11.6978C28.9378 11.7262 29.0306 11.7425 29.131 11.7544C28.6136 11.8348 27.0146 11.5507 26.7577 11.9355C26.6958 11.851 26.6671 11.8038 26.6523 11.6978Z" fill="url(#paint1_linear_2319_10339)"/>
<path d="M26.6536 11.6966C26.4623 11.5443 26.0828 11.3952 26.364 11.0787C26.4866 10.9407 29.4145 11.0347 29.8179 11.0349L32.6019 11.033C33.1208 11.0319 34.2012 10.8732 34.6138 11.2415C34.7824 11.9924 33.3419 11.6971 32.8165 11.6968L28.842 11.6966C28.3686 11.6478 27.1161 11.6501 26.6536 11.6966Z" fill="#3F3C59"/>
<path d="M12.3189 12.8701C9.56976 12.98 10.5347 9.17855 12.897 10.5738C13.6446 11.2642 13.2229 12.5612 12.3189 12.8701Z" fill="#3F3C59"/>
<path d="M11.8407 10.8649C12.7129 10.815 12.8373 11.949 12.0758 12.1903C11.1197 12.2122 10.9843 11.1708 11.8407 10.8649Z" fill="#FEFEFE"/>
<path d="M20.7088 12.932C18.7992 12.768 18.9281 10.533 20.245 10.2523C20.7998 10.1339 21.134 10.4161 21.5644 10.6998C22.3504 11.6805 21.6789 12.5432 20.7088 12.932Z" fill="#3F3C59"/>
<path d="M20.4245 10.866C21.25 10.7486 21.4929 11.8709 20.7079 12.1914C19.7246 12.2337 19.4993 11.1849 20.4245 10.866Z" fill="#FEFEFE"/>
<path d="M15.0395 12.2889C14.513 10.9186 15.4094 9.99222 16.7747 10.3081C18.5119 11.1457 17.1857 13.7278 15.5669 12.7742C15.3705 12.6349 15.1987 12.4691 15.0395 12.2889Z" fill="#3F3C59"/>
<path d="M16.0455 10.8658C17.0428 10.7632 17.3753 11.9099 16.4114 12.2884C15.9035 12.3331 15.522 11.9979 15.4902 11.4944C15.5858 11.1624 15.7184 11.0165 16.0455 10.8658Z" fill="#FEFEFE"/>
<path d="M8.93364 16.4824H36.4432L36.4421 23.3012C36.4408 23.7931 36.3525 24.1507 36.9868 24.2193C36.9868 24.5367 36.9868 25.147 36.9868 25.147C36.9868 25.147 36.9868 25.9039 36.9868 26.2079C36.9868 26.5119 36.9742 26.5643 36.9868 26.7445C36.2847 26.7443 34.965 26.6639 34.3443 26.8546C34.3461 28.4486 34.6928 28.9067 32.8673 29.3477C32.5654 29.1422 31.5625 27.9448 31.3033 27.9844C30.9125 28.044 29.4971 29.5738 29.1958 29.9563C29.5577 30.5573 30.007 31.1239 30.4818 31.6395C30.2268 32.1209 29.9479 32.672 29.8459 33.2085C29.185 33.2073 28.4188 33.1451 27.7701 33.2623C27.6699 33.8245 27.7145 34.4229 27.7068 34.9918C27.6751 37.3248 27.9523 36.528 29.8459 36.7308C29.9744 36.9855 30.2776 37.8505 30.2043 38.1202C30.1219 38.2424 30.0406 38.3609 29.9441 38.4728C29.8803 38.2989 29.8275 38.3065 29.6465 38.3116C29.013 38.5646 26.8061 38.2768 26.519 38.4207L26.5003 38.4728C26.4866 38.3566 26.4386 38.2333 26.4065 38.1202C26.0131 38.077 25.5757 38.1183 25.1779 38.1189L11.7074 38.1215C10.6969 38.1277 9.6677 38.2275 9.0381 37.2391C8.99208 36.5261 8.93302 36.0543 8.93325 35.2878L8.93317 17.6275C8.93216 17.2457 8.91677 16.8641 8.93364 16.4824Z" fill="#5CCAF0"/>
<path d="M29.9695 38.0605C30.0452 38.0624 30.1189 38.067 30.1944 38.0745L30.2297 38.1189C30.1473 38.2412 30.0659 38.3597 29.9695 38.4716C29.9056 38.2977 29.8528 38.3052 29.6719 38.3103C29.765 38.2197 29.8677 38.1412 29.9695 38.0605Z" fill="#9CEDFE"/>
<path d="M13.9795 32.9301C13.7417 32.7391 13.4103 32.2946 13.8656 32.125C13.6833 32.8995 14.7098 32.6809 15.1692 32.6787L23.6176 32.696C23.9422 32.6944 24.0368 32.5246 23.9983 32.2392C24.1521 32.3413 24.2303 32.4526 24.32 32.609C24.2883 32.6846 24.2542 32.7879 24.1911 32.8441C23.9453 33.063 21.6717 32.9295 21.0656 32.9295L13.9795 32.9301Z" fill="#FEFEFE"/>
<path d="M13.8647 29.8618C13.6406 29.7123 13.3951 29.3008 13.7701 29.1543L13.8009 29.1735C13.7595 29.8389 14.3784 29.5859 15.0067 29.5862L21.5244 29.5855C22.0295 29.5855 24.0261 29.853 23.9975 29.2619C24.6088 29.4134 24.2226 29.8599 23.7958 29.8877C23.5217 29.9055 23.2193 29.8599 22.9408 29.8598L15.7832 29.862C15.1466 29.862 14.4997 29.8913 13.8647 29.8618Z" fill="#FEFEFE"/>
<path d="M31.523 22.6367C32.7307 23.6056 29.5935 23.3137 29.2707 23.3137L17.5397 23.3141C16.3717 23.3137 14.8313 23.3827 13.6986 23.2277C13.6265 23.0507 13.5265 22.7937 13.7536 22.6884L13.7906 22.7056L13.8016 22.7549C13.8172 22.8543 13.8425 22.9522 13.8654 23.0502C14.2697 23.0796 14.6765 23.0519 15.0814 23.0513L30.5158 23.0518C30.9317 23.0544 31.5247 23.2158 31.523 22.6367Z" fill="#EAFEFE"/>
<path d="M13.8008 29.1732C14.0293 28.7941 14.5163 28.8933 14.9056 28.885C15.7872 28.8663 23.6203 28.8413 23.7975 28.9142C23.9465 28.9755 23.9088 29.1635 23.9974 29.2615C24.026 29.8526 22.0294 29.5851 21.5243 29.5852L15.0066 29.5858C14.3783 29.5855 13.7594 29.8386 13.8008 29.1732Z" fill="#3F3C59"/>
<path d="M13.8652 32.1251C14.1675 31.8589 15.1932 31.9685 15.6034 31.9684H21.2253C21.9721 31.968 23.4871 31.7734 23.9979 32.2393C24.0364 32.5247 23.9418 32.6945 23.6172 32.6961L15.1688 32.6788C14.7094 32.681 13.6829 32.8995 13.8652 32.1251Z" fill="#3F3C59"/>
<path d="M13.8008 22.7559C13.9487 22.185 15.0022 22.405 15.4291 22.4048L29.9658 22.4046C30.4384 22.4051 30.9105 22.431 31.3826 22.4042L31.5222 22.6377C31.5238 23.2167 30.9309 23.0553 30.515 23.0528L15.0805 23.0523C14.6757 23.0528 14.2689 23.0806 13.8646 23.0511C13.8416 22.9532 13.8163 22.8553 13.8008 22.7559Z" fill="#3F3C59"/>
<defs>
<linearGradient id="paint0_linear_2319_10339" x1="37.0295" y1="27.6775" x2="35.6828" y2="27.3223" gradientUnits="userSpaceOnUse">
<stop stop-color="#FF8D95"/>
<stop offset="1" stop-color="#FFDCC0"/>
</linearGradient>
<linearGradient id="paint1_linear_2319_10339" x1="27.91" y1="11.9061" x2="27.9458" y2="11.6007" gradientUnits="userSpaceOnUse">
<stop stop-color="#FFEEF4"/>
<stop offset="1" stop-color="#FFFFFC"/>
</linearGradient>
</defs>
</svg>
